<?xml version="1.0" encoding="UTF-8" standalone="no"?>
<!DOCTYPE svg PUBLIC "-//W3C//DTD SVG 1.1//EN" "http://www.w3.org/Graphics/SVG/1.1/DTD/svg11.dtd">
<svg width="100%" height="100%" viewBox="0 0 23 21" version="1.1" xmlns="http://www.w3.org/2000/svg"
     xml:space="preserve"
     style="fill-rule:evenodd;clip-rule:evenodd;stroke-linejoin:round;stroke-miterlimit:2;">
    <g transform="matrix(1,0,0,1,-339.623,-314.378)">
        <g transform="matrix(1,0,0,1,185.106,-27.6156)">
            <path d="M174.379,357.177L177.452,357.177L177.452,359.058L174.379,359.058L174.379,362.132L172.498,362.132L172.498,359.058L169.425,359.058L169.425,357.177L172.498,357.177L172.498,354.104L174.379,354.104L174.379,357.177ZM156.397,359.976L167.452,359.976L167.452,361.994L154.516,361.994L154.516,341.994L156.397,341.994L156.397,359.976ZM157.42,356.987L162.235,349.971L167.05,352.965L173.45,347.006L174.301,347.563L167.373,354.14L162.411,351.409L158.272,357.545L157.42,356.987Z"/>
        </g>
    </g>
</svg>
