<?xml version="1.0" encoding="UTF-8" standalone="no"?>
<!DOCTYPE svg PUBLIC "-//W3C//DTD SVG 1.1//EN" "http://www.w3.org/Graphics/SVG/1.1/DTD/svg11.dtd">
<svg width="100%" height="100%" viewBox="0 0 16 21" version="1.1" xmlns="http://www.w3.org/2000/svg"
     xml:space="preserve"
     style="fill-rule:evenodd;clip-rule:evenodd;stroke-linejoin:round;stroke-miterlimit:2;">
    <g transform="matrix(1,0,0,1,-311.866,-315.17)">
        <path d="M327.563,334.283C327.563,334.288 327.563,334.293 327.563,334.298C327.563,334.865 327.103,335.326 326.535,335.326L312.894,335.326C312.33,335.326 311.871,334.87 311.867,334.307L311.866,334.307L311.866,315.17L327.563,315.17L327.563,334.283ZM325.592,330.197L323.709,330.197C323.288,330.197 322.946,330.539 322.946,330.96L322.946,332.487C322.946,332.908 323.288,333.25 323.709,333.25L325.592,333.25C326.013,333.25 326.355,332.908 326.355,332.487L326.355,330.96C326.355,330.539 326.013,330.197 325.592,330.197ZM320.677,330.197L313.849,330.197C313.427,330.197 313.085,330.539 313.085,330.96L313.085,332.487C313.085,332.908 313.427,333.25 313.849,333.25L320.677,333.25C321.098,333.25 321.44,332.908 321.44,332.487L321.44,330.96C321.44,330.539 321.098,330.197 320.677,330.197ZM315.732,325.93L313.849,325.93C313.427,325.93 313.085,326.272 313.085,326.694L313.085,328.221C313.085,328.642 313.427,328.984 313.849,328.984L315.732,328.984C316.153,328.984 316.495,328.642 316.495,328.221L316.495,326.694C316.495,326.272 316.153,325.93 315.732,325.93ZM320.662,325.93L318.779,325.93C318.357,325.93 318.015,326.272 318.015,326.694L318.015,328.221C318.015,328.642 318.358,328.984 318.779,328.984L320.662,328.984C321.083,328.984 321.425,328.642 321.425,328.221L321.425,326.694C321.425,326.272 321.083,325.93 320.662,325.93ZM325.592,325.93L323.709,325.93C323.288,325.93 322.946,326.272 322.946,326.694L322.946,328.221C322.946,328.642 323.288,328.984 323.709,328.984L325.592,328.984C326.013,328.984 326.355,328.642 326.355,328.221L326.355,326.694C326.355,326.272 326.013,325.93 325.592,325.93ZM315.732,321.664L313.849,321.664C313.427,321.664 313.085,322.006 313.085,322.428L313.085,323.954C313.085,324.376 313.427,324.718 313.849,324.718L315.732,324.718C316.153,324.718 316.495,324.376 316.495,323.954L316.495,322.428C316.495,322.006 316.153,321.664 315.732,321.664ZM320.662,321.664L318.779,321.664C318.357,321.664 318.015,322.006 318.015,322.428L318.015,323.954C318.015,324.376 318.358,324.718 318.779,324.718L320.662,324.718C321.083,324.718 321.425,324.376 321.425,323.954L321.425,322.428C321.425,322.006 321.083,321.664 320.662,321.664ZM325.592,321.664L323.709,321.664C323.288,321.664 322.946,322.006 322.946,322.428L322.946,323.954C322.946,324.376 323.288,324.718 323.709,324.718L325.592,324.718C326.013,324.718 326.355,324.376 326.355,323.954L326.355,322.428C326.355,322.006 326.013,321.664 325.592,321.664ZM325.339,316.45L314.109,316.45C313.554,316.45 313.104,316.9 313.104,317.455L313.104,318.894C313.104,319.449 313.554,319.899 314.109,319.899L325.339,319.899C325.894,319.899 326.345,319.449 326.345,318.894L326.345,317.455C326.345,316.9 325.894,316.45 325.339,316.45Z"/>
    </g>
</svg>
