<?xml version="1.0" encoding="UTF-8" standalone="no"?>
<!DOCTYPE svg PUBLIC "-//W3C//DTD SVG 1.1//EN" "http://www.w3.org/Graphics/SVG/1.1/DTD/svg11.dtd">
<svg width="100%" height="100%" viewBox="0 0 19 23" version="1.1" xmlns="http://www.w3.org/2000/svg"
     xml:space="preserve"
     style="fill-rule:evenodd;clip-rule:evenodd;stroke-linejoin:round;stroke-miterlimit:2;">
    <g transform="matrix(1,0,0,1,-312.051,-342.221)">
        <g transform="matrix(1,0,0,1,98.7771,-19.5988)">
            <path d="M229.271,378.859L232.265,378.859L232.265,380.831L229.271,380.831L229.271,383.826L227.298,383.826L227.298,380.831L224.303,380.831L224.303,378.859L227.298,378.859L227.298,375.864L229.271,375.864L229.271,378.859ZM223.226,380.874L213.274,380.874L213.274,361.82L228.246,361.849L228.246,374.826L226.221,374.826L226.221,377.82L223.226,377.82L223.226,380.874ZM220.316,362.877L214.297,362.877L214.297,371.861L217.267,369.864L220.316,371.861L220.316,362.877Z"/>
        </g>
    </g>
</svg>
