<?xml version="1.0" encoding="UTF-8" standalone="no"?>
<!DOCTYPE svg PUBLIC "-//W3C//DTD SVG 1.1//EN" "http://www.w3.org/Graphics/SVG/1.1/DTD/svg11.dtd">
<svg width="100%" height="100%" viewBox="0 0 21 22" version="1.1" xmlns="http://www.w3.org/2000/svg"
     xml:space="preserve"
     style="fill-rule:evenodd;clip-rule:evenodd;stroke-linejoin:round;stroke-miterlimit:2;">
    <g transform="matrix(1,0,0,1,-341.513,-341.596)">
        <g transform="matrix(1,0,0,1,87.1682,-40.8776)">
            <path d="M266.875,397.013C265.584,397.91 264.016,398.437 262.327,398.437C257.921,398.437 254.345,394.86 254.345,390.455C254.345,386.05 257.921,382.473 262.327,382.473C266.732,382.473 270.308,386.05 270.308,390.455C270.308,392.377 269.628,394.141 268.495,395.519L275.064,402.088L273.507,403.645L266.875,397.013ZM262.327,384.216C265.77,384.216 268.565,387.012 268.565,390.455C268.565,393.898 265.77,396.694 262.327,396.694C258.883,396.694 256.088,393.898 256.088,390.455C256.088,387.012 258.883,384.216 262.327,384.216Z"/>
        </g>
    </g>
</svg>
