<svg xmlns="http://www.w3.org/2000/svg" viewBox="0 0 688.1 355.57">
    <path d="M135.14 283.47v68.24c0 2.13-1.73 3.86-3.86 3.86s-3.86-1.73-3.86-3.86v-67.62c-1.99.1-3.99.15-6 .15v36.61c0 2.13-1.73 3.86-3.86 3.86s-3.86-1.73-3.86-3.86V284c-6.61-.42-13.26-1.35-19.93-2.9C30.23 266.32-9.92 204.05 2.13 140.53l27.54 6.4a169.69 169.69 0 0 0 7.63 19.89c-8.88 7.79-8.8 24.45.14 38.67-.01 0-.02.02-.03.03.08.11.16.21.25.32 0 0 0 .01.01.02 17.84 26.07 56.35 51.22 57.35 48.53-.15-1.06-36.98-27.5-51.67-53.91 1.16-1.1 2.31-2.19 3.47-3.28 15.59 24.04 50.49 48.39 51.52 45.81-.18-1.14-33.41-26.79-45.83-51.19 1.15-1.09 2.3-2.17 3.45-3.26 13.33 22.02 44.64 45.58 45.7 43.11-.2-1.26-29.84-26.1-40.05-48.46 1.15-1.09 2.3-2.18 3.45-3.26 11.09 20 38.81 42.77 39.9 40.39-.23-1.36-26.28-25.41-34.23-45.76h.01a.218.218 0 0 1-.05-.08c-.03-.06-.06-.13-.09-.18-.01 0-.02.01-.02.02-5.88-8.93-14.95-14.16-25.96-11.53a158.76 158.76 0 0 1-4.27-13.39l197.67 45.94c-13.42 48.64-55.05 82.58-102.89 88.11Zm74.44-238.16-2.48 9.53-19.45 74.82-3.04 11.69-.1.37-2.62 10.08c-4.56 1.74-8.96 2.87-13.24 3.51l-.32.04c-7.68 1.1-14.94.56-21.94-1.09l-.2-.04c-2.73-.65-5.43-1.46-8.09-2.42l-.21-.08c-6.63-2.41-13.06-5.68-19.42-9.32l-.27-.16c-.92-.53-1.85-1.06-2.77-1.61l-2.23-1.32c-16.35-9.82-32.49-21.22-50.69-25.94-6.22-1.61-12.65-2.34-19.07-1.97-1.02.06-4.21.32-7.69.78.39 10.98 1.95 21.98 4.7 32.82l-10.82-2.52a171.3 171.3 0 0 1-3.23-12.61c-1.57-7.25-2.67-14.6-3.31-21.99-.64-7.48-.8-15.01-.47-22.51.33-7.62 1.16-15.23 2.47-22.74 1.34-7.67 3.19-15.25 5.53-22.68a180.171 180.171 0 0 1 11.4-27.82c1.31-2.56 2.3-5.06 4.58-6.92C51.76 1 59.19.32 65.51.06c6.6-.27 13.39.35 19.82 1.75 10.95 2.38 20.18 7.58 29.73 13.07 4.03 2.32 7.99 4.76 11.94 7.2l1.65 1.02.24.15c1.33.83 2.66 1.65 4 2.48l1.27.78c1.01.62 2.03 1.25 3.05 1.86l.15.09c.48.29.95.58 1.43.86l.26.15.72.42.6.35c.52.31 1.04.61 1.57.92l.82.48c.53.3 1.05.62 1.57.92l.39.21c.33.19.68.37 1.01.55l.7.38 1.8.99.53.29c.47.25.92.52 1.39.76.52.27 1.05.53 1.58.79l.87.44c.2.1.41.21.61.31l.27.14c.17.08.34.17.51.25l.27.13c.29.14.58.26.86.4l.77.35c.3.14.6.28.9.41l.16.07 1.11.48.19.08.57.24.44.18c.11.05.22.09.33.14l1.93.78c.6.23 1.21.45 1.82.67l.21.08c.34.12.67.26 1.01.37l.5.17c.53.18 1.05.34 1.58.51l2.36.73c.49.14.97.26 1.46.4l3.73.91c.3.06.59.13.89.19l.19.04c.26.05.52.12.78.17l.66.11.71.12.36.06c.09.01.18.03.28.05l.64.1c.97.15 1.94.27 2.91.37l.69.07c.15.01.29.03.44.05l.19.02.54.06.56.03c2.29.16 4.59.21 6.9.12h.29c2-.1 4.01-.31 6.02-.61l1.32-.19c1.07-.18 2.15-.41 3.22-.65l.43-.09.65-.15.17-.05c.39-.1.78-.22 1.17-.32l.48-.13.71-.19c.18-.05.36-.09.54-.15l.22-.07.19-.05.07-.02c1.32-.41 2.65-.87 3.97-1.38l-.3 1.17-.48 1.86m-63.36 89.29c.24-.31.44-.63.59-.98.58-1.31.62-2.83.17-3.98-.1-.27-.23-.52-.39-.74-.61-.91-1.23-1.82-1.84-2.73-.07-.1-.14-.2-.2-.3-.03-.04-.05-.08-.08-.11l-1.8-2.67-.42-.63c-.05-.07-.1-.15-.15-.22-.01-.02-.03-.04-.04-.06l-.32-.47c-.03-.05-.06-.1-.1-.14s-.04-.07-.07-.1c-.06-.09-.12-.18-.18-.26l-.38-.56c-.06-.08-.11-.17-.17-.25l-.55-.82c-.1-.15-.21-.3-.31-.46-.28-.42-.57-.84-.85-1.26-.05-.07-.1-.14-.14-.21-.29-.43-.58-.86-.86-1.28-.04-.06-.08-.11-.11-.17-.22-.32-.43-.64-.65-.96 0-.01-.01-.02-.02-.03l-.43-.64c-.23-.34-.46-.69-.69-1.03-.55-.81-1.09-1.63-1.64-2.44-.11-.16-.22-.33-.33-.49-.59-.88-1.18-1.76-1.78-2.64l-.18-.27c-1.58-2.35-3.16-4.69-4.74-7.04-.04-.06-.08-.11-.12-.17-.16-.24-.32-.48-.49-.72-.03-.05-.07-.1-.1-.15-.59-.88-1.18-1.75-1.77-2.63-.02-.04-.05-.07-.07-.11l-2.1-3.12c0-.01-.02-.03-.03-.04l-.25-.37c-.05-.08-.11-.16-.16-.24l-1.11-1.65c-.01-.02-.03-.04-.04-.06-.19-.29-.39-.57-.58-.86-.12-.17-.23-.34-.35-.52-.93-1.39-1.87-2.77-2.8-4.16-.03-.05-.06-.09-.09-.14l-2.42-3.59c-.28-.42-.56-.83-.84-1.25.22-.01.47-.04.74-.08h.05c.48-.07 1.05-.18 1.73-.34.36-.09.75-.19 1.18-.31 3.63-1.02 7.72-2.44 11.84-3.96.17-.06.34-.12.51-.19 7.68-2.85 15.39-6.05 20.33-7.84 3.13-1.2 5.72-2.4 7.91-3.58 0 0 .01 0 .02-.01.33-.18.68-.36 1-.54.19-.11.35-.21.53-.32.09-.05.18-.11.27-.16 1.5-.89 2.77-1.77 3.84-2.62.38-.3.73-.6 1.06-.89.13-.12.25-.23.37-.35l.05-.05c.53-.49 1.01-.98 1.42-1.45.65-.74 1.17-1.45 1.61-2.14.6-.95 1.04-1.83 1.38-2.65.34-.8.39-1.41.17-1.84-.08-.17-.22-.3-.39-.41-.15-.11-.36-.19-.58-.26-.14-.04-.24-.1-.4-.12-.1-.02-.25 0-.36-.02-.22-.02-.44-.04-.7-.03-.11 0-.21 0-.32.01-.17.01-.37.04-.56.06-.5.05-1.06.14-1.67.25s-.07.01-.11.02c-.14.03-.28.05-.42.08-.31.07-.62.13-.96.21h-.02c-.9.22-1.9.49-2.97.81-.38.11-.75.22-1.15.35a8.2 8.2 0 0 1-.53.16c-.08.03-.17.06-.26.09-.13.04-.28.09-.41.14-.29.09-.59.2-.89.3-.4.14-.78.25-1.2.4-.21.07-.43.15-.65.23-.53.19-1.08.38-1.64.58-.8.29-1.64.59-2.49.91l-.42.15c-1.31.49-2.68 1.01-4.1 1.56-.06.03-.12.09-.19.07-.07.03-.14.05-.21.08-.66.26-1.33.52-2.01.79-.07.03-.14.05-.2.08-.83.33-1.64.65-2.5.99l-1.14.46c-.02 0-.04.02-.06.02-.58.23-1.17.47-1.77.71-.08.03-.15.06-.23.09-.29.12-.58.23-.87.35-.07.03-.14.06-.22.09l-.68.28c-.01 0-.02 0-.03.01-.23.09-.48.2-.72.29l-.15.06c-1.02.42-2.03.83-3.09 1.26-.2.08-.38.17-.57.25-.1.04-.2.09-.3.13-.69.3-1.37.6-2.04.9-.07.03-.15.06-.22.1-.34.15-.66.3-1 .45-.15.07-.3.14-.46.21-.2.09-.39.18-.59.27-.06.03-.12.05-.17.08-.49.23-.99.45-1.47.68-.02 0-.03.02-.05.02-1.68.8-3.28 1.6-4.83 2.39-.03.01-.06.03-.09.04-.87.44-1.72.88-2.55 1.32-.14.07-.27.14-.41.21-2 1.06-3.87 2.08-5.59 3.06-.01 0-.02.01-.03.02-.21.12-.42.23-.62.35 0 0-.02 0-.03.01-.18.1-.35.2-.53.3s-.03.02-.05.03c-.27.15-.53.3-.79.45-.04.02-.08.04-.11.06-.2.12-.42.24-.62.36-.07-.1-.14-.2-.21-.31-.08-.13-.17-.25-.25-.38l-.13-.19-.37-.55c-.54-.81-1.09-1.62-1.63-2.43-.18-.26-.36-.53-.54-.8a6.1 6.1 0 0 0-.22-.32c-.12-.18-.24-.36-.36-.53-.16-.24-.32-.47-.48-.71l-.25-.37c-.14-.21-.28-.41-.42-.62-.07-.11-.15-.22-.22-.33-.36-.54-.73-1.08-1.09-1.62-.12-.18-.24-.35-.36-.53-.41-.61-.82-1.21-1.23-1.82-.07-.11-.14-.21-.21-.32l.02-.02c.25-.22.43-.49.66-.72.9-.91 1.66-1.91 2.29-2.98.24-.4.51-.79.71-1.21.25-.53.42-1.09.62-1.65.04-.1.07-.21.1-.31.04-.11.07-.21.11-.32.18-.59.34-1.19.45-1.81.09-.53.17-1.06.21-1.6.05-.53.08-1.06.08-1.6 0-.14-.02-.28-.02-.42 0-.33-.03-.66-.05-.99 0-.11 0-.22-.02-.33 0-.09 0-.18-.01-.28-.06-.56-.16-1.11-.27-1.67-.1-.49-.22-.99-.34-1.48-.08-.3-.12-.61-.22-.91-.28-.84-.65-1.66-1.06-2.48-.65-1.34-1.39-2.66-2.36-3.9-1.33-1.73-2.93-3.49-4.69-5.15-.67-.63-1.36-1.24-2.07-1.84-.1-.08-.19-.16-.29-.25-.72-.6-1.46-1.18-2.21-1.73s0 0-.01-.01a43.61 43.61 0 0 0-2.33-1.59c-.02-.01-.05-.03-.07-.04-.7-.44-1.41-.85-2.11-1.23-.17-.09-.33-.17-.5-.26a28.1 28.1 0 0 0-1.76-.84c-.18-.08-.35-.16-.53-.23-.68-.28-1.36-.53-2.03-.73-.05-.01-.1-.04-.15-.05-.72-.21-1.42-.36-2.11-.47-.17-.03-.33-.03-.5-.05-.5-.06-1-.09-1.48-.09-.21 0-.42.01-.63.03-.45.03-.88.1-1.31.19-.19.04-.37.07-.55.12-.58.17-1.15.39-1.67.69-6.99 4.64-4.57 20.53.24 30.22.41.85.88 1.64 1.38 2.4.09.13.17.27.26.4.51.75 1.07 1.45 1.66 2.11.04.04.08.09.12.13 1.98 2.17 4.34 3.83 6.87 4.87.04.02.08.03.13.05.98.4 1.98.7 2.99.92l.31.06c.39.07.77.14 1.16.18.13.02.27.02.4.03.82.07 1.64.1 2.46.05.85-.06 1.68-.2 2.52-.4.38-.09.76-.19 1.14-.31.01 0 .02 0 .04-.01.37-.12.75-.24 1.11-.39l.2.35c.12.21.25.43.37.64.35.6.69 1.21 1.04 1.81.07.13.15.26.22.38l.33.57c.03.05.06.11.09.16.79 1.37 1.58 2.75 2.37 4.12.08.13.15.27.23.4.33.57.66 1.15.99 1.72.34.6.69 1.2 1.03 1.8-1.12.4-2.24.81-3.36 1.21-.09.03-.18.06-.27.1-.45.16-.9.33-1.35.49-.47.17-.94.34-1.42.51-.04.02-.07.03-.11.04-.16.06-.33.12-.49.18-.23.08-.46.17-.69.25-.87.32-1.75.63-2.62.95-.22.08-.45.16-.67.24l-.12.04c-.7.25-1.4.51-2.1.76l-.09.03c-.21.07-.41.15-.62.22-.25.09-.49.18-.74.27-.02 0-.05.02-.07.03-.81.29-1.63.59-2.44.88-.44.16-.87.31-1.31.47-.26.09-.53.19-.79.28-.08.03-.17.06-.25.09-6.95 2.51-13.9 5.01-20.85 7.52-1.71.59-3.3 3.15-2.38 5.42.11.28.26.54.43.78 1 1.4 2.88 1.96 4.31 1.7.26-.05.51-.12.73-.22 3.77-1.67 7.53-3.35 11.3-5.02.08-.03.15-.07.23-.1.73-.32 1.46-.65 2.19-.97.19-.08.38-.17.57-.25 1.63-.72 3.26-1.45 4.89-2.17.07-.03.15-.07.22-.1 1.67-.74 3.34-1.48 5.01-2.23.07-.03.14-.06.2-.09.11-.05.21-.1.32-.14.04-.02.08-.04.12-.05.5-.22 1-.44 1.5-.67.06-.03.13-.06.19-.08.9-.4 1.81-.8 2.71-1.2.17-.07.33-.15.5-.22.31-.14.62-.28.94-.42.35-.16.7-.31 1.06-.47.17-.08.34-.15.51-.23.95-.42 1.9-.84 2.85-1.27.09-.04.17-.08.26-.11.18-.08.35-.16.53-.23l1.29-.57c.05-.02.11-.05.16-.07.21-.09.42-.19.63-.28.23-.1.46-.2.69-.31.04-.02.07-.03.11-.05.3-.13.61-.27.91-.4 10.12 17.63 20.24 35.27 30.37 52.9a3.02 3.02 0 0 0 .47.64c.09.1.21.19.32.29.1.09.19.19.31.27.18.14.38.25.59.37.05.03.1.07.16.09 1.43.74 3.32.93 4.85-.03.43-.26.76-.6 1.06-.97.02-.02.03-.04.05-.06Zm173.15-59.66h45.07v17.71h-45.07v40.75h-19.01V33.47h71.42v17.71h-52.42v23.76ZM477.36 83c0 29.09-20.59 52.13-48.81 52.13S379.59 112.09 379.59 83s20.59-51.98 48.96-51.98S477.36 54.06 477.36 83Zm-19.15 0c0-18.58-13.25-33.98-29.66-33.98S398.74 64.43 398.74 83s13.25 34.13 29.81 34.13 29.66-15.41 29.66-34.13Zm126.43 0c0 29.09-20.59 52.13-48.81 52.13S486.87 112.09 486.87 83s20.59-51.98 48.96-51.98S584.64 54.06 584.64 83Zm-19.15 0c0-18.58-13.25-33.98-29.66-33.98S506.02 64.43 506.02 83s13.25 34.13 29.81 34.13 29.66-15.41 29.66-34.13Zm70.12 50.4H598.6V33.47h37.01c27.79 0 45.07 19.15 45.07 49.97s-17.71 49.97-45.07 49.97Zm0-82.22h-18v64.51h18c22.61 0 26.06-20.3 26.06-32.4 0-14.69-4.61-32.11-26.06-32.11Zm-292.52 193.4h-24.94v37.94h-20.2V176.34h44.68c22.18 0 35.04 13.46 35.04 34.27 0 19.74-13.62 33.97-34.58 33.97Zm-24.94-49.42v30.91h24.33c9.33 0 14.99-4.74 14.99-15.45s-5.66-15.45-14.99-15.45h-24.33Zm154.07 45.29c0 27.08-14.23 43.91-41 43.91s-40.85-16.83-40.85-43.91v-64.11h20.2v64.72c0 15.76 6.88 23.71 20.66 23.71s20.65-7.96 20.65-23.71v-64.72h20.35v64.11Zm106.34 42.08h-24.33l-43.3-75.58v75.58h-20.2V176.35h24.33l43.15 75.58v-75.58h20.35v106.18Zm39.93-36.26v36.26h-20.35V176.35h20.35v42.84l39.93-42.84h27.85l-43.15 44.37 44.98 61.81h-26.32l-32.9-47.12-10.4 10.86Z"
          style="fill:#1d1d1b"/>
</svg>