<svg xmlns="http://www.w3.org/2000/svg" width="340.16" height="170.08" data-name="Foodpunk Logo">
    <path fill="#fff" d="M156.22 65.89h10.38v4.08h-10.38v9.39h-4.38V56.33h16.45v4.08h-12.07z" data-name="Path 506"/>
    <path fill="#fff"
          d="M181.38 55.76c-6.54 0-11.28 5.31-11.28 12s4.74 12 11.28 12 11.25-5.31 11.25-12-4.75-12-11.25-12zm0 19.85c-3.82 0-6.87-3.55-6.87-7.87s3.05-7.83 6.87-7.83 6.84 3.55 6.84 7.83-3.06 7.87-6.84 7.87z"
          data-name="Path 507"/>
    <path fill="#fff"
          d="M206.11 55.76c-6.54 0-11.28 5.31-11.28 12s4.74 12 11.28 12 11.25-5.31 11.25-12-4.74-12-11.25-12zm0 19.85c-3.81 0-6.87-3.55-6.87-7.87s3.06-7.83 6.87-7.83 6.89 3.55 6.89 7.83-3.1 7.87-6.89 7.87z"
          data-name="Path 508"/>
    <path fill="#fff"
          d="M229.12 56.33h-8.53v23h8.53c6.31 0 10.39-4.48 10.39-11.52s-3.98-11.48-10.39-11.48zm0 19H225V60.41h4.15c4.94 0 6 4 6 7.4-.02 2.79-.82 7.47-6.03 7.47z"
          data-name="Path 509"/>
    <path fill="#fff"
          d="M161.63 89.19h-9.8v24.54h1.31v-10.92h8.59c4.25 0 7.18-2.8 7.18-6.83s-2.79-6.79-7.28-6.79zm.1 12.31h-8.59v-11h8.49c3.78 0 6 2 6 5.48-.03 3.79-2.96 5.52-5.9 5.52z"
          data-name="Path 510"/>
    <path fill="#fff"
          d="M191 105c0 5.41-3.85 9.23-9.4 9.23s-9.41-3.82-9.41-9.23V89.19h1.31V105c0 4.71 3.29 7.89 8.1 7.89s8.09-3.18 8.09-7.89V89.19H191z"
          data-name="Path 511"/>
    <path fill="#fff" d="M215.67 113.73h-1.49l-16.4-22.56v22.56h-1.31V89.19h1.49l16.4 22.56V89.19h1.31z"
          data-name="Path 512"/>
    <path fill="#fff"
          d="M222.71 104.64v9.09h-1.3V89.19h1.3v13.65l13.44-13.65h1.84l-9.34 9.45 10.86 15.09h-1.63l-10.15-14.14z"
          data-name="Path 513"/>
    <path fill="#fff"
          d="M113.5 113.81v15.58a.88.88 0 1 1-1.76 0V114h-1.37v8.36a.88.88 0 1 1-1.76 0v-8.42a27.64 27.64 0 0 1-25.47-32.76l6.28 1.46a37.83 37.83 0 0 0 1.75 4.55c-2 1.78-2 5.58 0 8.82l.06.07c4.07 6 12.86 11.69 13.09 11.08 0-.24-8.44-6.28-11.79-12.31l.79-.75c3.56 5.49 11.53 11 11.76 10.46 0-.26-7.63-6.12-10.46-11.69l.79-.74c3 5 10.19 10.4 10.43 9.84 0-.29-6.81-6-9.14-11.06l.78-.75c2.54 4.57 8.86 9.77 9.11 9.22 0-.31-6-5.8-7.81-10.44a5.39 5.39 0 0 0-5.92-2.63c-.37-1-.7-2-1-3.06L137 93.7a27.69 27.69 0 0 1-23.5 20.11z"
          data-name="Path 514"/>
    <path fill="#fff"
          d="M93.37 50s-9.25 12.44-3.87 31.36l2.47.57a42.871 42.871 0 0 1-1.07-7.49c12.74-2.12 20.37 14 33.36 9l6.5-25c-15 5.47-23.45-15.11-37.39-8.44zm28.19 11a5.808 5.808 0 0 1-.31.6 3.71 3.71 0 0 1-.37.49c-.1.11-.2.22-.32.33l-.08.08-.24.2a7.451 7.451 0 0 1-.88.6h-.06l-.12.07-.23.12a16.777 16.777 0 0 1-1.8.81c-1.13.41-2.89 1.14-4.64 1.79h-.12c-.94.34-1.88.67-2.7.9l-.27.07-.4.08h-.17c.07.09.13.19.19.28l.56.82.64.95.08.11.13.2.25.38a.409.409 0 0 1 0 .09l.48.71c.13.21.27.41.4.61l.11.16 1.08 1.61v.06l.4.6.08.12.37.55.38.61.1.14.15.22c.06.1.13.19.2.29l.19.29a.61.61 0 0 1 .07.1l.13.19v.06l.08.13a.21.21 0 0 1 0 .06l.07.11.09.15.42.61v.07l.42.63.09.16a1.25 1.25 0 0 1 0 .91 1.09 1.09 0 0 1-.14.23 1 1 0 0 1-.24.22 1.13 1.13 0 0 1-1.11 0l-.14-.09-.07-.06-.07-.06a.65.65 0 0 1-.1-.15l-6.74-11.87-.21.1-.16.07-.14.06-.3.13h-.12l-.66.29-.11.05-.24.1-.22.1-.11.05-.62.27-.35.16h-.08l-1.15.51-1.11.5-.13.06-.5.22h-.06l-2.58 1.15h-.16a1.06 1.06 0 0 1-1-.39 1.62 1.62 0 0 1-.1-.18 1 1 0 0 1 .55-1.24l4.76-1.71h.06l.18-.07.3-.11.55-.2.17-.07h.14l.48-.18h.15l.6-.22h.27l.32-.12.31-.11h.06l.77-.28-.24-.41-.23-.39v-.1l-.54-.94a.16.16 0 0 0-.07-.13.41.41 0 0 1 0-.09l-.24-.42-.09-.14v-.08l-.26.09-.26.07a2.91 2.91 0 0 1-.58.09h-.99a4.11 4.11 0 0 1-.68-.21 4.47 4.47 0 0 1-1.57-1.11c-.13-.15-.26-.31-.38-.48l-.06-.1a4.741 4.741 0 0 1-.31-.54c-1.1-2.21-1.65-5.84-.06-6.9a1.8 1.8 0 0 1 .38-.16h.68a3.171 3.171 0 0 1 .48.1l.47.17h.12l.4.19.11.06c.16.09.32.18.48.29a6.181 6.181 0 0 1 .53.36c.18.13.34.26.51.4a.18.18 0 0 0 .07 0l.47.42a10.409 10.409 0 0 1 1.07 1.17 5.159 5.159 0 0 1 .54.89 4.62 4.62 0 0 1 .24.57v.21a.567.567 0 0 0 .08.33c.08.11 0 .26.06.39v.38a2.231 2.231 0 0 1 0 .37 2.462 2.462 0 0 1 0 .37 1.561 1.561 0 0 1-.11.41.19.19 0 0 1 0 .07.19.19 0 0 0 0 .07.946.946 0 0 1-.15.38 2 2 0 0 1-.16.28 3.72 3.72 0 0 1-.52.68l-.15.16.05.07.28.41.08.13c.09.12.17.24.25.37v.07l.1.14.06.09.11.16a.83.83 0 0 0 .08.12.18.18 0 0 0 0 .07l.12.19.37.55.09.13.05.09a.18.18 0 0 1 0 .07l.14-.09.18-.1.12-.07.14-.08 1.27-.69h.09l.59-.3c.35-.18.71-.37 1.1-.55l.34-.16.14-.06.1-.05.23-.1.47-.21h.06l.13-.06.71-.28.16-.06.15-.06.2-.08.41-.16.26-.1.57-.23.46-.18h.05l.94-.36h.09l.57-.21.38-.13.14-.06.28-.09.2-.07h.22l.27-.08c.24-.08.47-.14.67-.19h.32l.38-.06h.54l.13.06a.28.28 0 0 1 .09.1.5.5 0 0 1 .63.05z"
          data-name="Path 515"/>
    <path fill="none" d="M0 0h340.16v170.08H0z" data-name="Rectangle 179"/>
</svg>