<?xml version="1.0" encoding="utf-8"?>
<svg xmlns:xlink="http://www.w3.org/1999/xlink" version="1.1" xmlns="http://www.w3.org/2000/svg" height="24" width="24">
    <defs>
        <path id="path-0" opacity="1"
              d="M12,2 L12,5 L9,5 L9,7 L12,7 L12,10 L14,10 L14,7 L17,7 L17,5 L14,5 L14,2 L12,2ZM0,3 L0,5 L2.3809523809523814,5 L6.666666666666667,12.59 L5.05952380952381,15.04 C4.8690476190476195,15.319999999999999 4.761904761904763,15.649999999999999 4.761904761904763,16 C4.761904761904763,17.1 5.833333333333335,18 7.142857142857144,18 L21.428571428571434,18 L21.428571428571434,16 L7.642857142857143,16 C7.488095238095239,16 7.345238095238096,15.89 7.345238095238096,15.75 L7.380952380952382,15.63 L8.452380952380953,14 L17.321428571428573,14 C18.21428571428572,14 19.000000000000004,13.59 19.40476190476191,12.97 L24.000000000000004,5.960000000000001 L21.916666666666668,5 L20.607142857142858,7 L17.321428571428573,12 L8.964285714285714,12 L8.809523809523808,11.73 L6.142857142857143,7 L5.011904761904763,5 L3.892857142857143,3 L0,3ZM5.999999999999991,19 C4.8999999999999915,19 4.009999999999991,19.9 4.009999999999991,21 C4.009999999999991,22.1 4.8999999999999915,23 5.999999999999991,23 C7.099999999999991,23 7.999999999999991,22.1 7.999999999999991,21 C7.999999999999991,19.9 7.099999999999991,19 5.999999999999991,19 L5.999999999999991,19ZM15.999999999999991,19 C14.899999999999991,19 14.009999999999991,19.9 14.009999999999991,21 C14.009999999999991,22.1 14.899999999999991,23 15.999999999999991,23 C17.09999999999999,23 17.999999999999993,22.1 17.999999999999993,21 C17.999999999999993,19.9 17.099999999999994,19 15.999999999999991,19 L15.999999999999991,19Z"/>
    </defs>
    <g opacity="1">
        <g>
            <use xlink:href="#path-0" fill="rgb(0,0,0)" fill-opacity="1"/>
        </g>
    </g>
</svg>