<svg xmlns:xlink="http://www.w3.org/1999/xlink" xmlns="http://www.w3.org/2000/svg" height="24" width="24">
    <defs>
        <path id="a" opacity="1"
              d="m6.54 4 9.01 9c.75 0 1.41-.41 1.75-1.03l3.58-6.49A1.003 1.003 0 0 0 20 4H6.54Zm3.92 9 2 2H7.42c-.14 0-.25-.11-.25-.25l.03-.12.9-1.63h2.36ZM7 18c-1.1 0-1.99.9-1.99 2S5.9 22 7 22s2-.9 2-2-.9-2-2-2ZM1.27 1.27 0 2.54l4.39 4.39 2.21 4.66-1.35 2.45c-.16.28-.25.61-.25.96 0 1.1.9 2 2 2h7.46l1.38 1.38A1.997 1.997 0 0 0 17 22c.67 0 1.26-.33 1.62-.84L21.46 24l1.27-1.27L2.77 2.77 2 2l-.73-.73Z"/>
    </defs>
    <use xlink:href="#a"/>
</svg>