<svg xmlns="http://www.w3.org/2000/svg" viewBox="0 0 24 24">
    <defs>
        <style>
            .cls-1,.cls-2{fill:none}.cls-3,.cls-5{fill:#fff}.cls-4,.cls-5{stroke:none}
        </style>
    </defs>
    <g id="ic_wht_Chef_Hat_0" data-name="ic / wht / Chef Hat 0" transform="translate(-1625 -428)">
        <path id="Rectangle_81" d="M0 0h24v24H0z" class="cls-1" data-name="Rectangle 81"
              transform="translate(1625 428)"/>
        <g id="Union_1" class="cls-2" data-name="Union 1">
            <path d="M2937-897v-9.126a4 4 0 0 1-3-3.874 4 4 0 0 1 4-4 4.029 4.029 0 0 1 .579.042A5.5 5.5 0 0 1 2943.5-917a5.5 5.5 0 0 1 4.912 3.021A4 4 0 0 1 2952-910a4 4 0 0 1-3 3.873V-897z"
                  class="cls-4" transform="translate(-1306 1347)"/>
            <path d="M2947-899v-8.676l1.502-.387A1.998 1.998 0 0 0 2950-910c0-1.03-.77-1.885-1.792-1.99l-1.088-.111-.494-.976A3.488 3.488 0 0 0 2943.5-915a3.486 3.486 0 0 0-3.133 1.937l-.647 1.29-1.429-.206A2.002 2.002 0 0 0 2936-910c0 .912.616 1.709 1.498 1.936l1.502.386V-899h8m2 2h-12v-9.126a4.001 4.001 0 0 1 1.578-7.833 5.5 5.5 0 0 1 9.833-.02 4 4 0 0 1 .59 7.853V-897z"
                  class="cls-5" transform="translate(-1306 1347)"/>
        </g>
        <path id="Rectangle_82" d="M0 0h8v2H0z" class="cls-3" data-name="Rectangle 82" transform="translate(1633 444)"/>
    </g>
</svg>
