<?xml version="1.0" encoding="utf-8"?>
<svg xmlns:xlink="http://www.w3.org/1999/xlink" version="1.1" xmlns="http://www.w3.org/2000/svg" height="24" width="24">
    <defs>
        <path id="path-0" opacity="1"
              d="M12.499511719999646,3.9999999999997726 C13.828124999999545,3.9999999999997726 15.026367189999746,4.736999509999805 15.626464839999699,5.923400879999804 L16.120117189999746,6.899169919999849 L17.2080078099998,7.010253909999847 C18.2294921900002,7.1146240199998365 19,7.970092769999837 19,9.000183109999853 C19,9.913330079999923 18.3837890599998,10.70971679999991 17.501708979999876,10.936828609999907 L16.0004882799999,11.323425289999932 L16.0004882799999,16 L7.999755860000278,16 L7.999755860000278,11.323303219999843 L6.498291020000124,10.936889649999898 C5.615966800000024,10.709899909999876 5,9.913513179999882 5,9.000183109999853 C5,7.897094719999814 5.896972659999847,6.9996948199998315 6.999755859999823,6.9996948199998315 C7.097412109999823,6.9996948199998315 7.195556639999722,7.006713869999885 7.2912597699996695,7.020629879999888 L8.720214839999699,7.227783199999862 L9.366699219999646,5.93676757999981 C9.964843749999545,4.742126459999781 11.165283199999521,3.9999999999997726 12.499511719999646,3.9999999999997726 L12.499511719999646,3.9999999999997726ZM12.499511719999646,2 C10.34594726999967,2 8.481201169999622,3.238159180000025 7.578369139999722,5.041320799999994 C7.389404300000024,5.013916019999897 7.196289059999799,4.999694819999945 6.999755859999823,4.999694819999945 C4.791015629999947,4.999694819999945 3,6.790710450000006 3,9.000183099999958 C3,10.864318850000018 4.274902340000153,12.42993163999995 5.999755860000278,12.873779299999796 L5.999755860000278,21.999816899999814 L18.000488280000354,21.999816899999814 L16.000488280000354,19.999816899999814 L7.999755860000278,19.999816899999814 L7.999755860000278,18 L16.0004882799999,18 L16.0004882799999,19.99981688999992 L18.0004882799999,21.99981688999992 L18.0004882799999,12.873657229999935 C19.725341800000024,12.42950438999992 21,10.864074709999954 21,9.000183109999966 C21,6.9296264700000165 19.427246079999804,5.2265625 17.411132819999693,5.020629880000001 C16.504638669999622,3.2285766600000443 14.645751949999521,2 12.499511719999646,2 L12.499511719999646,2Z"/>
    </defs>
    <g opacity="1">
        <g>
            <use xlink:href="#path-0" fill="rgb(0,0,0)" fill-opacity="1"/>
        </g>
    </g>
</svg>