<?xml version="1.0" encoding="utf-8"?>
<svg xmlns:xlink="http://www.w3.org/1999/xlink" version="1.1" xmlns="http://www.w3.org/2000/svg" height="24" width="24">
    <defs>
        <path id="path-0" opacity="1" d="M0,0 L24,0 L24,24 L0,24 L0,0Z"/>
        <path id="path-1" opacity="1"
              d="M16.5,5 C18.5,5 20,6.5 20,8.5 C20,11.39 16.86,14.24 12.1,18.55 L12,18.650000000000002 L11.9,18.55 C7.14,14.24 4,11.39 4,8.5 C4,6.5 5.5,5 7.5,5 C9.04,5 10.54,5.99 11.07,7.359999999999999 L12.940000000000001,7.359999999999999 C13.46,5.99 14.96,5 16.5,5 L16.5,5ZM7.5,3 C4.42,3 2,5.42 2,8.5 C2,12.28 5.4,15.36 10.55,20.04 L12,21.35 L13.45,20.03 C18.6,15.36 22,12.28 22,8.5 C22,5.42 19.58,3 16.5,3 C14.76,3 13.09,3.81 12,5.09 C10.91,3.81 9.24,3 7.5,3 L7.5,3Z"/>
    </defs>
    <g opacity="1">
        <g opacity="1">
            <g/>
            <g>
                <use xlink:href="#path-1" fill="rgb(0,0,0)" fill-opacity="1"/>
            </g>
        </g>
    </g>
</svg>