<svg xmlns="http://www.w3.org/2000/svg" viewBox="0 0 24 24">
    <defs>
        <style>
            .cls-1{fill:none}.cls-2,.cls-4{fill:#fff}.cls-3,.cls-4{stroke:none}
        </style>
    </defs>
    <g id="ic_wht_Chef_Hat_1" data-name="ic / wht / Chef Hat 1" transform="translate(-1601 -428)">
        <path id="Rectangle_81" d="M0 0h24v24H0z" class="cls-1" data-name="Rectangle 81"
              transform="translate(1601 428)"/>
        <g id="Union_1" class="cls-2" data-name="Union 1">
            <path d="M2948-898h-10v-8.902l-.751-.193A2.997 2.997 0 0 1 2935-910a3.004 3.004 0 0 1 3.435-2.97l.714.104.324-.645a4.48 4.48 0 0 1 4.027-2.49c1.708 0 3.248.948 4.019 2.473l.247.488.544.055A2.99 2.99 0 0 1 2951-910c0 1.37-.925 2.564-2.249 2.905l-.75.193V-898z"
                  class="cls-3" transform="translate(-1330 1347)"/>
            <path d="M2947-899v-8.676l1.502-.387A1.998 1.998 0 0 0 2950-910c0-1.03-.77-1.885-1.792-1.99l-1.088-.111-.494-.976A3.488 3.488 0 0 0 2943.5-915a3.486 3.486 0 0 0-3.133 1.937l-.647 1.29-1.429-.206A2.002 2.002 0 0 0 2936-910c0 .912.616 1.709 1.498 1.936l1.502.386V-899h8m2 2h-12v-9.126a4.001 4.001 0 0 1 1.578-7.833 5.5 5.5 0 0 1 9.833-.02 4 4 0 0 1 .59 7.853V-897z"
                  class="cls-4" transform="translate(-1330 1347)"/>
        </g>
    </g>
</svg>
