<svg xmlns="http://www.w3.org/2000/svg" viewBox="0 0 24 24">
    <defs>
        <style>
            .cls-1{fill:none}.cls-2{fill:#fff}
        </style>
    </defs>
    <g id="ic_wht_Heart" data-name="ic / wht / Heart" transform="translate(-320 -165)">
        <path id="Bounds" d="M0 0h24v24H0z" class="cls-1" transform="translate(320 165)"/>
        <path id="Shape"
              d="M16.5 5A3.418 3.418 0 0 1 20 8.5c0 2.89-3.14 5.74-7.9 10.05l-.1.1-.1-.1C7.14 14.24 4 11.39 4 8.5A3.418 3.418 0 0 1 7.5 5a3.909 3.909 0 0 1 3.57 2.36h1.87A3.885 3.885 0 0 1 16.5 5zm-9-2A5.447 5.447 0 0 0 2 8.5c0 3.78 3.4 6.86 8.55 11.54L12 21.35l1.45-1.32C18.6 15.36 22 12.28 22 8.5A5.447 5.447 0 0 0 16.5 3 5.988 5.988 0 0 0 12 5.09 5.988 5.988 0 0 0 7.5 3z"
              class="cls-2" transform="translate(320 165)"/>
    </g>
</svg>
