<?xml version="1.0" encoding="utf-8"?>
<svg xmlns:xlink="http://www.w3.org/1999/xlink" version="1.1" xmlns="http://www.w3.org/2000/svg" height="24" width="24">
    <defs>
        <path id="path-0" opacity="1" d="M0,0 L24,0 L24,24 L0,24 L0,0Z"/>
        <path id="path-1" opacity="1"
              d="M8.5,8 C7.67,8 7,8.67 7,9.5 C7,10.33 7.67,11 8.5,11 C9.33,11 10,10.33 10,9.5 C10,8.67 9.33,8 8.5,8 L8.5,8ZM15.5,8 C14.670000000000002,8 14,8.67 14,9.5 C14,10.33 14.67,11 15.5,11 C16.33,11 17,10.33 17,9.5 C17,8.67 16.33,8 15.5,8 L15.5,8ZM6.889999999999418,14 C7.689999999999418,16.04 9.669999999999419,17.5 11.999999999999417,17.5 C14.329999999999417,17.5 16.309999999999416,16.04 17.109999999999417,14 L6.889999999999418,14ZM12,4 C16.42,4 20,7.58 20,12 C20,16.42 16.42,20 12,20 C7.58,20 4,16.42 4,12 C4,7.579999999999998 7.58,4 12,4 L12,4ZM11.99,2 C6.47,2 2,6.48 2,12 C2,17.52 6.47,22 11.99,22 C17.52,22 22,17.52 22,12 C22,6.4799999999999995 17.52,2 11.99,2 L11.99,2Z"/>
    </defs>
    <g opacity="1">
        <g opacity="1">
            <g/>
            <g>
                <use xlink:href="#path-1" fill="rgb(0,0,0)" fill-opacity="1"/>
            </g>
        </g>
    </g>
</svg>