<?xml version="1.0" encoding="utf-8"?>
<svg xmlns:xlink="http://www.w3.org/1999/xlink" version="1.1" xmlns="http://www.w3.org/2000/svg" height="24" width="24">
    <defs>
        <path id="path-0" opacity="1"
              d="M11.799999999999857,10.9 C9.529999999999855,10.31 8.799999999999855,9.700000000000001 8.799999999999855,8.75 C8.799999999999855,7.66 9.809999999999857,6.9 11.499999999999854,6.9 C13.279999999999855,6.9 13.939999999999856,7.75 13.999999999999854,9 L16.209999999999855,9 C16.139999999999855,7.28 15.089999999999854,5.7 12.999999999999854,5.1899999999999995 L12.999999999999854,3 L9.999999999999854,3 L9.999999999999854,5.16 C8.059999999999857,5.58 6.499999999999855,6.84 6.499999999999855,8.77 C6.499999999999855,11.08 8.409999999999854,12.23 11.199999999999854,12.899999999999999 C13.699999999999854,13.499999999999998 14.199999999999854,14.379999999999999 14.199999999999854,15.309999999999999 C14.199999999999854,15.999999999999998 13.709999999999855,17.099999999999998 11.499999999999854,17.099999999999998 C9.439999999999856,17.099999999999998 8.629999999999853,16.179999999999996 8.519999999999854,14.999999999999996 L6.319999999999855,14.999999999999996 C6.439999999999855,17.189999999999998 8.079999999999856,18.419999999999998 9.999999999999854,18.83 L9.999999999999854,21 L12.999999999999854,21 L12.999999999999854,18.85 C14.949999999999854,18.48 16.499999999999854,17.35 16.499999999999854,15.3 C16.499999999999854,12.46 14.069999999999855,11.49 11.799999999999857,10.9Z"/>
        <path id="path-1" opacity="1" d="M0,0 L24,0 L24,24 L0,24 L0,0Z"/>
    </defs>
    <g opacity="1">
        <g opacity="1">
            <g>
                <use xlink:href="#path-0" fill="rgb(0,0,0)" fill-opacity="1"/>
            </g>
            <g/>
        </g>
    </g>
</svg>