<?xml version="1.0" encoding="utf-8"?>
<svg xmlns:xlink="http://www.w3.org/1999/xlink" version="1.1" xmlns="http://www.w3.org/2000/svg" height="24" width="24">
    <defs>
        <path id="path-0" opacity="1"
              d="M6,3 L6,7 L18,7 L18,3 L6,3ZM19,10 C19.55,10 20,10.45 20,11 C20,11.55 19.55,12 19,12 C18.45,12 18,11.55 18,11 C18,10.45 18.45,10 19,10 L19,10ZM16,14 L16,19 L8,19 L8,14 L16,14ZM5,8 C3.34,8 2,9.34 2,11 L2,17 L6,17 L6,21 L18,21 L18,17 L22,17 L22,11 C22,9.34 20.66,8 19,8 L5,8Z"/>
        <path id="path-1" opacity="1" d="M0,0 L24,0 L24,24 L0,24 L0,0Z"/>
    </defs>
    <g opacity="1">
        <g opacity="1">
            <g>
                <use xlink:href="#path-0" fill="rgb(0,0,0)" fill-opacity="1"/>
            </g>
            <g/>
        </g>
    </g>
</svg>