<svg xmlns="http://www.w3.org/2000/svg" viewBox="0 0 24 24">
    <defs>
        <style>
            .cls-1{fill:#000}.cls-2{fill:none}
        </style>
    </defs>
    <g id="ic_acnt_Food" data-name="ic / acnt / Food" transform="translate(-550 -28)">
        <path id="Shape"
              d="M13 1c0 2-2 3-2 5s2 3 2 4c0-2-1-2-1-4s1-2 1-5zM8 3c0 2-2 3-2 5s2 3 2 4c0-2-1-2-1-4s1-2 1-5zm10 0c0 2-2 3-2 5s2 3 2 4c0-2-1-2-1-4s1-2 1-5zm-5.5 9a3.366 3.366 0 0 0-2.7 1.3l.059.023-.059.077a5.3 5.3 0 0 1 1.865 1.213A6.353 6.353 0 0 1 12.7 16.2a3.78 3.78 0 0 1 3-2l-.038-.094.038-.006a3.386 3.386 0 0 0-3.2-2.1zM8 14a4.012 4.012 0 0 0-4 4h8a4.034 4.034 0 0 0-2.7-3.8 3.553 3.553 0 0 0-1-.2zm7.9 1a3.613 3.613 0 0 0-2.9 3h7a3.719 3.719 0 0 0-3.1-3zM2 19l2 1s2 2 4 2h8a6.894 6.894 0 0 0 4-2l2-1z"
              class="cls-1" transform="translate(549.625 28)"/>
        <path id="Bounds" d="M0 0h24v24H0z" class="cls-2" transform="translate(550 28)"/>
    </g>
</svg>
