<?xml version="1.0" encoding="utf-8"?>
<svg xmlns:xlink="http://www.w3.org/1999/xlink" version="1.1" xmlns="http://www.w3.org/2000/svg" height="24" width="24">
    <defs>
        <path id="path-0" opacity="1" d="M0,0 L24,0 L24,24 L0,24 L0,0Z"/>
        <path id="path-1" opacity="1"
              d="M15,5 L15,9 L5,9 L5,5 L15,5ZM12,13 C13.66,13 15,14.34 15,16 C15,17.66 13.66,19 12,19 C10.34,19 9,17.66 9,16 C9,14.34 10.34,13 12,13 L12,13ZM5,3 C3.8899999999999997,3 3,3.9 3,5 L3,19 C3,20.1 3.89,21 5,21 L19,21 C20.1,21 21,20.1 21,19 L21,7 L17,3 L5,3Z"/>
    </defs>
    <g opacity="1">
        <g opacity="1">
            <g/>
            <g>
                <use xlink:href="#path-1" fill="rgb(0,0,0)" fill-opacity="1"/>
            </g>
        </g>
    </g>
</svg>