<?xml version="1.0" encoding="utf-8"?>
<svg xmlns:xlink="http://www.w3.org/1999/xlink" version="1.1" xmlns="http://www.w3.org/2000/svg" height="24" width="24">
    <defs>
        <path id="path-0" opacity="1" d="M0,0 L24,0 L24,24 L0,24 L0,0Z"/>
        <path id="path-1" opacity="1"
              d="M12,9 C13.649999999999999,9 15,10.35 15,12 C15,13.65 13.649999999999999,15 12,15 C10.35,15 9,13.65 9,12 C9,10.35 10.35,9 12,9 L12,9ZM10.399999999999771,4.000000000000002 C10.199999999999772,4.000000000000002 10.039999999999772,4.1400000000000015 10.00999999999977,4.340000000000002 L9.709999999999772,6.460000000000002 C9.219999999999771,6.660000000000002 8.769999999999772,6.9300000000000015 8.359999999999772,7.240000000000002 L6.369999999999771,6.440000000000002 C6.323725393319148,6.422004319624205 6.2754680651353345,6.413261339596632 6.22760671027804,6.413261339596632 C6.089295896590018,6.413261339596632 5.954291885177203,6.486274606680625 5.879999999999771,6.620000000000002 L4.27999999999977,9.390000000000002 C4.179999999999771,9.570000000000002 4.219999999999771,9.780000000000001 4.379999999999771,9.900000000000002 L6.06999999999977,11.220000000000002 C6.02999999999977,11.470000000000002 5.999999999999771,11.740000000000002 5.999999999999771,12.000000000000002 C5.999999999999771,12.260000000000002 6.01999999999977,12.530000000000001 6.0599999999997705,12.780000000000001 L4.369999999999772,14.100000000000001 C4.219999999999772,14.22 4.179999999999772,14.440000000000001 4.269999999999771,14.610000000000001 L5.869999999999772,17.380000000000003 C5.944999999999772,17.515000000000004 6.081874999999772,17.582500000000003 6.221562499999772,17.582500000000003 C6.268124999999772,17.582500000000003 6.314999999999772,17.575000000000003 6.359999999999772,17.560000000000002 L8.349999999999772,16.759999999999998 C8.769999999999772,17.08 9.209999999999773,17.34 9.699999999999772,17.54 L9.999999999999773,19.659999999999997 C10.039999999999772,19.86 10.199999999999772,20 10.399999999999775,20 L13.59999999999977,20 C13.79999999999977,20 13.969999999999771,19.86 13.989999999999771,19.659999999999997 L14.289999999999772,17.54 C14.779999999999774,17.339999999999996 15.229999999999773,17.069999999999997 15.639999999999773,16.759999999999998 L17.629999999999775,17.56 C17.676274606680398,17.577995680375796 17.72453193486421,17.58673866040337 17.772393289721506,17.58673866040337 C17.910704103409525,17.58673866040337 18.045708114822343,17.513725393319376 18.11999999999977,17.38 L19.71999999999977,14.61 C19.819999999999773,14.43 19.779999999999774,14.219999999999999 19.61999999999977,14.1 L17.94999999999977,12.780000000000001 C17.97999999999977,12.530000000000001 17.999999999999773,12.270000000000001 17.999999999999773,12.000000000000002 C17.999999999999773,11.730000000000002 17.97999999999977,11.470000000000002 17.93999999999977,11.220000000000002 L19.629999999999768,9.900000000000002 C19.779999999999767,9.780000000000001 19.819999999999773,9.560000000000002 19.72999999999977,9.390000000000002 L18.129999999999768,6.620000000000003 C18.05499999999977,6.485000000000003 17.918124999999772,6.417500000000003 17.778437499999775,6.417500000000002 C17.731874999999775,6.417500000000002 17.684999999999775,6.4250000000000025 17.639999999999773,6.440000000000003 L15.649999999999768,7.240000000000003 C15.22999999999977,6.920000000000003 14.789999999999768,6.660000000000003 14.29999999999977,6.460000000000003 L13.999999999999769,4.340000000000002 C13.969999999999771,4.1400000000000015 13.79999999999977,4.000000000000002 13.59999999999977,4.000000000000002 L10.399999999999771,4.000000000000002Z"/>
    </defs>
    <g opacity="1">
        <g opacity="1">
            <g opacity="1"/>
            <g opacity="1">
                <use xlink:href="#path-1" fill="#e6007e" fill-opacity="1"/>
            </g>
        </g>
    </g>
</svg>