<?xml version="1.0" encoding="utf-8"?>
<svg xmlns:xlink="http://www.w3.org/1999/xlink" version="1.1" xmlns="http://www.w3.org/2000/svg" height="24" width="24">
    <defs>
        <path id="path-0" opacity="1" d="M0,0 L24,0 L24,24 L0,24 L0,0Z"/>
        <path id="path-1" opacity="1"
              d="M9,1 L9,3 L15,3 L15,1 L9,1ZM11,8 L11,14 L13,14 L13,8 L11,8ZM12,6 C15.870000000000001,6 19,9.129999999999999 19,13 C19,16.87 15.870000000000001,20 12,20 C8.129999999999999,20 5,16.87 5,13 C5,9.129999999999999 8.129999999999999,6 12,6 L12,6ZM12,4 C7.03,4 3,8.030000000000001 3,13 C3,17.97 7.02,22 12,22 C16.98,22 21,17.97 21,13 C21,10.879999999999999 20.26,8.93 19.03,7.39 L20.450000000000003,5.97 C20.020000000000003,5.46 19.550000000000004,4.9799999999999995 19.040000000000003,4.56 L17.620000000000005,5.9799999999999995 C16.07,4.74 14.12,4 12,4 L12,4Z"/>
    </defs>
    <g opacity="1">
        <g opacity="1">
            <g/>
            <g>
                <use xlink:href="#path-1" fill="rgb(255,255,255)" fill-opacity="1"/>
            </g>
        </g>
    </g>
</svg>