<svg xmlns="http://www.w3.org/2000/svg" width="47" height="47" viewBox="0 0 47 47">
    <defs>
        <style>
            .a{fill:#eb2e95;stroke:#707070;opacity:0;}.b{fill:#fff;stroke:#e6007e;stroke-width:0.3px;}.c{stroke:none;}.d{fill:none;}
        </style>
    </defs>
    <g transform="translate(8 -41.239)">
        <g class="a" transform="translate(-8 41.239)">
            <rect class="c" width="47" height="47"/>
            <rect class="d" x="0.5" y="0.5" width="46" height="46"/>
        </g>
        <g transform="translate(0 55.239)">
            <path class="b"
                  d="M3.77,131.95h12.6a1.1,1.1,0,1,0,0-2.208H3.771L5.9,127.614a1.1,1.1,0,0,0-1.563-1.562L.33,130.058a1.1,1.1,0,0,0-.249.372,1.117,1.117,0,0,0-.081.415,1.1,1.1,0,0,0,.084.422,1.063,1.063,0,0,0,.239.358l4.012,4.013a1.105,1.105,0,0,0,1.563,0,1.109,1.109,0,0,0,0-1.562Z"
                  transform="translate(0 -120.96)"/>
            <path class="b"
                  d="M124.587,55.239H114.173a3.684,3.684,0,0,0-3.679,3.68V61.31a1.1,1.1,0,0,0,1.989.628s.2-.1.215-.628,0-2.39,0-2.39a1.473,1.473,0,0,1,1.47-1.471h10.415a1.473,1.473,0,0,1,1.471,1.471V71.333a1.473,1.473,0,0,1-1.471,1.471H114.173a1.473,1.473,0,0,1-1.47-1.471s.013-2.078,0-2.476a.722.722,0,0,0-.215-.55,1.1,1.1,0,0,0-.886-.444,1.107,1.107,0,0,0-1.1,1.1v2.365a3.684,3.684,0,0,0,3.679,3.68h10.415a3.684,3.684,0,0,0,3.68-3.68V58.919A3.684,3.684,0,0,0,124.587,55.239Z"
                  transform="translate(-103.019 -55.239)"/>
        </g>
    </g>
</svg>