<svg xmlns="http://www.w3.org/2000/svg" width="60" height="60">
    <g data-name="Group 172">
        <g fill="#fff" data-name="Group 165">
            <path d="M27.506 18.5a13.421 13.421 0 0 1 12.9 9.557 13.509 13.509 0 0 1-8.963 16.849 13.5 13.5 0 0 1-3.949.594 13.421 13.421 0 0 1-12.9-9.557 13.509 13.509 0 0 1 8.963-16.849 13.5 13.5 0 0 1 3.949-.594m0-4a17.5 17.5 0 0 0-5.118.768 17.5 17.5 0 0 0-11.62 21.844A17.5 17.5 0 0 0 27.494 49.5a17.5 17.5 0 0 0 5.118-.768 17.5 17.5 0 0 0 11.62-21.844A17.5 17.5 0 0 0 27.506 14.5z"
                  data-name="Path 517"/>
            <path d="M37.586 20.086l11-11 2.828 2.829-11 11z" data-name="Rectangle 180"/>
            <path d="M52 21.5h-4v-9h-9v-4h13z" data-name="Path 518"/>
        </g>
        <path fill="none" d="M0 0h60v60H0z" data-name="Rectangle 181"/>
    </g>
</svg>