<svg width="30" height="29" viewBox="0 0 30 29" fill="none" xmlns="http://www.w3.org/2000/svg">
    <path d="M0.460417 15.6007C0.602314 14.5692 1.66654 13.7447 3.65736 13.1417C5.56952 12.6106 7.54319 12.3332 9.52765 12.3165V3.85236C9.52582 3.67906 9.58482 3.5106 9.69438 3.3763C9.95618 2.45397 11.019 1.71042 12.8594 1.1549C14.9989 0.570218 17.2101 0.289821 19.4278 0.321961C21.6221 0.287242 23.81 0.567747 25.9246 1.1549C27.3606 1.59903 29.0818 2.42417 29.0818 3.84385V7.86735C29.0818 18.8963 29.0272 8.70312 29.0818 22.1557C27.8615 23.4157 27.4166 23.6513 24.7582 24.414C23.0884 24.7829 21.3834 24.9692 19.6733 24.9695C19.2689 27.1689 14.509 28.1743 10.0669 28.1743C7.86868 28.2064 5.67746 27.9196 3.56158 27.3229C2.11778 26.8787 0.404367 26.0458 0.404367 24.6268V15.9101C0.402983 15.8043 0.422014 15.6993 0.460417 15.6007ZM25.4499 2.67036C23.4865 2.12843 21.4559 1.86922 19.4193 1.90057C17.3572 1.87205 15.3012 2.13114 13.3106 2.67036C11.5894 3.19396 11.2162 3.73459 11.2162 3.84456C11.2162 3.95453 11.5894 4.50296 13.3184 5.01876C15.3072 5.55474 17.3604 5.81378 19.42 5.78855C21.3923 5.81648 23.3593 5.57637 25.2669 5.07481C26.9697 4.58314 27.4486 4.03541 27.4883 3.86088C27.4883 3.84527 27.4883 3.83675 27.4961 3.83675C27.4883 3.72536 27.1229 3.18545 25.4499 2.67036ZM11.1183 5.82757V7.85812C11.1918 7.97117 11.2278 8.10447 11.2212 8.23912C11.2212 8.34199 11.5944 8.88972 13.3234 9.41332C15.3146 9.94919 17.3702 10.2082 19.4321 10.1831C21.2501 10.2018 23.0638 10.0019 24.8341 9.58785C24.8582 9.58005 24.8738 9.58005 24.8973 9.57224C25.738 9.39558 26.5672 9.16813 27.3805 8.89114L27.4358 5.93116C26.8892 6.20983 26.3149 6.4305 25.7224 6.58956C23.6699 7.1297 21.5536 7.38867 19.4314 7.35936C17.2162 7.3921 15.0075 7.11168 12.8708 6.52642C12.2615 6.35871 11.6726 6.12434 11.1148 5.82757H11.1183ZM23.4144 23.0681C25.3676 22.8113 27.2911 21.9755 27.3812 21.4796C27.428 20.8698 27.428 20.2574 27.3812 19.6477C25.5766 20.0672 23.7407 20.3384 21.8919 20.4586C21.2179 20.5139 20.5034 20.5537 19.7741 20.5615V20.7034L19.7343 23.3923C20.9662 23.3732 22.1949 23.2641 23.4109 23.066L23.4144 23.0681ZM22.6794 16.0279C21.7431 16.1249 20.8019 16.1685 19.8606 16.1584C19.8606 16.174 19.8528 16.1981 19.8528 16.2137L19.8053 18.9666C20.3686 18.9585 20.9161 18.9349 21.4477 18.8956C23.4589 18.8264 25.453 18.5012 27.3819 17.9279V15.0332C25.8416 15.4877 24.2678 15.8196 22.6751 16.0257L22.6794 16.0279ZM19.3484 14.5777H19.4193C20.1806 14.5777 20.9185 14.5457 21.601 14.4982C23.6876 14.2854 26.0246 14.0193 27.3762 13.3162V10.5655C25.9507 11.0001 24.4948 11.3281 23.0207 11.5467C21.8318 11.7283 20.6294 11.8053 19.4271 11.7766C17.2094 11.8088 14.9982 11.5284 12.8587 10.9437C12.2561 10.7602 11.6718 10.5212 11.1134 10.2299V12.3321C14.5239 12.4279 18.0479 13.1417 19.3484 14.5777ZM18.2841 15.7994C18.2047 15.5773 17.6257 15.0615 15.9996 14.6018C14.1441 14.1284 12.2342 13.9018 10.3194 13.9278H10.2166C8.15525 13.8945 6.09933 14.1481 4.10789 14.6813C2.43563 15.1857 2.0369 15.6958 2.01561 15.8306V15.8384C2.02342 15.9576 2.42002 16.5046 4.18096 17.0282C6.14921 17.5544 8.18086 17.8054 10.218 17.7739C12.1593 17.797 14.0954 17.5676 15.9776 17.0914C17.4931 16.6657 18.1061 16.179 18.2543 15.9335C18.2597 15.8879 18.2696 15.843 18.2841 15.7994ZM1.99149 24.6283C1.99149 24.7396 2.34623 25.2867 4.03055 25.8103C5.99493 26.3592 8.02818 26.622 10.0676 26.5907C12.1002 26.6243 14.1273 26.3707 16.089 25.8372C17.7705 25.3214 18.1117 24.79 18.1117 24.6708V24.6552L18.1515 22.3629C16.2635 23.3228 13.1141 23.7591 10.2265 23.7591C8.01644 23.792 5.81287 23.5116 3.68149 22.9262C3.09646 22.7499 2.53036 22.5161 1.99149 22.2281V24.6318V24.6283ZM2.06244 20.2337C2.06244 20.3451 2.42711 20.8843 4.14052 21.4079C6.12299 21.9456 8.17123 22.2019 10.2251 22.1692C14.5806 22.1692 17.5328 21.1936 18.182 20.4238L18.1976 19.7413L18.2295 17.9243C17.6525 18.2171 17.0464 18.4485 16.421 18.6146C14.3999 19.1321 12.3198 19.3828 10.2336 19.3603C8.04623 19.3903 5.86521 19.1179 3.75243 18.5508C3.1454 18.3796 2.55784 18.1456 1.99929 17.8527V19.8917H1.99149C1.99149 19.9953 2.06315 20.1145 2.06315 20.2337H2.06244Z"
          fill="black"/>
</svg>
