<svg xmlns="http://www.w3.org/2000/svg" width="47" height="47" viewBox="0 0 47 47">
    <defs>
        <style>
            .a{fill:#eb2e95;stroke:#707070;opacity:0;}.b{fill:#fff;stroke:#fff;stroke-width:0.2px;}.c{stroke:none;}.d{fill:none;}
        </style>
    </defs>
    <g transform="translate(-24.367 -57)">
        <g class="a" transform="translate(24.367 57)">
            <rect class="c" width="47" height="47"/>
            <rect class="d" x="0.5" y="0.5" width="46" height="46"/>
        </g>
        <path class="b"
              d="M.048,88.843c.124-.9,1.049-1.615,2.781-2.14a19.7,19.7,0,0,1,5.107-.718V78.621a.645.645,0,0,1,.145-.414c.228-.8,1.153-1.449,2.754-1.932a20.548,20.548,0,0,1,5.715-.725,19.947,19.947,0,0,1,5.652.725c1.249.387,2.747,1.1,2.747,2.34v3.5c0,9.6-.048.727,0,12.431-1.061,1.1-1.449,1.3-3.761,1.965a20.527,20.527,0,0,1-4.424.483c-.352,1.912-4.493,2.788-8.358,2.788a19.786,19.786,0,0,1-5.659-.738C1.491,98.657,0,97.932,0,96.7V89.112A.715.715,0,0,1,.048,88.843Zm21.74-11.25a18.643,18.643,0,0,0-5.245-.669,19.3,19.3,0,0,0-5.314.669c-1.5.456-1.822.925-1.822,1.021s.324.573,1.829,1.021a19.483,19.483,0,0,0,5.307.669,18.95,18.95,0,0,0,5.087-.621c1.484-.428,1.9-.9,1.932-1.056,0-.014,0-.021.007-.021C23.562,78.511,23.245,78.042,21.789,77.593ZM9.317,80.34v1.767a.559.559,0,0,1,.09.331c0,.09.324.566,1.829,1.021a19.535,19.535,0,0,0,5.314.669,19.745,19.745,0,0,0,4.7-.518c.021-.007.035-.007.055-.014A18.5,18.5,0,0,0,23.466,83l.048-2.575A7.647,7.647,0,0,1,22.023,81a20.4,20.4,0,0,1-5.473.669,20.462,20.462,0,0,1-5.708-.725A7.48,7.48,0,0,1,9.317,80.34Zm10.7,15c1.7-.223,3.373-.95,3.451-1.382a10.4,10.4,0,0,0,0-1.594,29.569,29.569,0,0,1-4.776.705c-.587.048-1.208.083-1.843.09v.124l-.035,2.34A22.013,22.013,0,0,0,20.015,95.337Zm-.64-6.125a21.532,21.532,0,0,1-2.452.114c0,.014-.007.035-.007.048l-.041,2.395q.735-.01,1.429-.062a20.608,20.608,0,0,0,5.162-.842V88.349A26.479,26.479,0,0,1,19.375,89.212Zm-2.894-1.26h.062c.663,0,1.3-.028,1.9-.069a15.98,15.98,0,0,0,5.024-1.028V84.462a26.15,26.15,0,0,1-3.789.854,17.885,17.885,0,0,1-3.126.2,20.548,20.548,0,0,1-5.715-.725,8.871,8.871,0,0,1-1.518-.621V86C12.285,86.082,15.349,86.7,16.481,87.952Zm-.925,1.063c-.069-.193-.573-.642-1.988-1.042a18.949,18.949,0,0,0-4.942-.587h-.09a19.343,19.343,0,0,0-5.314.656c-1.456.442-1.8.883-1.822,1v.007c.007.1.352.58,1.884,1.035a19.189,19.189,0,0,0,5.252.649,19.485,19.485,0,0,0,5.011-.594,3.645,3.645,0,0,0,1.981-1.008A.584.584,0,0,1,15.556,89.015ZM1.38,96.7c0,.1.311.573,1.774,1.028a18.46,18.46,0,0,0,5.252.676,18.781,18.781,0,0,0,5.238-.656c1.463-.449,1.76-.911,1.76-1.015v-.014l.035-1.995a16.873,16.873,0,0,1-6.895,1.215,20.358,20.358,0,0,1-5.694-.725,8.042,8.042,0,0,1-1.47-.607V96.7Zm.062-3.824c0,.1.317.566,1.808,1.021a19.06,19.06,0,0,0,5.294.663c3.789,0,6.356-.849,6.922-1.518l.014-.594.028-1.58a8.041,8.041,0,0,1-1.574.6,20.8,20.8,0,0,1-5.383.649,20.658,20.658,0,0,1-5.639-.7A7.9,7.9,0,0,1,1.387,90.8v1.774H1.38C1.38,92.666,1.442,92.77,1.442,92.873Z"
              transform="translate(30.799 -7.116)"/>
    </g>
</svg>