<svg xmlns="http://www.w3.org/2000/svg" width="485.213" height="485.212"
     style="enable-background:new 0 0 485.213 485.212"
     xml:space="preserve"><path d="M121.304 163.711v-42.407C121.304 54.434 175.723 0 242.606 0c66.902 0 121.302 54.434 121.302 121.304v42.407c-19.457-8.884-39.772-15.338-60.653-19.662v-22.745c0-33.465-27.153-60.653-60.648-60.653-33.496 0-60.651 27.188-60.651 60.653v22.745c-20.865 4.325-41.195 10.779-60.652 19.662zm272.931 102.112c0 105.845-64.588 194.011-151.629 219.39-87.039-25.379-151.629-113.545-151.629-219.39 0-26.649 4.116-52.122 11.624-75.812 86.329-51.175 193.667-51.175 279.995 0 7.495 23.69 11.639 49.162 11.639 75.812zm-132.615 30.21c6.753-5.567 11.312-13.684 11.312-23.103 0-16.764-13.562-30.324-30.326-30.324-16.762 0-30.324 13.561-30.324 30.324 0 9.419 4.56 17.535 11.311 23.103l-11.311 67.873h60.65l-11.312-67.873z"/></svg>