<svg xmlns="http://www.w3.org/2000/svg" width="47" height="47" viewBox="0 0 47 47">
    <defs>
        <style>.a{fill:#eb2e95;stroke:#707070;opacity:0;}.b{fill:#fff;stroke:#fff;}.c{stroke:none;}.d{fill:none;}
        </style>
    </defs>
    <g transform="translate(12 12)">
        <g class="a" transform="translate(-12 -12)">
            <rect class="c" width="47" height="47"/>
            <rect class="d" x="0.5" y="0.5" width="46" height="46"/>
        </g>
        <path class="b"
              d="M21.366,8.76h-.842a9.507,9.507,0,0,0-.943-2.276l.595-.595a1.161,1.161,0,0,0,0-1.641l-1.9-1.9a1.188,1.188,0,0,0-1.641,0l-.595.595A9.534,9.534,0,0,0,13.765,2V1.16A1.161,1.161,0,0,0,12.606,0H9.919A1.161,1.161,0,0,0,8.76,1.16V2a9.528,9.528,0,0,0-2.276.943l-.595-.595a1.188,1.188,0,0,0-1.641,0l-1.9,1.9a1.161,1.161,0,0,0,0,1.641l.595.595A9.5,9.5,0,0,0,2,8.76H1.16A1.161,1.161,0,0,0,0,9.919v2.686a1.161,1.161,0,0,0,1.16,1.16H2a9.528,9.528,0,0,0,.943,2.276l-.595.595a1.161,1.161,0,0,0,0,1.641l1.9,1.9a1.187,1.187,0,0,0,1.641,0l.595-.595a9.545,9.545,0,0,0,2.276.943v.842a1.161,1.161,0,0,0,1.16,1.16h2.686a1.161,1.161,0,0,0,1.16-1.16v-.842a9.528,9.528,0,0,0,2.276-.943l.595.595a1.188,1.188,0,0,0,1.641,0l1.9-1.9a1.161,1.161,0,0,0,0-1.641l-.595-.595a9.545,9.545,0,0,0,.943-2.276h.842a1.161,1.161,0,0,0,1.16-1.16V9.919A1.162,1.162,0,0,0,21.366,8.76Zm.325,3.846a.326.326,0,0,1-.325.325h-1.5l-.075.322a8.712,8.712,0,0,1-1.09,2.633l-.175.281,1.059,1.059a.326.326,0,0,1,0,.461l-1.9,1.9a.326.326,0,0,1-.461,0l-1.059-1.059-.281.175a8.693,8.693,0,0,1-2.633,1.09l-.322.075v1.5a.326.326,0,0,1-.325.325H9.919a.326.326,0,0,1-.325-.325v-1.5l-.322-.075A8.712,8.712,0,0,1,6.639,18.7l-.281-.175L5.3,19.586a.326.326,0,0,1-.461,0l-1.9-1.9a.326.326,0,0,1,0-.461L4,16.167l-.175-.281a8.693,8.693,0,0,1-1.09-2.633l-.075-.322H1.16a.326.326,0,0,1-.325-.325V9.919a.326.326,0,0,1,.325-.325h1.5l.075-.322a8.7,8.7,0,0,1,1.09-2.633L4,6.358,2.939,5.3a.326.326,0,0,1,0-.461l1.9-1.9a.326.326,0,0,1,.461,0L6.358,4l.281-.175a8.693,8.693,0,0,1,2.633-1.09l.322-.075V1.16A.326.326,0,0,1,9.919.834h2.686a.326.326,0,0,1,.326.325v1.5l.322.075a8.712,8.712,0,0,1,2.633,1.09L16.167,4l1.059-1.059a.326.326,0,0,1,.461,0l1.9,1.9a.326.326,0,0,1,0,.461L18.527,6.358l.175.281a8.684,8.684,0,0,1,1.09,2.633l.075.322h1.5a.326.326,0,0,1,.325.325Z"/>
        <path class="b"
              d="M21.171,17a4.171,4.171,0,1,0,4.171,4.171A4.176,4.176,0,0,0,21.171,17Zm0,7.508a3.337,3.337,0,1,1,3.337-3.337A3.341,3.341,0,0,1,21.171,24.508Z"
              transform="translate(-9.909 -9.909)"/>
    </g>
</svg>