<?xml version="1.0" standalone="no"?>
<!DOCTYPE svg PUBLIC "-//W3C//DTD SVG 20010904//EN"
        "http://www.w3.org/TR/2001/REC-SVG-20010904/DTD/svg10.dtd">
<svg version="1.0" xmlns="http://www.w3.org/2000/svg"
     width="700.000000pt" height="700.000000pt" viewBox="0 0 700.000000 700.000000"
     preserveAspectRatio="xMidYMid meet">
    <metadata>
        Created by potrace 1.14, written by Peter Selinger 2001-2017
    </metadata>
    <g transform="translate(0.000000,700.000000) scale(0.100000,-0.100000)"
       fill="#000000" stroke="none">
        <path d="M1983 6815 c-78 -21 -148 -60 -178 -99 -58 -76 -197 -408 -254 -607
-75 -262 -105 -483 -105 -774 1 -269 33 -513 98 -736 l16 -56 91 -20 91 -20
-6 26 c-32 147 -47 231 -56 316 -6 55 -12 119 -15 142 l-4 41 102 7 c172 11
340 -20 536 -101 103 -43 341 -171 341 -185 0 -5 6 -9 14 -9 20 0 86 -40 86
-52 0 -5 4 -7 9 -4 4 3 17 -1 27 -9 16 -13 17 -14 2 -9 -10 3 -18 1 -18 -4 0
-6 9 -9 21 -7 13 3 57 -17 118 -53 53 -32 111 -64 130 -72 29 -12 32 -15 17
-26 -15 -11 -15 -12 0 -18 9 -3 22 -2 28 2 14 11 179 -61 169 -73 -5 -4 -3 -5
3 -2 6 4 44 -5 85 -18 137 -47 423 -72 519 -45 20 5 49 11 65 14 17 2 37 6 45
10 8 3 33 12 54 19 l39 13 34 120 c18 65 36 126 40 134 3 8 7 28 9 44 5 37 12
45 24 26 10 -16 9 -38 -3 -57 -5 -7 -4 -13 1 -13 10 0 23 23 28 49 1 8 -6 22
-17 32 -11 9 -16 20 -10 23 5 3 7 16 3 28 -4 18 -2 20 14 15 16 -6 17 -5 4 5
-18 15 -15 44 5 52 8 3 14 0 12 -6 -1 -6 4 -13 11 -15 8 -3 12 6 12 29 0 19
-4 28 -8 21 -5 -8 -12 -9 -22 -2 -10 7 -11 12 -4 15 7 3 9 15 6 27 -5 21 -5
21 21 4 35 -23 36 -22 32 18 -3 30 -1 34 11 24 12 -10 13 -9 8 5 -3 9 -12 16
-19 16 -7 0 -16 6 -19 13 -4 8 -5 7 -5 -3 2 -31 -1 -40 -16 -40 -11 0 -13 4
-6 18 6 9 12 29 16 45 3 15 10 27 16 27 8 0 8 -4 1 -12 -11 -14 10 -43 22 -31
11 12 6 42 -9 50 -20 11 -10 74 10 67 10 -4 13 7 11 48 -2 29 -1 47 1 41 3 -7
12 -13 21 -13 15 0 15 -2 2 -10 -12 -8 -13 -13 -2 -30 7 -12 8 -20 2 -20 -5 0
-10 -7 -10 -16 0 -8 4 -13 9 -10 5 3 11 -8 13 -24 3 -17 1 -30 -4 -30 -13 0
-9 -38 5 -44 6 -3 2 -3 -11 0 -21 5 -22 4 -11 -14 7 -11 23 -19 37 -19 13 0
29 -7 34 -14 7 -11 8 -9 4 5 -4 10 -1 25 5 32 8 10 8 14 1 14 -6 0 -9 8 -6 18
5 14 4 14 -4 2 -6 -8 -8 -18 -6 -22 3 -4 1 -8 -4 -8 -5 0 -14 11 -20 25 -9 19
-8 27 3 39 12 12 12 15 1 19 -9 4 -13 17 -11 34 2 15 -2 34 -9 42 -8 12 -8 13
2 7 7 -4 14 -1 18 8 9 23 32 8 30 -20 0 -13 -5 -24 -9 -24 -5 0 -5 -4 -2 -10
3 -6 -1 -7 -10 -4 -11 5 -14 2 -9 -10 3 -8 11 -14 17 -13 7 1 11 -4 9 -11 -1
-8 2 -11 8 -7 5 3 10 -1 10 -10 0 -9 5 -13 10 -10 6 3 10 -3 10 -14 0 -12 7
-21 15 -21 8 0 15 -4 15 -8 0 -4 11 -9 25 -10 33 -2 32 16 0 24 -22 5 -24 9
-13 22 10 12 10 14 1 8 -7 -4 -13 -2 -13 3 0 6 -6 11 -12 11 -7 0 -22 8 -33
16 l-20 15 20 16 c14 11 16 17 8 20 -20 7 -15 19 7 20 11 1 20 -2 20 -6 0 -5
8 -11 18 -13 14 -4 18 0 17 16 -1 12 2 27 8 34 7 9 4 12 -12 12 -19 0 -20 -3
-11 -22 10 -21 10 -21 -3 -5 -8 9 -19 17 -24 17 -6 0 -16 7 -23 15 -11 13 -14
13 -26 -2 -13 -17 -14 -17 -8 2 5 19 5 19 -10 1 -8 -10 -19 -15 -25 -11 -17
10 -13 19 16 38 23 15 24 17 6 12 -21 -6 -22 -3 -20 44 1 34 6 51 15 51 7 0
10 -4 7 -10 -3 -5 -2 -10 2 -10 15 0 44 -58 32 -62 -9 -3 -9 -10 0 -26 14 -26
32 -21 26 8 -2 11 0 20 6 20 5 0 9 -6 9 -14 0 -16 43 -13 48 3 2 6 13 6 27 -1
14 -6 22 -14 20 -19 -6 -8 14 -24 21 -16 9 8 -8 37 -22 37 -13 0 -16 4 -18 33
-1 6 -5 15 -9 18 -4 3 8 14 27 24 20 11 38 26 41 34 9 23 -2 24 -22 2 -20 -24
-45 -28 -37 -6 5 11 2 13 -10 9 -9 -3 -13 -11 -9 -17 3 -6 1 -7 -5 -3 -7 4
-12 2 -12 -3 0 -6 8 -11 18 -12 12 0 11 -3 -6 -10 -24 -9 -25 -37 -2 -31 6 1
10 -3 8 -9 -2 -7 -12 -13 -22 -15 -11 -1 -16 2 -13 11 6 13 -10 35 -25 35 -4
0 -8 -8 -9 -17 0 -12 -4 -8 -11 10 -5 15 -15 27 -21 27 -7 0 -6 4 2 9 20 13
-4 42 -27 34 -15 -4 -15 -3 -2 6 8 6 23 11 32 11 9 0 20 5 24 12 4 6 3 8 -4 4
-6 -3 -14 -1 -18 5 -4 8 5 9 30 6 23 -3 36 -1 36 7 0 7 4 6 9 -2 6 -11 9 -9
14 7 3 14 -1 21 -14 23 -13 2 -16 7 -10 16 7 11 11 11 22 -1 15 -14 39 -12 39
4 0 5 -10 9 -22 9 -12 0 -18 3 -15 7 4 3 -1 15 -10 25 -13 14 -14 21 -5 30 9
9 12 9 12 0 0 -7 7 -12 16 -12 11 0 14 -6 9 -22 -5 -17 -4 -19 4 -9 8 13 12
13 27 0 16 -12 17 -12 11 4 -3 9 -2 17 3 17 6 0 10 5 10 11 0 6 -7 9 -15 5 -8
-3 -15 -2 -15 3 0 10 36 24 63 24 24 0 21 14 -4 20 -12 3 -18 10 -14 16 4 7 0
8 -10 5 -9 -4 -14 -12 -11 -19 9 -24 -22 -24 -43 1 -11 13 -18 24 -13 24 4 0
0 4 -8 10 -9 6 -17 5 -22 -3 -6 -9 -10 -8 -17 3 -17 26 0 31 35 10 20 -11 32
-15 28 -8 -5 8 -2 9 9 5 9 -3 19 -1 23 5 4 6 3 8 -3 5 -15 -10 -35 17 -27 37
3 9 2 16 -4 16 -6 0 -13 -6 -15 -12 -3 -8 -6 -6 -6 5 -1 9 6 17 15 17 8 0 13
4 10 9 -4 5 0 12 6 14 7 3 3 6 -9 6 -13 1 -23 -5 -23 -12 0 -12 -46 -67 -56
-67 -2 0 1 10 8 23 16 29 19 47 6 47 -5 0 -8 8 -6 18 1 9 -2 24 -7 32 -7 12
-6 13 7 3 15 -13 28 -8 28 9 0 5 -4 6 -10 3 -5 -3 -10 -2 -10 4 0 5 -3 16 -6
25 -4 11 -1 16 10 16 9 0 16 -5 16 -11 0 -5 5 -7 10 -4 7 4 7 11 2 18 -10 12
-8 44 2 55 3 3 6 -4 6 -16 0 -20 16 -39 26 -29 10 9 -20 57 -39 63 -11 3 -16
9 -11 13 5 3 10 31 11 61 2 30 9 84 17 120 13 60 8 95 -11 76 -4 -4 -2 -11 6
-15 17 -11 -12 -23 -36 -14 -12 5 -14 3 -8 -7 5 -9 4 -11 -4 -6 -6 4 -24 0
-39 -10 -14 -10 -45 -17 -69 -17 -23 0 -40 -4 -37 -9 3 -4 -2 -8 -11 -8 -9 0
-14 4 -11 9 3 5 -1 11 -9 15 -8 3 -17 1 -20 -4 -4 -6 -1 -10 6 -10 7 0 10 -3
6 -6 -3 -3 -12 -2 -19 2 -22 14 -41 14 -29 0 8 -9 7 -13 -4 -13 -8 0 -15 6
-15 14 0 7 -4 13 -10 13 -5 0 -18 8 -29 19 -19 19 -77 51 -93 51 -5 0 -7 -13
-3 -30 9 -39 -4 -60 -30 -49 -17 6 -17 8 -2 8 9 1 17 5 17 10 0 6 -9 8 -20 6
-13 -2 -20 2 -20 11 0 8 -9 14 -21 14 -18 0 -19 3 -9 14 13 17 40 10 40 -10 0
-18 16 -18 23 0 7 18 -35 40 -67 34 -14 -3 -26 -1 -26 4 0 5 -4 6 -10 3 -5 -3
-10 -1 -10 4 0 6 6 11 13 11 8 0 8 3 2 8 -6 4 -11 15 -12 25 -1 33 -3 37 -14
37 -6 0 -9 -6 -6 -14 4 -9 -3 -13 -23 -12 -15 1 -26 4 -24 8 2 4 0 9 -6 13 -5
3 -7 20 -3 37 4 22 3 30 -6 27 -7 -3 -12 -8 -12 -12 1 -4 1 -18 1 -32 0 -26
35 -69 49 -61 4 3 13 -6 20 -20 6 -14 7 -23 2 -20 -5 4 -11 3 -14 -1 -2 -5 -2
-2 -1 5 2 6 -1 12 -6 12 -6 0 -10 -7 -10 -16 0 -8 -5 -12 -10 -9 -6 4 -8 11
-5 16 4 5 0 9 -7 9 -9 0 -9 3 2 10 11 7 11 10 2 10 -7 0 -23 9 -35 20 -18 18
-19 22 -7 30 8 5 11 12 7 17 -5 4 -12 1 -17 -7 -9 -13 -10 -13 -11 0 -1 8 0
25 1 38 1 16 -4 22 -20 22 -20 0 -20 -1 -4 -17 11 -11 13 -18 5 -21 -6 -2 -11
-8 -11 -13 0 -6 5 -7 12 -3 8 5 9 2 5 -10 -4 -10 -3 -15 3 -11 6 3 10 1 10 -4
0 -6 -12 -11 -27 -11 -18 0 -24 3 -15 8 9 6 10 16 4 33 l-9 24 -7 -23 c-9 -26
-42 -47 -51 -32 -6 9 8 14 28 11 14 -2 7 17 -9 23 -9 4 -14 9 -11 13 4 3 2 13
-4 22 -6 9 0 3 15 -12 15 -16 26 -22 26 -15 0 8 -5 19 -12 26 -9 9 -8 12 5 12
9 0 17 5 17 10 0 6 -8 10 -19 10 -10 0 -24 6 -30 14 -10 12 -8 13 8 9 13 -3
21 -1 21 6 0 7 -5 9 -12 5 -7 -5 -8 -3 -3 6 6 10 12 9 24 -6 9 -10 22 -19 29
-20 27 -2 31 -5 37 -25 7 -20 7 -20 26 2 10 12 16 25 13 28 -4 3 -9 0 -11 -6
-3 -10 -9 -9 -20 3 -13 12 -13 20 -4 41 10 22 9 25 -4 20 -8 -4 -15 -2 -15 3
0 6 5 10 10 10 6 0 10 9 10 20 0 24 3 24 -44 0 -51 -25 -77 -50 -69 -64 4 -6
0 -5 -9 2 -11 9 -18 10 -23 2 -3 -5 -1 -10 5 -10 7 0 10 -6 7 -12 -2 -7 -9
-12 -15 -11 -7 2 -9 -4 -5 -13 5 -14 3 -14 -15 -3 -12 7 -18 16 -14 19 13 10
10 39 -4 33 -7 -3 -12 -10 -11 -16 1 -5 -7 -13 -18 -16 -21 -6 -34 -41 -15
-41 5 0 10 4 10 9 0 6 9 9 20 8 18 -1 18 -2 2 -17 -20 -19 -42 -20 -60 -3 -11
11 -10 17 2 35 9 12 16 30 16 40 0 16 6 20 26 17 9 -1 24 23 24 39 0 20 -17
13 -23 -10 -6 -21 -7 -21 -27 -3 -11 10 -20 25 -20 33 0 12 -3 12 -15 2 -21
-17 -19 -25 10 -40 14 -7 23 -15 20 -18 -2 -3 -11 1 -20 8 -8 7 -15 8 -15 2 0
-5 6 -12 14 -15 15 -6 16 -31 1 -44 -4 -4 -5 -3 -1 4 13 23 -12 22 -58 -2 -41
-22 -46 -23 -47 -7 0 13 -3 11 -9 -5 -5 -13 -13 -23 -17 -24 -4 0 -16 -2 -25
-4 -10 -2 -18 3 -18 11 0 9 -11 14 -29 14 -39 0 -62 10 -54 23 3 6 1 7 -5 3
-14 -9 -252 134 -252 152 0 6 5 12 11 12 6 0 9 5 7 11 -5 16 -21 12 -24 -7 -1
-9 -4 -17 -6 -19 -7 -7 -127 72 -120 80 4 5 2 5 -5 1 -7 -4 -23 0 -35 8 -75
49 -303 129 -427 151 -107 19 -347 19 -418 0z m1762 -345 c-4 -6 -1 -18 7 -27
9 -12 9 -15 1 -9 -7 4 -13 2 -13 -3 0 -6 -4 -11 -9 -11 -7 0 -8 34 -2 58 1 1
6 2 12 2 5 0 7 -5 4 -10z m-1231 -29 c114 -40 265 -172 311 -273 49 -106 42
-217 -17 -291 l-30 -38 24 -37 c13 -20 32 -53 43 -74 45 -87 34 -86 180 -13
324 163 791 313 811 262 16 -42 -71 -136 -175 -191 -82 -43 -443 -181 -591
-226 -58 -17 -111 -33 -119 -36 -11 -4 -11 -7 1 -22 8 -9 86 -123 173 -252 87
-129 168 -246 181 -260 12 -14 52 -74 88 -134 73 -121 82 -158 43 -194 -36
-34 -79 -38 -109 -10 -14 12 -134 211 -267 441 -134 229 -246 417 -249 417
-18 0 -213 -80 -459 -189 -189 -83 -218 -87 -257 -37 -34 45 -33 79 1 105 19
16 35 20 57 16 23 -5 77 10 206 56 96 34 238 82 315 106 77 25 143 47 147 50
9 5 -6 37 -59 129 l-35 60 -88 -4 c-82 -4 -92 -2 -140 24 -89 48 -142 128
-179 266 -29 105 -35 177 -21 242 24 115 93 150 214 107z m988 -64 c-3 -12
-11 -17 -23 -14 -20 5 -26 -7 -9 -18 17 -10 11 -27 -7 -23 -10 2 -18 10 -18
18 0 8 -4 21 -8 27 -5 9 -3 11 6 7 8 -3 19 5 26 18 6 13 9 15 6 5 -3 -10 -1
-15 5 -12 6 3 10 16 11 28 0 21 1 21 8 2 4 -11 6 -28 3 -38z m-82 -32 c0 -18
-1 -18 -16 3 -8 12 -12 27 -8 33 8 14 24 -8 24 -36z m204 -11 c9 -24 7 -27 -9
-10 -17 17 -19 26 -6 26 5 0 12 -7 15 -16z m-47 -40 c-3 -3 -12 -4 -19 -1 -8
3 -5 6 6 6 11 1 17 -2 13 -5z m58 -3 c-3 -5 -1 -12 3 -15 5 -3 7 -17 5 -31 -7
-36 -24 -20 -19 18 6 39 5 37 12 37 3 0 3 -4 -1 -9z m-75 -15 c0 -2 -8 -10
-17 -17 -16 -13 -17 -12 -4 4 13 16 21 21 21 13z m224 -17 c-3 -5 -10 -7 -15
-3 -5 3 -7 10 -3 15 3 5 10 7 15 3 5 -3 7 -10 3 -15z m-27 -9 c7 -9 8 -17 2
-21 -6 -3 -11 -16 -12 -27 -1 -23 -12 -29 -22 -12 -3 6 -1 10 4 10 14 0 14 27
1 35 -5 3 -19 8 -30 10 -19 4 -19 2 -5 -18 22 -32 18 -46 -5 -17 -22 28 -25
47 -10 52 25 8 66 2 77 -12z m-171 -1 c4 -8 9 -7 15 2 6 10 9 10 9 2 0 -6 -4
-14 -9 -17 -12 -8 -41 3 -41 15 0 13 17 11 26 -2z m210 -53 c-3 -18 -1 -23 9
-20 7 3 16 0 20 -6 5 -8 12 -5 22 7 8 10 12 12 8 5 -4 -7 -2 -19 4 -26 9 -10
7 -15 -5 -20 -9 -4 -18 -5 -19 -4 -1 2 -7 12 -13 23 -10 18 -11 18 -12 2 0
-12 -4 -16 -12 -10 -7 4 -17 8 -23 9 -5 0 -17 2 -25 3 -12 1 -12 4 3 12 9 5
17 16 17 24 0 11 9 19 28 24 1 1 0 -10 -2 -23z m91 -18 c-3 -8 -6 -5 -6 6 -1
11 2 17 5 13 3 -3 4 -12 1 -19z m173 8 c0 -3 -4 -8 -10 -11 -5 -3 -10 -1 -10
4 0 6 5 11 10 11 6 0 10 -2 10 -4z m-137 -42 c-6 -17 9 -18 25 -2 9 9 12 7 11
-12 0 -14 -3 -20 -5 -14 -3 7 -13 10 -23 7 -13 -3 -20 2 -23 20 -3 18 -1 24 8
20 7 -2 10 -11 7 -19z m164 1 c0 -8 -4 -15 -8 -15 -5 0 -6 -7 -3 -15 4 -8 1
-15 -5 -15 -5 0 -9 13 -8 30 2 30 24 44 24 15z m43 -17 c0 -5 5 -6 10 -3 6 3
10 0 10 -7 0 -8 -12 -13 -29 -13 -20 0 -28 4 -26 15 2 8 4 18 4 22 1 11 31 -3
31 -14z m307 -260 c-3 -7 -5 -2 -5 12 0 14 2 19 5 13 2 -7 2 -19 0 -25z m-34
-135 c-4 -10 -2 -14 4 -10 7 5 9 0 6 -13 -3 -11 -10 -17 -16 -13 -7 4 -8 0 -4
-12 4 -9 2 -24 -4 -31 -21 -25 -30 -15 -16 19 16 38 17 41 17 68 0 11 4 18 10
14 5 -3 6 -13 3 -22z m83 -71 c-4 -3 -14 2 -24 12 -16 18 -16 18 6 6 13 -6 21
-14 18 -18z m-110 -55 c9 3 14 -2 14 -17 0 -13 -8 -24 -20 -27 -25 -7 -26 -19
-1 -32 22 -12 31 -5 31 25 0 18 4 22 17 17 12 -5 14 -3 8 7 -6 9 -4 11 6 5 8
-5 5 1 -5 13 -16 19 -17 22 -3 22 27 0 65 -22 70 -40 5 -18 -8 -21 -30 -7 -7
4 -21 2 -32 -5 -16 -10 -18 -15 -8 -27 10 -12 9 -13 -2 -6 -11 6 -13 3 -9 -13
4 -15 3 -20 -5 -15 -20 13 -32 9 -39 -12 -6 -19 -6 -19 -7 3 -1 12 -6 22 -11
22 -6 0 -9 13 -8 30 1 20 7 29 17 27 7 -1 16 4 18 11 3 7 -1 10 -11 6 -11 -4
-16 -1 -15 12 0 11 3 14 5 7 3 -7 12 -9 20 -6z m36 -140 c10 -19 9 -20 -4 -10
-8 7 -18 10 -21 6 -4 -3 -7 4 -7 16 0 25 15 20 32 -12z m-52 -12 c0 -12 -19
-12 -23 0 -4 9 -1 12 9 8 7 -3 14 -7 14 -8z m-26 -40 c-10 -7 -15 -19 -11 -29
4 -10 1 -16 -9 -16 -11 0 -13 7 -8 28 9 38 13 42 30 35 12 -5 12 -7 -2 -18z
m-39 -125 c3 -5 1 -10 -4 -10 -6 0 -11 5 -11 10 0 6 2 10 4 10 3 0 8 -4 11
-10z"/>
        <path d="M3730 6251 c0 -5 5 -13 10 -16 6 -3 10 -2 10 4 0 5 -4 13 -10 16 -5
3 -10 2 -10 -4z"/>
        <path d="M3465 6760 c-3 -5 -1 -10 4 -10 6 0 11 5 11 10 0 6 -2 10 -4 10 -3 0
-8 -4 -11 -10z"/>
        <path d="M3110 6710 c0 -5 5 -10 10 -10 6 0 10 5 10 10 0 6 -4 10 -10 10 -5 0
-10 -4 -10 -10z"/>
        <path d="M3560 6700 c0 -5 5 -10 10 -10 6 0 10 5 10 10 0 6 -4 10 -10 10 -5 0
-10 -4 -10 -10z"/>
        <path d="M4385 6700 c-3 -5 -1 -10 4 -10 6 0 11 5 11 10 0 6 -2 10 -4 10 -3 0
-8 -4 -11 -10z"/>
        <path d="M3180 6690 c-13 -8 -12 -10 3 -10 9 0 17 5 17 10 0 12 -1 12 -20 0z"/>
        <path d="M3470 6686 c0 -2 7 -6 15 -10 8 -3 15 -1 15 4 0 6 -7 10 -15 10 -8 0
-15 -2 -15 -4z"/>
        <path d="M3567 6667 c-3 -8 3 -14 16 -15 12 0 17 2 12 6 -6 4 -13 11 -16 15
-4 4 -9 2 -12 -6z"/>
        <path d="M3070 6659 c0 -5 5 -7 10 -4 6 3 10 8 10 11 0 2 -4 4 -10 4 -5 0 -10
-5 -10 -11z"/>
        <path d="M3698 6638 c-27 -33 -22 -42 7 -14 14 14 25 28 25 31 0 12 -16 3 -32
-17z"/>
        <path d="M3420 6640 c0 -6 4 -9 9 -6 5 4 12 1 14 -4 3 -6 4 -5 3 2 -3 15 -26
23 -26 8z"/>
        <path d="M3875 6641 c-3 -5 -1 -12 5 -16 5 -3 10 1 10 9 0 18 -6 21 -15 7z"/>
        <path d="M3520 6628 c0 -11 28 -10 35 1 3 6 -4 9 -15 8 -11 -1 -20 -5 -20 -9z"/>
        <path d="M3460 6603 c0 -17 15 -16 30 1 9 12 8 15 -9 13 -12 -1 -21 -7 -21
-14z"/>
        <path d="M3630 6608 c0 -24 11 -48 21 -48 12 0 6 37 -9 52 -9 9 -12 8 -12 -4z"/>
        <path d="M4160 6610 c0 -5 5 -10 11 -10 5 0 7 5 4 10 -3 6 -8 10 -11 10 -2 0
-4 -4 -4 -10z"/>
        <path d="M3570 6601 c0 -6 9 -9 19 -8 11 0 17 5 15 9 -7 11 -34 10 -34 -1z"/>
        <path d="M3510 6593 c0 -15 19 -37 26 -31 3 4 -1 14 -10 23 -9 9 -16 13 -16 8z"/>
        <path d="M3235 6580 c3 -5 8 -10 11 -10 2 0 4 5 4 10 0 6 -5 10 -11 10 -5 0
-7 -4 -4 -10z"/>
        <path d="M3267 6583 c-11 -10 -8 -20 7 -26 10 -4 12 0 9 14 -6 21 -7 22 -16
12z"/>
        <path d="M3295 6580 c-3 -5 1 -10 9 -10 9 0 16 5 16 10 0 6 -4 10 -9 10 -6 0
-13 -4 -16 -10z"/>
        <path d="M3815 6580 c-3 -5 -1 -10 4 -10 6 0 11 5 11 10 0 6 -2 10 -4 10 -3 0
-8 -4 -11 -10z"/>
        <path d="M3773 6569 c9 -6 15 -14 13 -18 -3 -4 4 -12 15 -19 11 -7 19 -8 19
-2 0 5 -5 10 -12 10 -6 0 -8 3 -5 7 7 7 -22 32 -38 32 -5 0 -2 -4 8 -10z"/>
        <path d="M3417 6563 c-5 -7 -5 -18 -1 -25 5 -8 2 -9 -11 -4 -15 5 -16 4 -5 -9
12 -15 14 -15 22 0 12 20 6 56 -5 38z"/>
        <path d="M3445 6560 c-3 -5 -1 -10 4 -10 6 0 11 5 11 10 0 6 -2 10 -4 10 -3 0
-8 -4 -11 -10z"/>
        <path d="M3474 6555 c4 -24 16 -30 16 -7 0 12 -4 22 -9 22 -5 0 -8 -7 -7 -15z"/>
        <path d="M3563 6563 c4 -6 3 -13 -2 -15 -5 -1 -3 -9 5 -16 12 -11 13 -9 11 7
-2 11 -7 24 -12 28 -4 5 -5 3 -2 -4z"/>
        <path d="M3615 6561 c-3 -5 -1 -12 5 -16 5 -3 10 1 10 9 0 18 -6 21 -15 7z"/>
        <path d="M4015 6560 c3 -5 8 -10 11 -10 2 0 4 5 4 10 0 6 -5 10 -11 10 -5 0
-7 -4 -4 -10z"/>
        <path d="M3120 6545 c-9 -10 -9 -15 -1 -15 6 0 11 4 11 10 0 5 7 7 15 4 8 -4
15 -1 15 5 0 16 -25 13 -40 -4z"/>
        <path d="M3680 6545 c0 -8 4 -15 8 -15 5 0 9 7 9 15 0 8 -4 15 -9 15 -4 0 -8
-7 -8 -15z"/>
        <path d="M3716 6545 c4 -8 10 -12 15 -9 14 8 10 24 -6 24 -9 0 -12 -6 -9 -15z"/>
        <path d="M3940 6550 c0 -5 5 -10 10 -10 6 0 10 5 10 10 0 6 -4 10 -10 10 -5 0
-10 -4 -10 -10z"/>
        <path d="M3830 6538 c0 -11 12 -10 30 2 12 7 10 9 -8 7 -12 0 -22 -5 -22 -9z"/>
        <path d="M4060 6536 c0 -8 5 -18 10 -21 6 -3 10 1 10 9 0 8 -4 18 -10 21 -5 3
-10 -1 -10 -9z"/>
        <path d="M4291 6534 c0 -11 3 -14 6 -6 3 7 2 16 -1 19 -3 4 -6 -2 -5 -13z"/>
        <path d="M3270 6520 c-18 -33 -3 -37 28 -7 14 15 21 27 14 27 -6 0 -12 -6 -12
-12 0 -10 -3 -9 -9 1 -7 11 -11 9 -21 -9z"/>
        <path d="M3611 6514 c0 -11 3 -14 6 -6 3 7 2 16 -1 19 -3 4 -6 -2 -5 -13z"/>
        <path d="M3940 6520 c0 -4 7 -10 15 -14 8 -3 15 -10 15 -16 0 -6 -4 -8 -10 -5
-5 3 -10 1 -10 -4 0 -6 6 -11 14 -11 15 0 29 27 21 40 -7 11 -45 20 -45 10z"/>
        <path d="M3146 6512 c-10 -9 -6 -23 4 -17 6 3 13 -1 16 -9 8 -22 20 -20 20 3
0 19 -29 35 -40 23z"/>
        <path d="M3537 6509 c7 -7 15 -10 18 -7 3 3 -2 9 -12 12 -14 6 -15 5 -6 -5z"/>
        <path d="M3900 6506 c0 -8 5 -18 10 -21 6 -3 10 1 10 9 0 8 -4 18 -10 21 -5 3
-10 -1 -10 -9z"/>
        <path d="M4010 6505 c-11 -13 -10 -14 4 -9 9 3 16 10 16 15 0 13 -6 11 -20 -6z"/>
        <path d="M4090 6504 c0 -14 3 -14 15 -4 8 7 15 14 15 16 0 2 -7 4 -15 4 -8 0
-15 -7 -15 -16z"/>
        <path d="M4395 6510 c3 -5 8 -10 11 -10 2 0 4 5 4 10 0 6 -5 10 -11 10 -5 0
-7 -4 -4 -10z"/>
        <path d="M3350 6499 c0 -5 -6 -7 -12 -3 -10 5 -10 4 -2 -5 11 -12 44 -5 44 10
0 5 -7 9 -15 9 -8 0 -15 -5 -15 -11z"/>
        <path d="M3455 6490 c3 -5 2 -10 -3 -10 -14 0 -10 -29 5 -34 7 -3 12 -2 12 2
-3 20 2 33 11 27 6 -3 7 1 4 9 -3 9 -13 16 -21 16 -8 0 -11 -4 -8 -10z"/>
        <path d="M3796 6485 c4 -8 8 -15 10 -15 2 0 4 7 4 15 0 8 -4 15 -10 15 -5 0
-7 -7 -4 -15z"/>
        <path d="M3820 6490 c0 -5 5 -10 10 -10 6 0 10 5 10 10 0 6 -4 10 -10 10 -5 0
-10 -4 -10 -10z"/>
        <path d="M3636 6475 c-7 -19 5 -19 30 0 19 14 19 14 -2 15 -12 0 -24 -7 -28
-15z"/>
        <path d="M4190 6472 c0 -10 7 -19 14 -19 11 0 13 5 5 19 -5 10 -12 18 -14 18
-3 0 -5 -8 -5 -18z"/>
        <path d="M3275 6470 c3 -5 8 -10 11 -10 2 0 4 5 4 10 0 6 -5 10 -11 10 -5 0
-7 -4 -4 -10z"/>
        <path d="M3386 6465 c-3 -8 -1 -15 4 -15 6 0 10 7 10 15 0 8 -2 15 -4 15 -2 0
-6 -7 -10 -15z"/>
        <path d="M3848 6468 c-7 -4 -8 -8 -3 -8 6 0 20 -3 33 -6 17 -5 21 -3 17 8 -6
16 -27 19 -47 6z"/>
        <path d="M4059 6463 c-13 -16 -12 -17 4 -4 9 7 17 15 17 17 0 8 -8 3 -21 -13z"/>
        <path d="M3328 6459 c-22 -12 -23 -35 -3 -43 8 -3 15 -1 15 5 0 6 6 9 13 6 10
-4 13 2 9 19 -5 27 -9 28 -34 13z m7 -19 c3 -5 1 -10 -4 -10 -6 0 -11 5 -11
10 0 6 2 10 4 10 3 0 8 -4 11 -10z"/>
        <path d="M4020 6460 c0 -5 -8 -10 -17 -11 -11 0 -13 -3 -5 -6 6 -2 10 -8 7
-13 -3 -5 4 -11 15 -15 19 -6 24 -16 21 -42 -1 -7 5 -10 13 -7 17 7 56 -12 56
-27 0 -6 -7 -3 -16 5 -17 17 -34 21 -34 8 0 -15 -41 -53 -51 -47 -5 4 -9 1 -9
-5 0 -6 -5 -8 -11 -5 -5 4 -19 -1 -30 -11 -16 -15 -19 -15 -19 -1 0 8 -3 23
-7 33 -4 11 -2 15 4 11 5 -4 15 5 22 19 7 16 16 22 24 18 6 -4 8 -3 4 2 -4 4
-27 9 -49 10 -38 1 -40 0 -23 -12 10 -8 13 -14 6 -14 -7 0 -9 -5 -5 -12 4 -6
9 -32 10 -57 1 -25 3 -49 3 -53 1 -5 9 -8 19 -8 21 0 46 46 28 54 -6 3 -2 5 9
3 20 -2 32 5 77 47 14 13 23 15 31 7 18 -18 27 -13 25 15 -2 19 -9 27 -31 31
-20 4 -25 8 -15 14 10 7 11 9 0 9 -7 0 -10 4 -7 10 3 5 0 8 -7 5 -7 -3 -20 0
-28 5 -12 8 -13 13 -2 30 7 12 8 20 2 20 -5 0 -10 -4 -10 -10z"/>
        <path d="M4106 6455 c-3 -8 -1 -15 4 -15 6 0 10 7 10 15 0 8 -2 15 -4 15 -2 0
-6 -7 -10 -15z"/>
        <path d="M3235 6450 c-3 -5 -1 -10 4 -10 6 0 11 5 11 10 0 6 -2 10 -4 10 -3 0
-8 -4 -11 -10z"/>
        <path d="M4270 6450 c0 -5 5 -10 11 -10 5 0 7 5 4 10 -3 6 -8 10 -11 10 -2 0
-4 -4 -4 -10z"/>
        <path d="M3786 6432 c-3 -5 1 -9 9 -9 8 0 15 4 15 9 0 4 -4 8 -9 8 -6 0 -12
-4 -15 -8z"/>
        <path d="M4075 6430 c3 -5 8 -10 11 -10 2 0 4 5 4 10 0 6 -5 10 -11 10 -5 0
-7 -4 -4 -10z"/>
        <path d="M4315 6430 c-3 -5 -1 -10 4 -10 6 0 11 5 11 10 0 6 -2 10 -4 10 -3 0
-8 -4 -11 -10z"/>
        <path d="M4353 6425 c-6 -6 -8 -18 -3 -24 5 -9 9 -5 13 10 7 28 6 31 -10 14z"/>
        <path d="M3915 6420 c-3 -5 -1 -10 4 -10 6 0 11 5 11 10 0 6 -2 10 -4 10 -3 0
-8 -4 -11 -10z"/>
        <path d="M3945 6419 c-11 -17 1 -21 15 -4 8 9 8 15 2 15 -6 0 -14 -5 -17 -11z"/>
        <path d="M3860 6405 c-17 -20 -11 -25 18 -14 13 5 20 13 17 19 -9 14 -21 12
-35 -5z"/>
        <path d="M4000 6355 c0 -8 8 -15 18 -14 10 0 12 3 4 6 -6 2 -10 9 -6 14 3 5 0
9 -5 9 -6 0 -11 -7 -11 -15z"/>
        <path d="M4203 6355 c0 -8 4 -15 9 -15 4 0 8 7 8 15 0 8 -4 15 -8 15 -5 0 -9
-7 -9 -15z"/>
        <path d="M4430 6358 c0 -18 18 -34 28 -24 3 4 -2 14 -11 23 -16 16 -17 16 -17
1z"/>
        <path d="M4540 6355 c0 -8 4 -15 10 -15 5 0 7 7 4 15 -4 8 -8 15 -10 15 -2 0
-4 -7 -4 -15z"/>
        <path d="M4477 6339 c7 -7 15 -10 18 -7 3 3 -2 9 -12 12 -14 6 -15 5 -6 -5z"/>
        <path d="M3866 6325 c4 -8 10 -12 15 -9 11 6 2 24 -11 24 -5 0 -7 -7 -4 -15z"/>
        <path d="M4118 6316 c-10 -7 -18 -18 -18 -25 0 -15 6 -14 30 6 33 29 23 46
-12 19z"/>
        <path d="M4255 6321 c-3 -6 3 -9 14 -8 11 0 17 5 15 9 -7 11 -22 10 -29 -1z"/>
        <path d="M4332 6311 c7 -11 16 -17 20 -15 5 3 2 12 -6 20 -21 20 -28 17 -14
-5z"/>
        <path d="M3840 6309 c0 -5 5 -7 10 -4 6 3 10 8 10 11 0 2 -4 4 -10 4 -5 0 -10
-5 -10 -11z"/>
        <path d="M4157 6304 c-3 -4 1 -13 9 -21 11 -11 12 -19 4 -28 -8 -9 -6 -14 4
-18 21 -8 27 5 16 39 -4 16 -9 25 -9 19 -1 -5 -5 -4 -9 3 -5 7 -11 9 -15 6z"/>
        <path d="M4210 6275 c0 -9 6 -12 17 -8 11 4 14 3 9 -5 -4 -7 -3 -12 3 -12 20
0 21 19 2 29 -26 14 -31 14 -31 -4z"/>
        <path d="M4457 6283 c-11 -11 -8 -20 7 -20 8 0 12 6 9 14 -6 15 -7 15 -16 6z"/>
        <path d="M4075 6264 c9 -9 19 -13 23 -10 3 4 0 11 -8 16 -24 15 -33 11 -15 -6z"/>
        <path d="M4405 6270 c-3 -6 1 -7 9 -4 18 7 21 14 7 14 -6 0 -13 -4 -16 -10z"/>
        <path d="M4365 6250 c3 -5 11 -10 16 -10 6 0 7 5 4 10 -3 6 -11 10 -16 10 -6
0 -7 -4 -4 -10z"/>
        <path d="M4006 6235 c-3 -8 -1 -15 4 -15 6 0 10 7 10 15 0 8 -2 15 -4 15 -2 0
-6 -7 -10 -15z"/>
        <path d="M4115 6237 c-4 -10 -13 -16 -21 -13 -8 3 -12 -2 -11 -15 1 -10 8 -18
15 -16 11 1 29 -17 38 -41 1 -1 9 0 18 4 20 8 21 34 1 34 -20 0 -19 10 3 27
16 13 15 14 -5 8 -15 -4 -23 -1 -26 12 -4 17 -4 17 -12 0z"/>
        <path d="M4175 6209 c-10 -15 3 -25 16 -12 7 7 7 13 1 17 -6 3 -14 1 -17 -5z"/>
        <path d="M4220 6209 c0 -5 5 -7 10 -4 6 3 10 8 10 11 0 2 -4 4 -10 4 -5 0 -10
-5 -10 -11z"/>
        <path d="M4260 6214 c0 -12 34 -64 42 -64 14 0 8 28 -7 34 -8 3 -15 12 -15 21
0 8 -4 15 -10 15 -5 0 -10 -3 -10 -6z"/>
        <path d="M4380 6209 c0 -5 7 -9 15 -9 9 0 12 -6 9 -17 -5 -15 -4 -16 5 -3 15
21 14 27 -9 33 -11 3 -20 1 -20 -4z"/>
        <path d="M4247 6183 c4 -11 3 -14 -5 -9 -8 5 -10 2 -5 -9 5 -13 7 -14 14 -3
12 18 11 38 -1 38 -5 0 -6 -7 -3 -17z"/>
        <path d="M4308 6193 c7 -3 16 -2 19 1 4 3 -2 6 -13 5 -11 0 -14 -3 -6 -6z"/>
        <path d="M4183 6159 c-1 -10 2 -19 8 -19 11 0 12 27 1 34 -4 2 -9 -4 -9 -15z"/>
        <path d="M4331 6164 c0 -11 3 -14 6 -6 3 7 2 16 -1 19 -3 4 -6 -2 -5 -13z"/>
        <path d="M4570 6130 c-9 -6 -10 -10 -3 -10 6 0 15 5 18 10 8 12 4 12 -15 0z"/>
        <path d="M4490 6083 c0 -8 5 -13 12 -11 18 6 21 25 3 25 -8 0 -15 -7 -15 -14z"/>
        <path d="M4522 6075 c-9 -19 -8 -23 1 -19 7 2 13 13 14 24 2 26 -1 25 -15 -5z"/>
        <path d="M4600 6055 c-6 -8 -9 -19 -5 -25 11 -18 20 -11 20 15 0 29 1 29 -15
10z"/>
        <path d="M4485 6050 c-3 -5 -1 -10 4 -10 6 0 11 5 11 10 0 6 -2 10 -4 10 -3 0
-8 -4 -11 -10z"/>
        <path d="M4470 6021 c0 -5 7 -11 14 -14 10 -4 13 -1 9 9 -6 15 -23 19 -23 5z"/>
        <path d="M4530 6017 c0 -4 7 -24 15 -44 12 -29 13 -38 3 -45 -10 -6 -9 -8 2
-8 8 0 22 5 30 10 9 6 11 10 3 10 -7 0 -10 7 -7 15 4 10 0 15 -11 15 -14 0
-15 3 -6 14 8 10 9 16 1 21 -5 3 -10 3 -10 -2 0 -4 -5 -1 -10 7 -5 8 -10 11
-10 7z"/>
        <path d="M4630 6009 c0 -5 5 -7 10 -4 6 3 10 8 10 11 0 2 -4 4 -10 4 -5 0 -10
-5 -10 -11z"/>
        <path d="M4660 5970 c0 -5 7 -7 15 -4 8 4 15 8 15 10 0 2 -7 4 -15 4 -8 0 -15
-4 -15 -10z"/>
        <path d="M4637 5949 c7 -7 15 -10 18 -7 3 3 -2 9 -12 12 -14 6 -15 5 -6 -5z"/>
        <path d="M4600 5930 c0 -5 5 -10 10 -10 6 0 10 5 10 10 0 6 -4 10 -10 10 -5 0
-10 -4 -10 -10z"/>
        <path d="M4785 5929 c-4 -6 -5 -12 -2 -15 2 -3 7 2 10 11 7 17 1 20 -8 4z"/>
        <path d="M4540 5890 c0 -6 -6 -8 -12 -4 -10 6 -10 4 0 -7 9 -9 15 -10 23 -2 8
8 8 13 0 17 -6 4 -11 2 -11 -4z"/>
        <path d="M4945 5880 c-3 -5 -1 -10 4 -10 6 0 11 5 11 10 0 6 -2 10 -4 10 -3 0
-8 -4 -11 -10z"/>
        <path d="M4460 5799 c0 -5 5 -7 10 -4 6 3 10 8 10 11 0 2 -4 4 -10 4 -5 0 -10
-5 -10 -11z"/>
        <path d="M4650 5800 c0 -17 17 -47 23 -40 2 3 -2 16 -10 30 -7 14 -13 18 -13
10z"/>
        <path d="M4557 5793 c-12 -11 -8 -23 8 -23 8 0 15 7 15 15 0 16 -12 20 -23 8z"/>
        <path d="M4451 5771 c-8 -6 -9 -11 -3 -15 6 -3 14 -1 17 5 9 14 2 20 -14 10z"/>
        <path d="M4603 5743 c-15 -5 -17 -23 -4 -23 5 0 11 7 15 15 3 8 4 15 3 14 -1
0 -8 -3 -14 -6z"/>
        <path d="M4705 5740 c3 -5 8 -10 11 -10 2 0 4 5 4 10 0 6 -5 10 -11 10 -5 0
-7 -4 -4 -10z"/>
        <path d="M4527 5733 c-12 -12 -7 -22 16 -34 21 -12 21 -11 4 8 -9 11 -14 23
-10 26 3 4 4 7 1 7 -2 0 -8 -3 -11 -7z"/>
        <path d="M4620 5720 c0 -5 5 -10 10 -10 6 0 10 5 10 10 0 6 -4 10 -10 10 -5 0
-10 -4 -10 -10z"/>
        <path d="M4870 5690 c0 -5 5 -10 10 -10 6 0 10 5 10 10 0 6 -4 10 -10 10 -5 0
-10 -4 -10 -10z"/>
        <path d="M4955 5680 c-3 -5 -1 -10 4 -10 6 0 11 5 11 10 0 6 -2 10 -4 10 -3 0
-8 -4 -11 -10z"/>
        <path d="M4650 5671 c0 -5 7 -11 14 -14 10 -4 13 -1 9 9 -6 15 -23 19 -23 5z"/>
        <path d="M4560 5651 c0 -5 6 -11 13 -14 8 -3 14 1 14 9 0 8 -6 14 -14 14 -7 0
-13 -4 -13 -9z"/>
        <path d="M4622 5638 c5 -15 37 -18 41 -3 1 6 -9 12 -22 13 -16 3 -22 -1 -19
-10z"/>
        <path d="M4615 5600 c-3 -5 -2 -10 4 -10 5 0 13 5 16 10 3 6 2 10 -4 10 -5 0
-13 -4 -16 -10z"/>
        <path d="M4737 5565 c3 -8 9 -12 14 -9 12 7 11 11 -5 17 -10 4 -13 1 -9 -8z"/>
        <path d="M4786 5555 c4 -8 8 -15 10 -15 2 0 4 7 4 15 0 8 -4 15 -10 15 -5 0
-7 -7 -4 -15z"/>
        <path d="M4565 5531 c-3 -5 -1 -12 4 -15 5 -3 11 1 15 9 6 16 -9 21 -19 6z"/>
        <path d="M4600 5522 c0 -7 5 -12 10 -12 6 0 10 -7 10 -15 0 -8 -5 -14 -12 -12
-6 1 -13 -7 -15 -18 -1 -11 0 -14 3 -7 3 6 14 12 23 12 23 0 23 25 -1 47 -11
9 -18 11 -18 5z"/>
        <path d="M4524 5485 c8 -21 -3 -45 -21 -45 -13 0 -13 3 -3 15 14 16 3 20 -19
6 -7 -5 -11 -13 -8 -18 3 -5 -3 -20 -14 -33 -11 -14 -17 -17 -13 -8 4 13 1 15
-14 11 -14 -3 -18 -11 -15 -24 6 -22 8 -22 34 -9 10 6 19 18 19 27 0 12 3 13
15 3 8 -6 19 -9 26 -5 8 6 7 10 -2 16 -11 7 -9 9 7 9 11 0 25 -5 32 -12 9 -9
12 -8 12 6 0 9 -4 15 -9 11 -5 -3 -13 0 -17 6 -3 6 -1 14 5 18 13 9 4 41 -11
41 -6 0 -8 -7 -4 -15z"/>
        <path d="M4825 5477 c-4 -10 -5 -21 -1 -24 10 -10 18 4 13 24 -4 17 -4 17 -12
0z"/>
        <path d="M4715 5460 c-3 -5 -1 -10 4 -10 6 0 11 5 11 10 0 6 -2 10 -4 10 -3 0
-8 -4 -11 -10z"/>
        <path d="M4386 5372 c8 -32 4 -28 32 -36 16 -6 22 -3 22 8 0 9 -7 16 -15 16
-8 0 -15 6 -15 14 0 8 -7 16 -15 20 -12 4 -14 0 -9 -22z"/>
        <path d="M4657 5369 c7 -7 15 -10 18 -7 3 3 -2 9 -12 12 -14 6 -15 5 -6 -5z"/>
        <path d="M4946 5365 c-3 -9 0 -15 8 -15 7 0 13 7 13 15 0 8 -4 15 -8 15 -4 0
-9 -7 -13 -15z"/>
        <path d="M4516 5335 c-16 -12 -17 -18 -8 -27 9 -9 12 -9 12 1 0 7 5 9 10 6 6
-4 8 -10 5 -15 -7 -11 12 -51 29 -62 23 -16 28 -7 7 11 -14 12 -19 25 -15 36
5 12 1 23 -10 31 -10 7 -15 17 -11 23 8 14 4 13 -19 -4z"/>
        <path d="M4653 5343 c-15 -5 -17 -23 -4 -23 5 0 11 7 15 15 3 8 4 15 3 14 -1
0 -8 -3 -14 -6z"/>
        <path d="M4330 5320 c0 -5 5 -10 11 -10 5 0 7 5 4 10 -3 6 -8 10 -11 10 -2 0
-4 -4 -4 -10z"/>
        <path d="M4750 5309 c0 -5 5 -7 10 -4 6 3 10 8 10 11 0 2 -4 4 -10 4 -5 0 -10
-5 -10 -11z"/>
        <path d="M4330 5290 c-8 -5 -10 -10 -5 -10 6 0 17 5 25 10 8 5 11 10 5 10 -5
0 -17 -5 -25 -10z"/>
        <path d="M4595 5290 c3 -5 8 -10 11 -10 2 0 4 5 4 10 0 6 -5 10 -11 10 -5 0
-7 -4 -4 -10z"/>
        <path d="M4470 5235 c0 -11 -3 -31 -7 -45 -6 -22 -5 -24 10 -11 9 7 15 17 12
21 -3 5 1 10 7 13 10 3 8 9 -4 23 -17 18 -18 18 -18 -1z"/>
        <path d="M4552 5204 c2 -10 -4 -19 -12 -21 -12 -4 -12 -3 -2 5 11 7 9 10 -7
15 -24 6 -27 -5 -6 -23 21 -17 54 -4 48 20 -6 24 -25 27 -21 4z"/>
        <path d="M4610 5216 c0 -2 7 -7 16 -10 8 -3 12 -2 9 4 -6 10 -25 14 -25 6z"/>
        <path d="M5350 5209 c0 -5 5 -7 10 -4 6 3 10 8 10 11 0 2 -4 4 -10 4 -5 0 -10
-5 -10 -11z"/>
        <path d="M4589 5193 c-10 -71 -1 -93 19 -48 15 32 15 38 2 30 -6 -3 -7 1 -4 9
3 9 1 16 -5 16 -6 0 -11 -3 -12 -7z"/>
        <path d="M4475 5140 c-3 -5 -2 -10 4 -10 5 0 13 5 16 10 3 6 2 10 -4 10 -5 0
-13 -4 -16 -10z"/>
        <path d="M4524 5132 c-9 -5 -8 -10 2 -19 8 -8 15 -9 19 -3 3 6 1 10 -5 10 -6
0 -8 5 -5 10 7 12 4 12 -11 2z"/>
        <path d="M4249 5103 c-8 -9 -9 -14 -3 -10 7 4 15 -1 19 -11 6 -16 7 -16 16 1
19 33 -8 50 -32 20z"/>
        <path d="M4465 5110 c-3 -5 -2 -10 4 -10 5 0 13 5 16 10 3 6 2 10 -4 10 -5 0
-13 -4 -16 -10z"/>
        <path d="M4636 5097 c3 -10 9 -15 12 -12 3 3 0 11 -7 18 -10 9 -11 8 -5 -6z"/>
        <path d="M4695 5100 c3 -5 8 -10 11 -10 2 0 4 5 4 10 0 6 -5 10 -11 10 -5 0
-7 -4 -4 -10z"/>
        <path d="M4495 5090 c-3 -5 -1 -10 4 -10 6 0 11 5 11 10 0 6 -2 10 -4 10 -3 0
-8 -4 -11 -10z"/>
        <path d="M4615 5030 c-8 -13 4 -32 16 -25 12 8 12 35 0 35 -6 0 -13 -4 -16
-10z"/>
        <path d="M4391 5008 c5 -10 12 -18 14 -18 3 0 5 8 5 18 0 10 -7 19 -14 19 -11
0 -13 -5 -5 -19z"/>
        <path d="M4548 5003 c7 -3 16 -2 19 1 4 3 -2 6 -13 5 -11 0 -14 -3 -6 -6z"/>
        <path d="M4487 4994 c-8 -8 1 -24 12 -24 4 0 8 7 8 15 0 16 -9 20 -20 9z"/>
        <path d="M4303 4983 c-18 -6 -16 -33 1 -33 8 0 17 4 20 8 7 12 -7 30 -21 25z"/>
        <path d="M4555 4981 c-3 -5 -1 -12 5 -16 5 -3 10 1 10 9 0 18 -6 21 -15 7z"/>
        <path d="M4440 4955 c0 -8 4 -15 10 -15 5 0 7 7 4 15 -4 8 -8 15 -10 15 -2 0
-4 -7 -4 -15z"/>
        <path d="M4780 4960 c0 -5 5 -10 10 -10 6 0 10 5 10 10 0 6 -4 10 -10 10 -5 0
-10 -4 -10 -10z"/>
        <path d="M4260 4953 c0 -17 19 -37 27 -29 4 5 2 11 -5 13 -6 3 -10 9 -6 14 3
5 0 9 -5 9 -6 0 -11 -3 -11 -7z"/>
        <path d="M4355 4940 c-3 -5 -1 -10 4 -10 6 0 11 5 11 10 0 6 -2 10 -4 10 -3 0
-8 -4 -11 -10z"/>
        <path d="M4680 4931 c0 -5 5 -13 10 -16 6 -3 10 -2 10 4 0 5 -4 13 -10 16 -5
3 -10 2 -10 -4z"/>
        <path d="M4305 4920 c4 -6 9 -8 13 -6 4 2 13 -2 20 -10 11 -12 9 -16 -10 -23
-13 -6 -17 -10 -9 -10 8 -1 23 7 33 16 17 15 21 15 29 3 9 -13 10 -13 6 0 -2
8 -12 15 -22 15 -10 0 -20 6 -23 13 -2 6 -13 12 -23 12 -11 0 -17 -5 -14 -10z"/>
        <path d="M4915 4910 c-3 -5 -1 -10 4 -10 6 0 11 5 11 10 0 6 -2 10 -4 10 -3 0
-8 -4 -11 -10z"/>
        <path d="M4273 4903 c4 -3 1 -13 -6 -21 -10 -13 -9 -14 11 -3 22 12 22 31 0
31 -6 0 -8 -3 -5 -7z"/>
        <path d="M2305 4890 c-3 -5 -1 -10 4 -10 6 0 11 5 11 10 0 6 -2 10 -4 10 -3 0
-8 -4 -11 -10z"/>
        <path d="M4470 4870 c0 -5 5 -10 10 -10 6 0 10 5 10 10 0 6 -4 10 -10 10 -5 0
-10 -4 -10 -10z"/>
        <path d="M4278 4863 c-10 -2 -18 -11 -18 -19 0 -8 -5 -14 -10 -14 -7 0 -7 -6
0 -19 6 -13 7 -22 0 -26 -5 -3 -6 -13 -3 -22 6 -15 7 -15 13 2 7 19 40 31 40
14 0 -5 7 -9 15 -9 27 0 4 28 -28 34 -18 4 -27 10 -22 14 9 6 39 54 33 51 -2
-1 -11 -3 -20 -6z"/>
        <path d="M4180 4841 c0 -4 7 -14 15 -21 10 -8 15 -25 13 -43 -2 -18 2 -32 10
-34 9 -4 11 2 6 21 -4 16 -2 26 5 26 6 0 8 6 5 14 -7 18 -54 50 -54 37z"/>
        <path d="M4483 4773 c-7 -2 -13 -9 -13 -15 0 -7 5 -7 13 1 8 6 17 8 20 4 4 -3
7 -1 7 5 0 13 -7 14 -27 5z"/>
        <path d="M2580 4760 c0 -5 5 -10 10 -10 6 0 10 5 10 10 0 6 -4 10 -10 10 -5 0
-10 -4 -10 -10z"/>
        <path d="M2575 4710 c3 -5 8 -10 11 -10 2 0 4 5 4 10 0 6 -5 10 -11 10 -5 0
-7 -4 -4 -10z"/>
        <path d="M2732 4656 c7 -8 15 -12 17 -11 5 6 -10 25 -20 25 -5 0 -4 -6 3 -14z"/>
        <path d="M4256 4641 c-8 -13 21 -34 39 -27 8 3 15 11 15 18 0 10 -2 10 -9 0
-7 -11 -11 -10 -24 2 -9 9 -18 12 -21 7z"/>
        <path d="M2850 4606 c0 -4 7 -14 15 -22 8 -9 15 -11 15 -6 0 5 -7 15 -15 22
-8 7 -15 9 -15 6z"/>
        <path d="M1106 4548 c-11 -30 -26 -163 -32 -269 -8 -132 7 -319 37 -463 166
-807 846 -1432 1676 -1541 63 -8 118 -15 124 -15 5 0 9 -119 9 -305 0 -292 1
-306 20 -325 28 -28 64 -25 89 6 20 26 21 38 21 325 l0 299 45 0 45 0 0 -548
c0 -610 -2 -592 65 -592 67 0 65 -19 65 597 l0 552 38 6 c455 73 804 242 1111
540 177 171 299 339 401 550 65 134 126 304 113 314 -4 4 -100 29 -213 54
-317 72 -1437 327 -2248 512 -403 92 -735 165 -738 162 -3 -3 10 -49 28 -103
l33 -99 85 -1 c93 -1 163 -22 232 -70 53 -37 86 -82 143 -193 78 -152 183
-290 393 -517 67 -73 122 -136 122 -139 0 -10 -43 16 -118 72 -153 114 -375
348 -479 504 l-46 70 -28 -27 -28 -27 21 -41 c71 -139 202 -301 437 -538 107
-109 190 -198 183 -198 -21 0 -189 120 -297 212 -166 143 -366 362 -424 465
-9 17 -11 16 -35 -6 -14 -14 -26 -29 -26 -35 0 -21 83 -146 164 -247 100 -125
254 -282 434 -443 73 -65 130 -121 128 -124 -10 -9 -165 91 -284 183 -185 143
-433 392 -524 525 l-16 25 -28 -27 -28 -28 21 -37 c102 -179 402 -488 725
-748 48 -38 83 -71 78 -73 -27 -9 -250 134 -421 269 -131 104 -340 308 -430
419 -119 147 -172 284 -171 440 0 98 26 181 73 235 l29 32 -44 104 c-23 57
-51 129 -61 159 -10 30 -18 56 -19 57 -1 1 -94 23 -206 48 -113 25 -213 49
-223 51 -9 3 -19 -1 -21 -8z"/>
        <path d="M2820 4550 c0 -5 5 -10 11 -10 5 0 7 5 4 10 -3 6 -8 10 -11 10 -2 0
-4 -4 -4 -10z"/>
        <path d="M2903 4508 c-2 -16 1 -18 10 -9 7 7 8 14 1 21 -6 6 -10 2 -11 -12z"/>
        <path d="M2765 4470 c3 -5 8 -10 11 -10 2 0 4 5 4 10 0 6 -5 10 -11 10 -5 0
-7 -4 -4 -10z"/>
        <path d="M2910 4470 c0 -5 5 -10 10 -10 6 0 10 5 10 10 0 6 -4 10 -10 10 -5 0
-10 -4 -10 -10z"/>
        <path d="M2835 4441 c-3 -5 -1 -12 5 -16 5 -3 10 1 10 9 0 18 -6 21 -15 7z"/>
        <path d="M3156 4433 c-6 -14 -5 -15 5 -6 7 7 10 15 7 18 -3 3 -9 -2 -12 -12z"/>
        <path d="M4278 4443 c7 -3 16 -2 19 1 4 3 -2 6 -13 5 -11 0 -14 -3 -6 -6z"/>
        <path d="M3346 4246 c3 -9 11 -16 16 -16 13 0 5 23 -10 28 -7 2 -10 -2 -6 -12z"/>
        <path d="M3990 4250 c0 -5 5 -10 10 -10 6 0 10 5 10 10 0 6 -4 10 -10 10 -5 0
-10 -4 -10 -10z"/>
        <path d="M3950 4220 c0 -5 5 -10 10 -10 6 0 10 5 10 10 0 6 -4 10 -10 10 -5 0
-10 -4 -10 -10z"/>
        <path d="M3660 4060 c0 -5 5 -10 10 -10 6 0 10 5 10 10 0 6 -4 10 -10 10 -5 0
-10 -4 -10 -10z"/>
    </g>
</svg>
