<svg xmlns="http://www.w3.org/2000/svg" width="430" height="430" viewBox="0 0 430 430">
    <defs>
        <style>
            .cls-1{fill:none}.cls-2{fill:#31595d}.cls-3{fill:#d7eff1}.cls-4{fill:#457d82}.cls-5{fill:#4f8f95}.cls-6{fill:#62b2ba}.cls-7{fill:#e8178a}.cls-8{fill:#f39000}.cls-9{fill:#bc0067}.cls-10{fill:#a3c831}.cls-11{fill:#8cb119}.cls-12{fill:#708e14}.cls-13{fill:#bfd96f}.cls-14{fill:#e3efc1}.cls-15{fill:#7ea017}.cls-16{fill:#546a0f}.cls-17{fill:#9ac31c}.cls-18{fill:#9b5c00}
        </style>
    </defs>
    <g id="grp_-_goal" data-name="grp - goal" transform="translate(-400 -1370)">
        <path id="Rectangle_164" d="M0 0h430v430H0z" class="cls-1" data-name="Rectangle 164"
              transform="translate(400 1370)"/>
        <g id="Group_158" data-name="Group 158" transform="translate(400 1407)">
            <ellipse id="Ellipse_169" cx="215" cy="7.394" class="cls-2" data-name="Ellipse 169" rx="215" ry="7.394"
                     transform="translate(0 341.793)"/>
            <g id="Group_138" data-name="Group 138" transform="translate(40.074)">
                <path id="Path_321"
                      d="M69.614 3.6C68.46 9.131 67.392 14.661 66.7 20.27c-6.317-1.234-12.652-2.354-19.031-3.22.84-5.591 2.459-11.095 3.771-16.59q9.11 1.496 18.174 3.14z"
                      class="cls-3" data-name="Path 321" transform="translate(-46.034 -.058)"/>
                <path id="Path_322"
                      d="M66.669 22.64c-.683 5.56-.893 11.16-1.042 16.76-5.836-1.155-11.663-2.2-17.561-2.949-.437-5.7-.962-11.313-.429-17.027 6.379.853 12.714 1.976 19.032 3.216z"
                      class="cls-2" data-name="Path 322" transform="translate(-46.002 -2.428)"/>
                <path id="Path_323"
                      d="M65.67 41.819q-.21 8.387-.464 16.773a157.082 157.082 0 0 0-17.456-2.984 84.267 84.267 0 0 0 .359-16.738c5.897.761 11.733 1.794 17.561 2.949z"
                      class="cls-3" data-name="Path 323" transform="translate(-46.044 -4.86)"/>
                <path id="Path_324"
                      d="M65.159 60.982c-.184 5.661-.14 11.331-.157 16.992q-8.269-1.8-16.651-2.949A62.116 62.116 0 0 1 47.7 57.99a157.106 157.106 0 0 1 17.459 2.992z"
                      class="cls-2" data-name="Path 324" transform="translate(-45.997 -7.25)"/>
                <path id="Path_325"
                      d="M65.045 80.409a320.557 320.557 0 0 1-.551 16.922c-5.556-1.225-11.13-2.371-16.773-3.106.787-5.74 1.444-10.99.674-16.765q8.385 1.155 16.65 2.949z"
                      class="cls-3" data-name="Path 325" transform="translate(-46.04 -9.684)"/>
                <path id="Path_326"
                      d="M64.445 99.736c-.315 5.6-.551 11.2-.962 16.8-5.136-1.216-10.316-2.214-15.548-2.94-.3-5.679-1.032-11.3-.262-16.966 5.642.726 11.227 1.881 16.772 3.106z"
                      class="cls-2" data-name="Path 326" transform="translate(-45.991 -12.081)"/>
                <path id="Path_327"
                      d="M63.291 118.951a115.631 115.631 0 0 1-2.476 16.6c-4.961-1.2-9.975-2.012-15.015-2.817a52.119 52.119 0 0 0 1.942-16.712c5.233.715 10.413 1.722 15.549 2.929z"
                      class="cls-3" data-name="Path 327" transform="translate(-45.8 -14.505)"/>
                <path id="Path_328"
                      d="M81.021 123.439c-.735 5.565-1.715 11.06-2.809 16.555a403.01 403.01 0 0 0-15.242-4.025 115.45 115.45 0 0 0 2.476-16.6c5.224 1.231 10.404 2.631 15.575 4.07z"
                      class="cls-2" data-name="Path 328" transform="translate(-47.947 -14.924)"/>
                <path id="Path_329"
                      d="M87.708 27.281A210.18 210.18 0 0 0 86.046 44c-5.906-1.514-11.83-2.975-17.806-4.156.149-5.6.35-11.191 1.041-16.756 6.178 1.218 12.311 2.671 18.427 4.193z"
                      class="cls-3" data-name="Path 329" transform="translate(-48.605 -2.887)"/>
                <path id="Path_330"
                      d="M90.638 8.25a314.266 314.266 0 0 0-2.782 16.66c-6.107-1.531-12.25-2.984-18.436-4.191.691-5.609 1.767-11.139 2.914-16.669 6.151 1.164 12.232 2.686 18.304 4.2z"
                      class="cls-2" data-name="Path 330" transform="translate(-48.753 -.506)"/>
                <path id="Path_331" d="M47.67 17.04c.84-5.591 2.459-11.095 3.771-16.59q9.1 1.509 18.173 3.15"
                      class="cls-1"
                      data-name="Path 331" transform="translate(-46.034 -.056)"/>
                <path id="Path_332"
                      d="M110.868 13.53c-.9 5.556-1.776 11.1-2.537 16.677A859.884 859.884 0 0 0 90.49 25.5a319.12 319.12 0 0 1 2.782-16.66q8.807 2.284 17.596 4.69z"
                      class="cls-3" data-name="Path 332" transform="translate(-51.387 -1.105)"/>
                <path id="Path_333"
                      d="M103.4 90.281c-.42 5.609-.919 11.208-1.417 16.817q-8.242-2.336-16.493-4.62c.525-5.617.831-11.243 1.076-16.878 5.626 1.5 11.234 3.08 16.834 4.681z"
                      class="cls-3" data-name="Path 333" transform="translate(-50.762 -10.702)"/>
                <path id="Path_334"
                      d="M101.747 109.51c-.49 5.6-1.181 11.217-1.934 16.782-5.4-1.566-10.8-3.167-16.213-4.664.735-5.565 1.137-11.147 1.654-16.738q8.255 2.271 16.493 4.62z"
                      class="cls-2" data-name="Path 334" transform="translate(-50.526 -13.113)"/>
                <path id="Path_335"
                      d="M99.412 128.684c-.779 5.539-1.741 11.042-2.564 16.572-5.486-1.549-10.972-3.124-16.458-4.681 1.1-5.5 2.074-10.99 2.809-16.555 5.416 1.496 10.814 3.097 16.213 4.664z"
                      class="cls-3" data-name="Path 335" transform="translate(-50.124 -15.505)"/>
                <path id="Path_336"
                      d="M118.59 134.057c-.612 5.565-1.461 11.095-2.292 16.633-5.722-1.487-11.41-3.159-17.1-4.769.822-5.53 1.785-11.033 2.564-16.572 5.593 1.62 11.193 3.251 16.828 4.708z"
                      class="cls-2" data-name="Path 336" transform="translate(-52.476 -16.171)"/>
                <path id="Path_337"
                      d="M125.953 57.177a1349.928 1349.928 0 0 0-1.47 16.835q-8.6-2.376-17.193-4.777c.394-5.609.717-11.235 1.286-16.835 5.793 1.575 11.567 3.229 17.377 4.777z"
                      class="cls-2" data-name="Path 337" transform="translate(-53.488 -6.551)"/>
                <path id="Path_338"
                      d="M127.921 37.984c-.691 5.591-1.251 11.191-1.794 16.8-5.8-1.549-11.576-3.2-17.377-4.777.586-5.591 1.094-11.182 1.855-16.756 5.775 1.591 11.532 3.219 17.316 4.733z"
                      class="cls-3" data-name="Path 338" transform="translate(-53.67 -4.157)"/>
                <path id="Path_339"
                      d="M130.357 18.881c-.823 5.556-1.479 11.147-2.17 16.721-5.784-1.514-11.541-3.15-17.307-4.725.761-5.574 1.627-11.121 2.537-16.677 5.644 1.549 11.283 3.141 16.94 4.681z"
                      class="cls-2" data-name="Path 339" transform="translate(-53.936 -1.775)"/>
                <path id="Path_340"
                      d="M149.255 23.89q-.892 8.4-1.776 16.791c-5.617-1.409-11.208-2.94-16.808-4.41.691-5.582 1.339-11.165 2.17-16.721q8.176 2.244 16.414 4.34z"
                      class="cls-3" data-name="Path 340" transform="translate(-56.41 -2.444)"/>
                <path id="Path_341"
                      d="M143.856 81.519q-.643 8.4-1.339 16.782c-5.722-1.435-11.48-2.774-17.167-4.331.472-5.617.919-11.243 1.382-16.87a502.179 502.179 0 0 0 17.124 4.419z"
                      class="cls-2" data-name="Path 341" transform="translate(-55.745 -9.639)"/>
                <path id="Path_342"
                      d="M124.308 76.419c-.464 5.626-.91 11.243-1.382 16.87q-8.492-2.362-16.966-4.751c.42-5.626.77-11.261 1.164-16.887q8.583 2.401 17.184 4.768z"
                      class="cls-3" data-name="Path 342" transform="translate(-53.321 -8.958)"/>
                <path id="Path_343"
                      d="M142.281 100.7c-.473 5.644-1.041 11.27-1.5 16.913-5.784-1.426-11.55-2.949-17.316-4.436.612-5.6 1.181-11.191 1.654-16.808 5.681 1.567 11.439 2.897 17.162 4.331z"
                      class="cls-3" data-name="Path 343" transform="translate(-55.509 -12.048)"/>
                <path id="Path_344"
                      d="M140.513 120.015c-.455 5.591-1.041 11.165-1.654 16.738-5.862-1.347-11.672-2.931-17.5-4.427q.919-8.374 1.829-16.756c5.776 1.496 11.542 3.03 17.325 4.445z"
                      class="cls-2" data-name="Path 344" transform="translate(-55.247 -14.449)"/>
                <path id="Path_345"
                      d="M138.532 139.157c-.612 5.565-1.207 11.13-1.9 16.677a830.383 830.383 0 0 1-17.893-4.471c.84-5.539 1.689-11.06 2.292-16.633 5.829 1.496 11.639 3.08 17.501 4.427z"
                      class="cls-3" data-name="Path 345" transform="translate(-54.919 -16.844)"/>
                <path id="Path_346"
                      d="M147.222 43.071c-.6 5.591-1.05 11.191-1.54 16.8-5.722-1.3-11.383-2.914-17.062-4.4.534-5.609 1.094-11.208 1.794-16.8 5.6 1.46 11.186 2.983 16.808 4.4z"
                      class="cls-2" data-name="Path 346" transform="translate(-56.154 -4.835)"/>
                <path id="Path_347"
                      d="M145.462 62.261c-.49 5.617-.98 11.226-1.409 16.843a481.22 481.22 0 0 1-17.123-4.41c.464-5.617.936-11.226 1.47-16.835 5.679 1.488 11.34 3.098 17.062 4.402z"
                      class="cls-3" data-name="Path 347" transform="translate(-55.943 -7.234)"/>
                <path id="Path_348"
                      d="M120.795 114.914q-.919 8.374-1.829 16.756c-5.635-1.452-11.243-3.089-16.826-4.707.752-5.565 1.444-11.182 1.934-16.782 5.573 1.556 11.121 3.254 16.721 4.733z"
                      class="cls-3" data-name="Path 348" transform="translate(-52.844 -13.775)"/>
                <path id="Path_349"
                      d="M122.723 95.7c-.472 5.609-1.041 11.208-1.654 16.808-5.6-1.479-11.147-3.176-16.73-4.742.5-5.609 1-11.208 1.417-16.817q8.48 2.403 16.967 4.751z"
                      class="cls-2" data-name="Path 349" transform="translate(-53.119 -11.371)"/>
                <path id="Path_350"
                      d="M108.093 32.589c-.761 5.574-1.269 11.165-1.855 16.756-5.88-1.584-11.751-3.22-17.648-4.734.332-5.582.884-11.182 1.662-16.721 5.968 1.479 11.909 3.071 17.841 4.699z"
                      class="cls-2" data-name="Path 350" transform="translate(-51.15 -3.487)"/>
                <path id="Path_351"
                      d="M106.108 51.734c-.569 5.6-.892 11.217-1.286 16.835Q96.2 66.153 87.55 63.826c.245-5.609.577-11.217.91-16.826 5.897 1.514 11.768 3.141 17.648 4.734z"
                      class="cls-3" data-name="Path 351" transform="translate(-51.02 -5.876)"/>
                <path id="Path_352"
                      d="M83.027 104.3c-.525 5.591-.919 11.173-1.654 16.738C76.2 119.6 71.022 118.2 65.79 116.98c.411-5.591.647-11.2.962-16.8 5.469 1.199 10.885 2.634 16.275 4.12z"
                      class="cls-3" data-name="Path 352" transform="translate(-48.299 -12.525)"/>
                <path id="Path_353"
                      d="M84.241 85c-.241 5.64-.541 11.275-1.076 16.883-5.4-1.487-10.806-2.914-16.275-4.121.324-5.635.525-11.278.551-16.922 5.644 1.216 11.226 2.66 16.8 4.16z"
                      class="cls-2" data-name="Path 353" transform="translate(-48.437 -10.107)"/>
                <path id="Path_354"
                      d="M104.718 70.961c-.394 5.626-.744 11.261-1.164 16.887-5.6-1.592-11.208-3.167-16.835-4.681q.354-8.479.726-16.957 8.655 2.349 17.273 4.751z"
                      class="cls-2" data-name="Path 354" transform="translate(-50.916 -8.278)"/>
                <path id="Path_355"
                      d="M85.046 65.62q-.367 8.479-.726 16.957c-5.574-1.5-11.156-2.949-16.8-4.165.026-5.67-.017-11.331.158-16.992 5.822 1.269 11.622 2.642 17.368 4.2z"
                      class="cls-3" data-name="Path 355" transform="translate(-48.515 -7.679)"/>
                <path id="Path_356"
                      d="M85.978 46.4c-.332 5.609-.665 11.208-.91 16.826-5.749-1.557-11.55-2.931-17.368-4.209q.262-8.387.464-16.773c5.985 1.186 11.908 2.638 17.814 4.156z"
                      class="cls-2" data-name="Path 356" transform="translate(-48.538 -5.281)"/>
                <path id="Path_357"
                      d="M158.973 143.58q-.578 8.36-1.409 16.7c-6.134-1.225-12.285-2.371-18.375-3.806.691-5.556 1.286-11.121 1.9-16.677q8.925 2.037 17.884 3.783z"
                      class="cls-2" data-name="Path 357" transform="translate(-57.476 -17.478)"/>
                <path id="Path_358"
                      d="M166.276 47.471c-.446 5.617-.9 11.235-1.295 16.861-5.626-1.251-11.243-2.546-16.861-3.832.49-5.6.945-11.208 1.54-16.8 5.53 1.269 11.04 2.677 16.616 3.771z"
                      class="cls-3" data-name="Path 358" transform="translate(-58.592 -5.463)"/>
                <path id="Path_359"
                      d="M167.817 28.176c-.472 5.626-.875 11.261-1.321 16.9-5.565-1.094-11.086-2.5-16.616-3.771q.892-8.4 1.776-16.791c5.355 1.352 10.754 2.498 16.161 3.662z"
                      class="cls-2" data-name="Path 359" transform="translate(-58.812 -3.064)"/>
                <path id="Path_360"
                      d="M186.3 31.657c-.289 5.644-.674 11.27-.954 16.913q-8.269-1.352-16.476-2.975c.446-5.635.849-11.27 1.321-16.9 5.346 1.169 10.692 2.175 16.109 2.962z"
                      class="cls-3" data-name="Path 360" transform="translate(-61.186 -3.588)"/>
                <path id="Path_361"
                      d="M181.931 108.92c-.28 5.6-.6 11.2-.91 16.8-5.906-1-11.847-1.855-17.7-3.124q.682-8.4 1.225-16.826c5.754 1.216 11.575 2.222 17.385 3.15z"
                      class="cls-3" data-name="Path 361" transform="translate(-60.492 -13.223)"/>
                <path id="Path_362"
                      d="M180.831 128.124c-.3 5.582-.621 11.173-.919 16.756-6.081-.849-12.083-1.986-18.112-3.159.385-5.582.84-11.147 1.33-16.721 5.854 1.269 11.795 2.126 17.701 3.124z"
                      class="cls-2" data-name="Path 362" transform="translate(-60.302 -15.628)"/>
                <path id="Path_363"
                      d="M179.711 147.269c-.3 5.591-.735 11.165-1.032 16.756-6.212-.884-12.337-1.986-18.488-3.211a533.335 533.335 0 0 0 1.409-16.7c6.019 1.177 12.03 2.306 18.111 3.155z"
                      class="cls-3" data-name="Path 363" transform="translate(-60.101 -18.017)"/>
                <path id="Path_364"
                      d="M200.473 150.109l-.6 16.8c-6.212-.446-12.381-1.557-18.55-2.432.3-5.591.726-11.165 1.032-16.756 6.009.839 12.063 1.959 18.118 2.388z"
                      class="cls-2" data-name="Path 364" transform="translate(-62.743 -18.468)"/>
                <path id="Path_365"
                      d="M203.236 72.889q-.262 8.544-.516 17.1c-5.714-.744-11.471-1.382-17.15-2.336.3-5.67.621-11.34.892-17.01 5.574.977 11.156 1.607 16.774 2.246z"
                      class="cls-2" data-name="Path 365" transform="translate(-63.274 -8.831)"/>
                <path id="Path_366"
                      d="M204.116 53.536c-.175 5.652-.577 11.3-.752 16.948-5.617-.639-11.2-1.277-16.773-2.249.271-5.609.682-11.217.962-16.826 5.503.902 11.033 1.436 16.563 2.127z"
                      class="cls-3" data-name="Path 366" transform="translate(-63.402 -6.427)"/>
                <path id="Path_367"
                      d="M204.761 34.224q-.249 8.452-.516 16.9c-5.521-.691-11.06-1.234-16.555-2.126.289-5.644.665-11.278.954-16.913 5.356.774 10.727 1.789 16.117 2.139z"
                      class="cls-2" data-name="Path 367" transform="translate(-63.539 -4.011)"/>
                <path id="Path_368"
                      d="M223.122 35.807c-.035 5.644-.044 11.287-.21 16.931-5.442-.35-10.876-.63-16.292-1.312q.262-8.452.516-16.9c5.329.354 10.657.844 15.986 1.281z"
                      class="cls-3" data-name="Path 368" transform="translate(-65.906 -4.317)"/>
                <path id="Path_369"
                      d="M222.175 94.211c-.079 5.661-.166 11.322-.21 16.983-5.827-.3-11.611-1.085-17.395-1.767.166-5.556.271-11.121.516-16.677 5.688.612 11.401.98 17.089 1.461z"
                      class="cls-2" data-name="Path 369" transform="translate(-65.649 -11.596)"/>
                <path id="Path_370"
                      d="M202.6 92.415c-.245 5.556-.35 11.121-.516 16.677-5.827-.691-11.672-1.321-17.491-2.135q.42-8.439.857-16.887c5.676.962 11.433 1.601 17.15 2.345z"
                      class="cls-3" data-name="Path 370" transform="translate(-63.152 -11.261)"/>
                <path id="Path_371"
                      d="M221.88 113.579c-.044 5.582-.061 11.156-.158 16.738-5.985-.219-11.961-.9-17.9-1.619.157-5.635.507-11.252.674-16.878 5.773.68 11.556 1.461 17.384 1.759z"
                      class="cls-3" data-name="Path 371" transform="translate(-65.556 -13.98)"/>
                <path id="Path_372"
                      d="M221.638 132.727q-.144 8.334-.315 16.66-9.056-.722-18.1-1.356c.2-5.644.359-11.287.525-16.931 5.929.726 11.905 1.409 17.89 1.627z"
                      class="cls-2" data-name="Path 372" transform="translate(-65.481 -16.39)"/>
                <path id="Path_373"
                      d="M221.236 151.8c-.114 5.451-.271 10.9-.359 16.353-6.116-.306-12.241-.586-18.357-.919l.6-16.8c6.041.452 12.08.89 18.116 1.366z"
                      class="cls-3" data-name="Path 373" transform="translate(-65.393 -18.808)"/>
                <path id="Path_374"
                      d="M222.8 55.152a562.162 562.162 0 0 0-.262 17.176c-5.617-.359-11.191-.9-16.782-1.54.175-5.652.577-11.3.752-16.948 5.412.682 10.854.96 16.292 1.312z"
                      class="cls-2" data-name="Path 374" transform="translate(-65.798 -6.731)"/>
                <path id="Path_375"
                      d="M222.468 74.75c0 5.679-.131 11.348-.21 17.018-5.7-.481-11.41-.849-17.088-1.461q.262-8.544.516-17.1c5.591.642 11.165 1.184 16.782 1.543z"
                      class="cls-3" data-name="Path 375" transform="translate(-65.724 -9.153)"/>
                <path id="Path_376"
                      d="M201.146 130.794c-.158 5.644-.315 11.287-.525 16.931-6.064-.437-12.11-1.549-18.121-2.389.3-5.582.621-11.173.919-16.756 5.862.989 11.829 1.487 17.727 2.214z"
                      class="cls-3" data-name="Path 376" transform="translate(-62.89 -16.075)"/>
                <path id="Path_377"
                      d="M201.951 111.5c-.166 5.626-.507 11.252-.674 16.878-5.9-.717-11.865-1.225-17.727-2.214.306-5.6.63-11.2.91-16.8 5.819.828 11.655 1.45 17.491 2.136z"
                      class="cls-2" data-name="Path 377" transform="translate(-63.022 -13.673)"/>
                <path id="Path_378"
                      d="M185.152 50.984c-.289 5.609-.691 11.217-.962 16.826-5.6-.98-11.217-1.9-16.8-2.949.394-5.626.849-11.235 1.295-16.861a501.116 501.116 0 0 0 16.467 2.984z"
                      class="cls-2" data-name="Path 378" transform="translate(-61.001 -6.001)"/>
                <path id="Path_379"
                      d="M184.021 70.22c-.28 5.67-.595 11.34-.892 17.01-5.714-.989-11.427-1.916-17.088-3.167.42-5.591.787-11.191 1.181-16.782 5.578 1.04 11.199 1.959 16.799 2.939z"
                      class="cls-3" data-name="Path 379" transform="translate(-60.832 -8.411)"/>
                <path id="Path_380"
                      d="M160.575 124.466q-.735 8.36-1.33 16.721-8.977-1.746-17.885-3.789c.612-5.574 1.2-11.156 1.654-16.738 5.836 1.34 11.707 2.54 17.561 3.806z"
                      class="cls-3" data-name="Path 380" transform="translate(-57.747 -15.085)"/>
                <path id="Path_381"
                      d="M162.036 105.224q-.551 8.413-1.225 16.826c-5.854-1.26-11.725-2.467-17.561-3.806.473-5.644 1.032-11.27 1.5-16.913 5.745 1.434 11.493 2.676 17.286 3.893z"
                      class="cls-2" data-name="Path 381" transform="translate(-57.983 -12.668)"/>
                <path id="Path_382"
                      d="M182.963 89.629q-.446 8.439-.857 16.887c-5.81-.927-11.628-1.942-17.386-3.141.367-5.635.726-11.27 1.155-16.9 5.652 1.237 11.375 2.165 17.088 3.154z"
                      class="cls-2" data-name="Path 382" transform="translate(-60.667 -10.811)"/>
                <path id="Path_383"
                      d="M163.4 85.92c-.429 5.635-.787 11.27-1.155 16.9-5.784-1.207-11.541-2.467-17.272-3.9q.7-8.387 1.339-16.782z"
                      class="cls-3" data-name="Path 383" transform="translate(-58.198 -10.269)"/>
                <path id="Path_384"
                      d="M164.78 66.722c-.394 5.591-.761 11.191-1.181 16.782q-8.544-1.89-17.088-3.771c.429-5.617.91-11.235 1.409-16.843 5.616 1.286 11.233 2.581 16.86 3.832z"
                      class="cls-2" data-name="Path 384" transform="translate(-58.391 -7.863)"/>
                <path id="Path_385"
                      d="M241.822 152.71c.035 5.521.122 11.042.035 16.563q-9.174-.459-18.357-.91c.087-5.451.245-10.9.359-16.353 5.967.473 11.978.508 17.963.7z"
                      class="cls-2" data-name="Path 385" transform="translate(-68.016 -19.004)"/>
                <path id="Path_386"
                      d="M241.442 55.91c.079 5.749.254 11.5.262 17.255-5.6-.105-11.173-.28-16.765-.639 0-5.731.1-11.445.263-17.176 5.425.341 10.806.56 16.24.56z"
                      class="cls-3" data-name="Path 386" transform="translate(-68.196 -6.92)"/>
                <path id="Path_387"
                      d="M241.455 36.5q-.053 8.492.035 16.992c-5.442 0-10.815-.21-16.24-.569.166-5.644.184-11.287.21-16.931 5.32.435 10.657.418 15.995.508z"
                      class="cls-2" data-name="Path 387" transform="translate(-68.235 -4.499)"/>
                <path id="Path_388"
                      d="M259.78 36.1c.061 5.687.114 11.366.315 17.053-5.442.315-10.841.35-16.292.35q-.079-8.492-.035-16.992c5.363.089 10.657-.044 16.012-.411z"
                      class="cls-3" data-name="Path 388" transform="translate(-70.548 -4.513)"/>
                <path id="Path_389"
                      d="M261.711 114.34c.157 5.53.193 11.051.219 16.581-5.81.271-11.6.647-17.421.385l-.079-16.581a135.641 135.641 0 0 0 17.281-.385z"
                      class="cls-3" data-name="Path 389" transform="translate(-70.633 -14.295)"/>
                <path id="Path_390"
                      d="M261.921 133.29c.07 5.539.289 11.068.35 16.607-5.967.341-11.856.656-17.832.473-.035-5.565.087-11.13.061-16.695 5.828.262 11.611-.114 17.421-.385z"
                      class="cls-2" data-name="Path 390" transform="translate(-70.633 -16.664)"/>
                <path id="Path_391"
                      d="M262.272 152.27c.061 5.582.114 11.173.262 16.756a132.342 132.342 0 0 1-18.06.28c.088-5.521 0-11.042-.035-16.563 5.977.192 11.861-.123 17.833-.473z"
                      class="cls-3" data-name="Path 391" transform="translate(-70.634 -19.037)"/>
                <path id="Path_392"
                      d="M282.4 150.93c.289 5.46.394 10.92.542 16.388q-8.925.774-17.85 1.54c-.157-5.582-.2-11.165-.262-16.756 5.854-.332 11.742-.472 17.57-1.172z"
                      class="cls-2" data-name="Path 392" transform="translate(-73.183 -18.869)"/>
                <path id="Path_393"
                      d="M279.386 73.75c.28 5.714.525 11.427.787 17.132q-8.374.7-16.747 1.312c-.149-5.7-.35-11.41-.516-17.115 5.49-.34 10.981-.804 16.476-1.329z"
                      class="cls-2" data-name="Path 393" transform="translate(-72.943 -9.22)"/>
                <path id="Path_394"
                      d="M278.6 54.19q.315 8.557.726 17.115-8.229.8-16.476 1.33c-.105-5.749-.219-11.488-.42-17.228 5.399-.316 10.78-.675 16.17-1.217z"
                      class="cls-3" data-name="Path 394" transform="translate(-72.883 -6.775)"/>
                <path id="Path_395"
                      d="M277.89 34.54c.166 5.731.455 11.462.665 17.2-5.39.534-10.771.9-16.17 1.216-.192-5.679-.245-11.366-.315-17.053 5.276-.357 10.552-.903 15.82-1.363z"
                      class="cls-2" data-name="Path 395" transform="translate(-72.838 -4.318)"/>
                <path id="Path_396"
                      d="M296 32.82q.433 8.452.892 16.9c-5.329.822-10.71 1.26-16.082 1.8-.21-5.731-.5-11.462-.665-17.2A905.384 905.384 0 0 0 296 32.82z"
                      class="cls-3" data-name="Path 396" transform="translate(-75.099 -4.103)"/>
                <path id="Path_397"
                      d="M299.193 90.94c.359 5.617.726 11.235 1.05 16.852-5.617.752-11.226 1.549-16.852 2.161-.219-5.644-.5-11.278-.761-16.922 5.53-.569 11.051-1.356 16.563-2.091z"
                      class="cls-2" data-name="Path 397" transform="translate(-75.409 -11.369)"/>
                <path id="Path_398"
                      d="M280.237 93.33c.263 5.644.542 11.278.761 16.922-5.626.612-11.27 1-16.9 1.461-.166-5.687-.455-11.375-.6-17.062q8.366-.617 16.739-1.321z"
                      class="cls-3" data-name="Path 398" transform="translate(-73.016 -11.668)"/>
                <path id="Path_399"
                      d="M300.352 110.2c.324 5.644.665 11.287.962 16.931-5.722.682-11.453 1.269-17.185 1.89-.184-5.556-.42-11.1-.63-16.66 5.627-.612 11.236-1.409 16.853-2.161z"
                      class="cls-3" data-name="Path 399" transform="translate(-75.517 -13.777)"/>
                <path id="Path_400"
                      d="M301.4 129.55q.433 8.308.875 16.616-8.728 1.037-17.456 2.091c-.3-5.6-.411-11.208-.6-16.817 5.732-.621 11.463-1.199 17.181-1.89z"
                      class="cls-2" data-name="Path 400" transform="translate(-75.607 -16.196)"/>
                <path id="Path_401"
                      d="M302.366 148.54c.315 5.644.761 11.3.927 16.94q-8.925.774-17.841 1.54c-.149-5.469-.254-10.929-.542-16.388q8.728-1.051 17.456-2.092z"
                      class="cls-3" data-name="Path 401" transform="translate(-75.694 -18.571)"/>
                <path id="Path_402"
                      d="M296.982 52.14c.306 5.661.717 11.322 1.05 16.975-5.432.885-10.932 1.408-16.406 1.933q-.42-8.557-.726-17.115c5.372-.533 10.754-.971 16.082-1.793z"
                      class="cls-2" data-name="Path 402" transform="translate(-75.192 -6.519)"/>
                <path id="Path_403"
                      d="M298.136 71.54c.333 5.661.586 11.322.945 16.975-5.512.735-11.033 1.514-16.563 2.091-.263-5.714-.508-11.427-.788-17.132 5.477-.525 10.97-1.059 16.406-1.934z"
                      class="cls-3" data-name="Path 403" transform="translate(-75.296 -8.944)"/>
                <path id="Path_404"
                      d="M281.745 131.71c.193 5.609.306 11.217.6 16.817-5.827.7-11.716.84-17.578 1.172-.061-5.539-.28-11.068-.35-16.607 5.813-.271 11.553-.752 17.328-1.382z"
                      class="cls-3" data-name="Path 404" transform="translate(-73.132 -16.466)"/>
                <path id="Path_405"
                      d="M281.083 112.67c.21 5.556.446 11.1.63 16.66-5.775.63-11.515 1.111-17.325 1.382-.017-5.53-.052-11.051-.219-16.581 5.645-.464 11.288-.848 16.914-1.461z"
                      class="cls-2" data-name="Path 405" transform="translate(-73.101 -14.086)"/>
                <path id="Path_406"
                      d="M260.1 55.58c.193 5.74.306 11.488.42 17.228-5.495.306-10.955.481-16.45.376 0-5.749-.175-11.5-.262-17.255 5.444.001 10.852-.029 16.292-.349z"
                      class="cls-2" data-name="Path 406" transform="translate(-70.555 -6.949)"/>
                <path id="Path_407"
                      d="M260.55 75.27c.166 5.7.359 11.41.516 17.115-5.617.4-11.13.639-16.765.5-.157-5.749-.192-11.488-.2-17.246 5.499.112 10.963-.072 16.449-.369z"
                      class="cls-3" data-name="Path 407" transform="translate(-70.592 -9.41)"/>
                <path id="Path_408"
                      d="M241.943 133.644c.026 5.565-.1 11.13-.061 16.695-5.985-.193-12-.228-17.972-.709q.171-8.334.315-16.66c5.906.201 11.812.411 17.718.674z"
                      class="cls-3" data-name="Path 408" transform="translate(-68.067 -16.624)"/>
                <path id="Path_409"
                      d="M241.911 114.67l.079 16.581c-5.906-.262-11.812-.464-17.71-.682.1-5.582.122-11.156.157-16.738q8.728.445 17.474.839z"
                      class="cls-2" data-name="Path 409" transform="translate(-68.114 -14.231)"/>
                <path id="Path_410"
                      d="M261.093 94.84c.149 5.687.438 11.375.6 17.062a137.234 137.234 0 0 1-17.281.394c-.026-5.652.061-11.3-.1-16.957 5.643.131 11.164-.097 16.781-.499z"
                      class="cls-2" data-name="Path 410" transform="translate(-70.619 -11.857)"/>
                <path id="Path_411"
                      d="M241.837 95.286c.157 5.652.07 11.3.1 16.957q-8.741-.394-17.473-.84c.044-5.661.131-11.322.21-16.983 5.71.49 11.432.735 17.163.866z"
                      class="cls-3" data-name="Path 411" transform="translate(-68.136 -11.804)"/>
                <path id="Path_412"
                      d="M241.675 75.609c0 5.749.044 11.5.2 17.246-5.74-.131-11.453-.376-17.176-.866.079-5.679.21-11.348.21-17.018 5.591.366 11.166.529 16.766.638z"
                      class="cls-2" data-name="Path 412" transform="translate(-68.166 -9.373)"/>
                <path id="Path_413"
                      d="M322.238 145.61q.63 8.387 1.155 16.773c-5.845.98-11.69 2.214-17.6 2.721-.166-5.652-.612-11.3-.927-16.94 5.823-.682 11.589-1.548 17.372-2.554z"
                      class="cls-2" data-name="Path 413" transform="translate(-78.189 -18.204)"/>
                <path id="Path_414"
                      d="M315.353 49.25q.617 8.452 1.251 16.9c-5.434.831-10.85 1.732-16.275 2.607-.332-5.661-.744-11.313-1.05-16.975 5.356-.835 10.772-1.465 16.074-2.532z"
                      class="cls-3" data-name="Path 414" transform="translate(-77.49 -6.157)"/>
                <path id="Path_415"
                      d="M314.063 29.83c.376 5.661.726 11.331 1.172 16.992-5.3 1.076-10.727 1.706-16.073 2.529q-.459-8.452-.893-16.9c5.303-.565 10.545-1.685 15.794-2.621z"
                      class="cls-2" data-name="Path 415" transform="translate(-77.364 -3.729)"/>
                <path id="Path_416"
                      d="M332.121 26.16l1.444 17c-5.337 1.155-10.727 2.126-16.082 3.194-.437-5.661-.8-11.322-1.172-16.992 5.31-.936 10.56-2.003 15.81-3.202z"
                      class="cls-3" data-name="Path 416" transform="translate(-79.619 -3.271)"/>
                <path id="Path_417"
                      d="M338.706 103.5c.455 5.582.91 11.165 1.435 16.738-5.644 1.19-11.27 2.389-16.966 3.316-.35-5.6-.779-11.2-1.225-16.8 5.609-.997 11.182-2.099 16.756-3.254z"
                      class="cls-3" data-name="Path 417" transform="translate(-80.324 -12.94)"/>
                <path id="Path_418"
                      d="M340.326 122.63c.525 5.574.98 11.156 1.409 16.73-5.714 1.234-11.418 2.38-17.176 3.377-.42-5.6-.849-11.191-1.2-16.791 5.688-.919 11.323-2.117 16.967-3.316z"
                      class="cls-2" data-name="Path 418" transform="translate(-80.501 -15.331)"/>
                <path id="Path_419"
                      d="M341.895 141.76c.429 5.609.98 11.2 1.435 16.8a394.165 394.165 0 0 1-17.465 3.351q-.525-8.387-1.155-16.773a439.302 439.302 0 0 0 17.185-3.378z"
                      class="cls-3" data-name="Path 419" transform="translate(-80.669 -17.723)"/>
                <path id="Path_420"
                      d="M361.387 137.49l1.68 16.695c-5.731 1.409-11.506 2.6-17.272 3.841-.455-5.6-1.006-11.2-1.435-16.8 5.67-1.226 11.41-2.292 17.027-3.736z"
                      class="cls-2" data-name="Path 420" transform="translate(-83.126 -17.189)"/>
                <path id="Path_421"
                      d="M353.967 60.7c.542 5.644 1.146 11.278 1.7 16.922-5.495 1.295-11.025 2.476-16.537 3.7-.525-5.635-.971-11.278-1.487-16.913 5.466-1.128 10.89-2.44 16.324-3.709z"
                      class="cls-2" data-name="Path 421" transform="translate(-82.286 -7.589)"/>
                <path id="Path_422"
                      d="M352.112 41.3c.56 5.661 1.137 11.313 1.654 16.975-5.434 1.277-10.867 2.581-16.336 3.7-.516-5.635-.919-11.278-1.4-16.922 5.37-1.216 10.727-2.493 16.082-3.753z"
                      class="cls-3" data-name="Path 422" transform="translate(-82.085 -5.163)"/>
                <path id="Path_423"
                      d="M350.28 21.93l1.628 16.948c-5.355 1.26-10.71 2.537-16.073 3.754l-1.444-17c5.293-1.2 10.63-2.332 15.889-3.702z"
                      class="cls-2" data-name="Path 423" transform="translate(-81.88 -2.742)"/>
                <path id="Path_424"
                      d="M368.788 17.08c.656 5.661 1.3 11.313 1.864 16.983-5.486 1.417-10.964 2.914-16.485 4.209l-1.627-16.948q8.137-2.124 16.248-4.244z"
                      class="cls-3" data-name="Path 424" transform="translate(-84.149 -2.135)"/>
                <path id="Path_425"
                      d="M374.8 75.29q.866 8.413 1.689 16.835-8.308 2.047-16.616 4.1l-1.623-16.77c5.53-1.313 11.034-2.774 16.55-4.165z"
                      class="cls-2" data-name="Path 425" transform="translate(-84.863 -9.413)"/>
                <path id="Path_426"
                      d="M355.877 80.04l1.623 16.773c-5.512 1.365-11.06 2.59-16.616 3.754-.455-5.617-1.024-11.226-1.549-16.835 5.517-1.216 11.038-2.397 16.542-3.692z"
                      class="cls-3" data-name="Path 426" transform="translate(-82.498 -10.007)"/>
                <path id="Path_427"
                      d="M376.715 94.52q.814 8.36 1.61 16.721c-5.512 1.444-11.042 2.791-16.581 4.139-.534-5.591-1.111-11.174-1.654-16.765q8.321-2.034 16.625-4.095z"
                      class="cls-3" data-name="Path 427" transform="translate(-85.093 -11.817)"/>
                <path id="Path_428"
                      d="M378.562 113.64c.525 5.547 1.05 11.095 1.662 16.633q-8.321 2.113-16.633 4.235c-.507-5.582-1.067-11.156-1.6-16.73 5.529-1.347 11.068-2.694 16.571-4.138z"
                      class="cls-2" data-name="Path 428" transform="translate(-85.33 -14.207)"/>
                <path id="Path_429"
                      d="M380.452 132.64c.612 5.547 1.225 11.1 1.907 16.642q-8.413 2.2-16.87 4.287-.827-8.347-1.68-16.695c5.557-1.417 11.104-2.817 16.643-4.234z"
                      class="cls-3" data-name="Path 429" transform="translate(-85.558 -16.583)"/>
                <path id="Path_430"
                      d="M370.895 36.49q.84 8.518 1.7 17.036c-5.5 1.4-11 2.852-16.528 4.147-.516-5.661-1.1-11.322-1.654-16.975 5.518-1.298 10.987-2.791 16.482-4.208z"
                      class="cls-2" data-name="Path 430" transform="translate(-84.383 -4.562)"/>
                <path id="Path_431"
                      d="M372.827 55.96q.853 8.452 1.724 16.9c-5.521 1.4-11.025 2.852-16.563 4.156-.551-5.644-1.155-11.278-1.7-16.922 5.541-1.282 11.035-2.734 16.539-4.134z"
                      class="cls-3" data-name="Path 431" transform="translate(-84.618 -6.996)"/>
                <path id="Path_432"
                      d="M359.583 118.37c.534 5.574 1.094 11.147 1.6 16.73-5.626 1.444-11.357 2.511-17.036 3.736a975.381 975.381 0 0 0-1.409-16.73c5.637-1.19 11.254-2.38 16.845-3.736z"
                      class="cls-3" data-name="Path 432" transform="translate(-82.924 -14.799)"/>
                <path id="Path_433"
                      d="M357.726 99.21c.542 5.591 1.111 11.173 1.654 16.765-5.591 1.356-11.208 2.546-16.835 3.727-.525-5.574-.98-11.156-1.435-16.738q8.334-1.733 16.616-3.754z"
                      class="cls-2" data-name="Path 433" transform="translate(-82.72 -12.403)"/>
                <path id="Path_434"
                      d="M333.742 45.59c.481 5.635.884 11.287 1.4 16.922-5.4 1.111-10.788 2.345-16.231 3.176q-.63-8.452-1.251-16.9c5.355-1.072 10.74-2.043 16.082-3.198z"
                      class="cls-2" data-name="Path 434" transform="translate(-79.788 -5.7)"/>
                <path id="Path_435"
                      d="M335.321 64.93c.516 5.635.954 11.278 1.487 16.913-5.451 1.207-10.937 2.214-16.441 3.141-.455-5.626-.857-11.252-1.277-16.887 5.442-.813 10.832-2.056 16.231-3.167z"
                      class="cls-3" data-name="Path 435" transform="translate(-79.967 -8.118)"/>
                <path id="Path_436"
                      d="M320.913 126.42c.35 5.6.77 11.191 1.2 16.791-5.784 1-11.55 1.872-17.377 2.564q-.446-8.308-.875-16.616c5.704-.7 11.382-1.812 17.052-2.739z"
                      class="cls-3" data-name="Path 436" transform="translate(-78.063 -15.805)"/>
                <path id="Path_437"
                      d="M319.551 107.23c.446 5.6.875 11.191 1.225 16.8-5.679.927-11.348 2.03-17.053 2.739-.3-5.644-.639-11.287-.962-16.931a419.316 419.316 0 0 0 16.79-2.608z"
                      class="cls-2" data-name="Path 437" transform="translate(-77.925 -13.406)"/>
                <path id="Path_438"
                      d="M336.981 84.26c.525 5.609 1.085 11.217 1.549 16.835q-8.36 1.746-16.756 3.264c-.455-5.644-.779-11.3-1.234-16.948 5.512-.937 10.99-1.944 16.441-3.151z"
                      class="cls-2" data-name="Path 438" transform="translate(-80.148 -10.534)"/>
                <path id="Path_439"
                      d="M318.167 87.86c.455 5.644.779 11.3 1.234 16.948-5.582 1-11.173 1.855-16.791 2.607-.324-5.617-.691-11.235-1.05-16.852 5.565-.743 11.077-1.763 16.607-2.703z"
                      class="cls-3" data-name="Path 439" transform="translate(-77.775 -10.984)"/>
                <path id="Path_440"
                      d="M316.755 68.56c.42 5.626.822 11.252 1.277 16.887-5.53.936-11.042 1.96-16.607 2.7-.359-5.652-.6-11.322-.945-16.975 5.42-.88 10.841-1.781 16.275-2.612z"
                      class="cls-2" data-name="Path 440" transform="translate(-77.64 -8.571)"/>
                <path id="Path_441"
                      d="M399.061 127.74c.577 5.539 1.19 11.068 1.732 16.607-5.346 1.452-10.7 2.914-16.056 4.322-.682-5.539-1.295-11.095-1.907-16.642 5.425-1.373 10.832-2.827 16.231-4.287z"
                      class="cls-2" data-name="Path 441" transform="translate(-87.936 -15.97)"/>
                <path id="Path_442"
                      d="M390.111 31.5c.551 5.7 1.076 11.4 1.662 17.088-5.609 1.435-11.217 2.887-16.826 4.314q-.853-8.518-1.7-17.036 8.429-2.179 16.864-4.366z"
                      class="cls-3" data-name="Path 442" transform="translate(-86.738 -3.938)"/>
                <path id="Path_443"
                      d="M388.1 12.05q.919 8.5 1.741 17.027-8.426 2.179-16.861 4.366c-.56-5.67-1.216-11.322-1.864-16.983q8.496-2.218 16.984-4.41z"
                      class="cls-2" data-name="Path 443" transform="translate(-86.472 -1.506)"/>
                <path id="Path_444"
                      d="M408.327 7.02c.569 5.731 1.085 11.445 1.417 17.193-5.854 1.295-11.672 2.73-17.473 4.226q-.827-8.518-1.741-17.027 8.87-2.296 17.797-4.392z"
                      class="cls-3" data-name="Path 444" transform="translate(-88.898 -.878)"/>
                <path id="Path_445"
                      d="M414.171 84.81c.315 5.574.612 11.156 1.032 16.73-5.3 1.339-10.587 2.765-15.872 4.182-.5-5.565-1.05-11.13-1.461-16.7 5.43-1.43 10.858-2.847 16.301-4.212z"
                      class="cls-3" data-name="Path 445" transform="translate(-89.816 -10.603)"/>
                <path id="Path_446"
                      d="M415.412 103.93q.63 8.334 1.365 16.668c-5.232 1.312-10.421 2.765-15.627 4.174q-.866-8.321-1.61-16.66c5.285-1.417 10.57-2.843 15.872-4.182z"
                      class="cls-2" data-name="Path 446" transform="translate(-90.025 -12.993)"/>
                <path id="Path_447"
                      d="M417.008 122.97c.49 5.539 1.059 11.068 1.61 16.6q-7.757 2.074-15.5 4.182c-.551-5.539-1.164-11.068-1.732-16.607 5.201-1.401 10.399-2.863 15.622-4.175z"
                      class="cls-3" data-name="Path 447" transform="translate(-90.256 -15.374)"/>
                <path id="Path_448"
                      d="M434.631 118.97c.263 5.539.289 11.068.77 16.6a296.91 296.91 0 0 0-14.551 3.509c-.542-5.53-1.12-11.06-1.61-16.6 5.101-1.279 10.229-2.503 15.391-3.509z"
                      class="cls-2" data-name="Path 448" transform="translate(-92.488 -14.874)"/>
                <path id="Path_449"
                      d="M431.136 42.1c.394 5.626.9 11.252 1.067 16.9-5.67 1.146-11.3 2.441-16.94 3.71q-.578-8.479-1.3-16.94a556.067 556.067 0 0 1 17.173-3.67z"
                      class="cls-2" data-name="Path 449" transform="translate(-91.828 -5.263)"/>
                <path id="Path_450"
                      d="M430.48 22.49c.017 5.722.07 11.445.472 17.158a606.573 606.573 0 0 0-17.185 3.657c-.49-5.7-.954-11.445-1.278-17.167a543.957 543.957 0 0 1 17.991-3.648z"
                      class="cls-3" data-name="Path 450" transform="translate(-91.644 -2.812)"/>
                <path id="Path_451"
                      d="M429.735 2.77c.306 5.757.5 11.5.542 17.255-6.029 1.1-12.013 2.336-17.99 3.657-.324-5.749-.84-11.462-1.417-17.193 6.239-1.453 12.521-2.827 18.865-3.719z"
                      class="cls-2" data-name="Path 451" transform="translate(-91.441 -.346)"/>
                <path id="Path_452"
                      d="M451.3 0a110.078 110.078 0 0 1-.131 17.071c-6.09.717-12.162 1.531-18.2 2.616a377.2 377.2 0 0 0-.543-17.255C438.712 1.54 445.012.761 451.3 0z"
                      class="cls-3" data-name="Path 452" transform="translate(-94.137)"/>
                <path id="Path_453"
                      d="M451.757 58.04c.21 5.67-.079 11.313-.306 16.975-5.512.682-11.007 1.627-16.45 2.73.009-5.591-.035-11.173-.2-16.765 5.625-1.129 11.286-2.144 16.956-2.94z"
                      class="cls-2" data-name="Path 453" transform="translate(-94.433 -7.256)"/>
                <path id="Path_454"
                      d="M432.39 61.41c.157 5.591.2 11.173.2 16.765-5.434 1.094-10.841 2.371-16.222 3.71-.28-5.591-.534-11.182-.919-16.765 5.636-1.269 11.271-2.564 16.941-3.71z"
                      class="cls-3" data-name="Path 454" transform="translate(-92.014 -7.678)"/>
                <path id="Path_455"
                      d="M451.48 77.45a137.363 137.363 0 0 0 .044 16.87c-5.381.612-10.727 1.566-16.03 2.642-.368-5.582-.464-11.182-.464-16.782 5.451-1.103 10.937-2.056 16.45-2.73z"
                      class="cls-3" data-name="Path 455" transform="translate(-94.462 -9.683)"/>
                <path id="Path_456"
                      d="M451.59 96.72a96.859 96.859 0 0 1 1.059 16.992c-5.355.595-10.692 1.444-15.977 2.476-.263-5.609-.744-11.208-1.111-16.817 5.31-1.085 10.647-2.039 16.029-2.651z"
                      class="cls-2" data-name="Path 456" transform="translate(-94.528 -12.092)"/>
                <path id="Path_457"
                      d="M452.806 116.14c-.376 5.582-1.234 11.1-1.111 16.712a132.464 132.464 0 0 0-14.1 2.354c-.473-5.521-.508-11.06-.77-16.6 5.297-1.022 10.626-1.871 15.981-2.466z"
                      class="cls-3" data-name="Path 457" transform="translate(-94.685 -14.52)"/>
                <path id="Path_458"
                      d="M451.25 19.51a141.024 141.024 0 0 0-1.006 16.966q-8.4 1.168-16.721 2.8c-.4-5.714-.455-11.436-.472-17.158 6.036-1.077 12.109-1.891 18.199-2.608z"
                      class="cls-2" data-name="Path 458" transform="translate(-94.214 -2.439)"/>
                <path id="Path_459"
                      d="M450.311 38.9c.1 5.626 1.094 11.138 1.295 16.747-5.679.8-11.34 1.811-16.948 2.949-.166-5.635-.665-11.27-1.067-16.9a321.62 321.62 0 0 1 16.72-2.796z"
                      class="cls-3" data-name="Path 459" transform="translate(-94.282 -4.863)"/>
                <path id="Path_460"
                      d="M433.325 99.75c.367 5.609.849 11.2 1.111 16.817-5.162 1.015-10.29 2.231-15.391 3.509q-.735-8.334-1.365-16.668c5.197-1.313 10.404-2.556 15.645-3.658z"
                      class="cls-3" data-name="Path 460" transform="translate(-92.293 -12.471)"/>
                <path id="Path_461"
                      d="M432.723 80.57c-.009 5.591.1 11.2.464 16.782a414.601 414.601 0 0 0-15.645 3.657c-.42-5.574-.718-11.147-1.032-16.73 5.364-1.338 10.78-2.615 16.213-3.709z"
                      class="cls-2" data-name="Path 461" transform="translate(-92.146 -10.073)"/>
                <path id="Path_462"
                      d="M409.993 26.67c.324 5.722.787 11.453 1.277 17.167a643.99 643.99 0 0 0-17.088 4.156C393.6 42.3 393.071 36.6 392.52 30.9c5.801-1.5 11.62-2.935 17.473-4.23z"
                      class="cls-2" data-name="Path 462" transform="translate(-89.147 -3.334)"/>
                <path id="Path_463"
                      d="M411.508 46.29c.481 5.644.927 11.287 1.3 16.94-5.6 1.374-11.208 2.73-16.791 4.174-.473-5.652-1.024-11.3-1.6-16.957 5.683-1.453 11.378-2.862 17.091-4.157z"
                      class="cls-3" data-name="Path 463" transform="translate(-89.385 -5.787)"/>
                <path id="Path_464"
                      d="M397.213 108.71q.735 8.334 1.61 16.66c-5.4 1.461-10.806 2.9-16.231 4.287-.612-5.539-1.129-11.086-1.662-16.633q8.15-2.14 16.283-4.314z"
                      class="cls-3" data-name="Path 464" transform="translate(-87.698 -13.591)"/>
                <path id="Path_465"
                      d="M395.532 89.61c.411 5.574.962 11.138 1.461 16.7q-8.137 2.179-16.283 4.314-.8-8.36-1.61-16.721c5.486-1.362 10.955-2.858 16.432-4.293z"
                      class="cls-2" data-name="Path 465" transform="translate(-87.469 -11.203)"/>
                <path id="Path_466"
                      d="M413.041 65.65c.385 5.582.639 11.174.919 16.765q-8.164 2.047-16.292 4.2c-.411-5.609-.954-11.2-1.417-16.8 5.59-1.444 11.19-2.791 16.79-4.165z"
                      class="cls-2" data-name="Path 466" transform="translate(-89.613 -8.208)"/>
                <path id="Path_467"
                      d="M393.862 70.41c.473 5.6 1.006 11.2 1.418 16.8-5.477 1.435-10.946 2.931-16.441 4.3-.551-5.609-1.1-11.226-1.689-16.835 5.582-1.413 11.156-2.821 16.712-4.265z"
                      class="cls-3" data-name="Path 467" transform="translate(-87.225 -8.803)"/>
                <path id="Path_468"
                      d="M392.016 51.04c.578 5.644 1.129 11.3 1.6 16.957q-8.347 2.152-16.7 4.261-.879-8.452-1.724-16.9c5.615-1.431 11.215-2.892 16.824-4.318z"
                      class="cls-2" data-name="Path 468" transform="translate(-86.98 -6.381)"/>
            </g>
            <path id="Rectangle_121" d="M0 0h8.304v347.314H0z" class="cls-4" data-name="Rectangle 121"
                  transform="translate(35.419 .184)"/>
            <path id="Rectangle_122" d="M0 0h8.304v347.314H0z" class="cls-4" data-name="Rectangle 122"
                  transform="translate(395.211 .516)"/>
            <g id="Group_149" data-name="Group 149" transform="translate(75.633 176.37)">
                <g id="Group_139" data-name="Group 139" transform="translate(0 63.2)">
                    <path id="Rectangle_123" d="M0 0h298.263v14.306H0z" class="cls-5" data-name="Rectangle 123"/>
                    <path id="Rectangle_124" d="M0 0h224.809v14.306H0z" class="cls-6" data-name="Rectangle 124"/>
                    <path id="Rectangle_125" d="M0 0h17.491v93.955H0z" class="cls-5" data-name="Rectangle 125"
                          transform="translate(198.585 14.306)"/>
                    <path id="Rectangle_126" d="M0 0h11.445v93.955H0z" class="cls-6" data-name="Rectangle 126"
                          transform="translate(198.585 14.306)"/>
                    <path id="Rectangle_127" d="M0 0h17.491v93.955H0z" class="cls-5" data-name="Rectangle 127"
                          transform="translate(264.874 14.306)"/>
                    <path id="Rectangle_128" d="M0 0h11.445v93.955H0z" class="cls-6" data-name="Rectangle 128"
                          transform="translate(264.874 14.306)"/>
                    <path id="Rectangle_129" d="M0 0h17.491v93.955H0z" class="cls-5" data-name="Rectangle 129"
                          transform="translate(18.13 14.306)"/>
                    <path id="Rectangle_130" d="M0 0h11.445v93.955H0z" class="cls-6" data-name="Rectangle 130"
                          transform="translate(18.13 14.306)"/>
                    <path id="Rectangle_131" d="M0 0h17.491v93.955H0z" class="cls-5" data-name="Rectangle 131"
                          transform="translate(84.418 14.306)"/>
                    <path id="Rectangle_132" d="M0 0h11.445v93.955H0z" class="cls-6" data-name="Rectangle 132"
                          transform="translate(84.418 14.306)"/>
                </g>
                <g id="Group_140" data-name="Group 140" transform="translate(181.147 30.624)">
                    <path id="Path_469"
                          d="M318.495 256.432l-.385-.271a.648.648 0 0 1-.166-.9l12.8-18.41a.648.648 0 0 1 .9-.166l.385.271a.648.648 0 0 1 .166.9l-12.8 18.41a.648.648 0 0 1-.9.166z"
                          class="cls-7" data-name="Path 469" transform="translate(-296.515 -236.569)"/>
                    <path id="Path_470"
                          d="M324.776 255.066c-2.214-7.289-6.282-10.246-14.358-10.246s-12.53 3.255-14.875 10.246c-2.406 7.184 6.545 13.72 14.621 13.72s16.817-6.475 14.612-13.72z"
                          class="cls-8" data-name="Path 470" transform="translate(-293.679 -237.601)"/>
                    <path id="Path_471"
                          d="M325.941 256.42a16.228 16.228 0 0 1-7.98 13.982h-16.5a16.206 16.206 0 0 1-7.989-13.982z"
                          class="cls-7" data-name="Path 471" transform="translate(-293.47 -239.051)"/>
                    <path id="Path_472"
                          d="M325.122 262.66a15.763 15.763 0 0 1-1.356 2.879h-27.86a15.454 15.454 0 0 1-1.356-2.879z"
                          class="cls-2" data-name="Path 472" transform="translate(-293.605 -239.831)"/>
                    <path id="Rectangle_133" d="M0 0h16.511v1.225H0z" class="cls-9" data-name="Rectangle 133"
                          transform="translate(7.98 31.351)"/>
                    <path id="Path_473"
                          d="M325.122 262.66a15.763 15.763 0 0 1-1.356 2.879h-27.86a15.454 15.454 0 0 1-1.356-2.879z"
                          class="cls-9" data-name="Path 473" transform="translate(-293.605 -239.831)"/>
                </g>
                <g id="Group_144" data-name="Group 144" transform="translate(107.614)">
                    <path id="Rectangle_134" d="M0 0h43.066v58.379H0z" class="cls-10" data-name="Rectangle 134"
                          transform="translate(8.339 4.812)"/>
                    <path id="Rectangle_135" d="M0 0h27.833v58.379H0z" class="cls-11" data-name="Rectangle 135"
                          transform="translate(23.563 4.812)"/>
                    <path id="Path_474" d="M237.272 201.57H209.43l8.339 4.812H245.6z" class="cls-11"
                          data-name="Path 474"
                          transform="translate(-209.43 -201.57)"/>
                    <path id="Path_475" d="M273.73 201.57h-27.841l-9.529 4.812h27.84z" class="cls-12"
                          data-name="Path 475"
                          transform="translate(-212.797 -201.57)"/>
                    <g id="Group_141" data-name="Group 141" transform="translate(30.143 19.731)">
                        <ellipse id="Ellipse_170" cx="7.814" cy="9.485" class="cls-13" data-name="Ellipse 170"
                                 rx="7.814"
                                 ry="9.485"/>
                        <ellipse id="Ellipse_171" cx="1.461" cy="1.776" class="cls-14" data-name="Ellipse 171"
                                 rx="1.461"
                                 ry="1.776" transform="translate(9.704 3.036)"/>
                        <path id="Path_476"
                              d="M259.5 235.73a11.142 11.142 0 0 1-.438 2.564c-1.094 3.64-3.981 6.247-7.35 6.247-3.106 0-5.784-2.2-7.035-5.39a9.689 9.689 0 0 1-.63-2.31 4.326 4.326 0 0 1 2.581-.621c1.619.175 2.651 1.426 3.622 2.6.919 1.094 1.776 2.109 3.036 2.074 1.347-.035 2.3-1.216 3.2-2.45.934-1.253 1.814-2.544 3.014-2.714z"
                              class="cls-15" data-name="Path 476" transform="translate(-243.901 -225.572)"/>
                    </g>
                    <g id="Group_142" data-name="Group 142" transform="translate(10.001 11.943)">
                        <ellipse id="Ellipse_172" cx="5.88" cy="8.724" class="cls-13" data-name="Ellipse 172" rx="5.88"
                                 ry="8.724"/>
                        <ellipse id="Ellipse_173" cx="1.102" cy="1.636" class="cls-14" data-name="Ellipse 173"
                                 rx="1.102"
                                 ry="1.636" transform="translate(7.297 2.791)"/>
                        <path id="Path_477"
                              d="M232.617 225.9a11.922 11.922 0 0 1-.332 2.354c-.822 3.351-2.992 5.749-5.53 5.749-2.336 0-4.357-2.03-5.3-4.961a10.308 10.308 0 0 1-.472-2.126 2.788 2.788 0 0 1 1.942-.569c1.216.166 1.995 1.312 2.721 2.389.691 1.006 1.339 1.942 2.284 1.907 1.015-.035 1.732-1.12 2.415-2.257.706-1.139 1.371-2.337 2.272-2.486z"
                              class="cls-15" data-name="Path 477" transform="translate(-220.875 -216.555)"/>
                    </g>
                    <path id="Rectangle_136" d="M0 0h21.323v3.334H0z" class="cls-13" data-name="Rectangle 136"
                          transform="translate(26.967 41.632)"/>
                    <path id="Rectangle_137" d="M0 0h8.811v1.19H0z" class="cls-13" data-name="Rectangle 137"
                          transform="translate(33.214 46.129)"/>
                    <g id="Group_143" data-name="Group 143" transform="translate(9.992 37.843)">
                        <path id="Rectangle_138" d="M0 0h11.768v22.522H0z" class="cls-14" data-name="Rectangle 138"/>
                        <path id="Rectangle_139" d="M0 0h7.989v1.365H0z" class="cls-12" data-name="Rectangle 139"
                              transform="translate(1.295 1.872)"/>
                        <path id="Rectangle_140" d="M0 0h4.454v1.085H0z" class="cls-12" data-name="Rectangle 140"
                              transform="translate(1.295 4.532)"/>
                        <path id="Rectangle_141" d="M0 0h4.454v1.085H0z" class="cls-12" data-name="Rectangle 141"
                              transform="translate(6.344 4.532)"/>
                        <path id="Rectangle_142" d="M0 0h7.429v1.085H0z" class="cls-12" data-name="Rectangle 142"
                              transform="translate(1.295 6.414)"/>
                        <path id="Rectangle_143" d="M0 0h3.001v1.085H0z" class="cls-12" data-name="Rectangle 143"
                              transform="translate(1.295 8.295)"/>
                        <path id="Rectangle_144" d="M0 0h5.267v1.085H0z" class="cls-12" data-name="Rectangle 144"
                              transform="translate(4.961 8.295)"/>
                        <path id="Rectangle_145" d="M0 0h1.164v1.085H0z" class="cls-12" data-name="Rectangle 145"
                              transform="translate(1.295 10.176)"/>
                        <path id="Rectangle_146" d="M0 0h1.164v1.085H0z" class="cls-12" data-name="Rectangle 146"
                              transform="translate(1.295 12.057)"/>
                        <path id="Rectangle_147" d="M0 0h1.164v1.085H0z" class="cls-12" data-name="Rectangle 147"
                              transform="translate(1.295 13.947)"/>
                        <path id="Rectangle_148" d="M0 0h1.164v1.085H0z" class="cls-12" data-name="Rectangle 148"
                              transform="translate(3.132 10.176)"/>
                        <path id="Rectangle_149" d="M0 0h1.164v1.085H0z" class="cls-12" data-name="Rectangle 149"
                              transform="translate(3.132 12.057)"/>
                        <path id="Rectangle_150" d="M0 0h1.164v1.085H0z" class="cls-12" data-name="Rectangle 150"
                              transform="translate(3.132 13.947)"/>
                        <path id="Rectangle_151" d="M0 0h1.164v1.085H0z" class="cls-12" data-name="Rectangle 151"
                              transform="translate(4.961 10.176)"/>
                        <path id="Rectangle_152" d="M0 0h1.164v1.085H0z" class="cls-12" data-name="Rectangle 152"
                              transform="translate(4.961 12.057)"/>
                        <path id="Rectangle_153" d="M0 0h1.164v1.085H0z" class="cls-12" data-name="Rectangle 153"
                              transform="translate(4.961 13.947)"/>
                        <path id="Rectangle_154" d="M0 0h1.164v1.085H0z" class="cls-12" data-name="Rectangle 154"
                              transform="translate(6.799 10.176)"/>
                        <path id="Rectangle_155" d="M0 0h1.164v1.085H0z" class="cls-12" data-name="Rectangle 155"
                              transform="translate(6.799 12.057)"/>
                        <path id="Rectangle_156" d="M0 0h1.164v1.085H0z" class="cls-12" data-name="Rectangle 156"
                              transform="translate(6.799 13.947)"/>
                        <path id="Rectangle_157" d="M0 0h2.074v1.085H0z" class="cls-12" data-name="Rectangle 157"
                              transform="translate(1.295 15.828)"/>
                        <path id="Rectangle_158" d="M0 0h3.535v1.085H0z" class="cls-12" data-name="Rectangle 158"
                              transform="translate(1.295 17.71)"/>
                        <path id="Rectangle_159" d="M0 0h5.451v1.085H0z" class="cls-12" data-name="Rectangle 159"
                              transform="translate(5.53 17.71)"/>
                        <path id="Rectangle_160" d="M0 0h5.994v1.085H0z" class="cls-12" data-name="Rectangle 160"
                              transform="translate(1.295 19.591)"/>
                    </g>
                </g>
                <g id="Group_145" data-name="Group 145" transform="translate(79.502 33.722)">
                    <path id="Path_478"
                          d="M190.87 244.065a6.107 6.107 0 0 1 2.835-3.955.594.594 0 0 0 .525.525c-1.68 1.041-1.837 2.056-2.389 3.745z"
                          class="cls-16" data-name="Path 478" transform="translate(-178.998 -240.11)"/>
                    <path id="Path_479"
                          d="M191.239 252.063c.709-2.546 1.855-6.44-1.575-7.8s-5.32 2.249-6.387 3.789c-1.584 2.266-4.611 4.917-5.469 7a6.783 6.783 0 0 0 12.556 5.136c.848-2.079.131-5.456.875-8.125z"
                          class="cls-17" data-name="Path 479" transform="translate(-177.302 -240.592)"/>
                </g>
                <g id="Group_146" data-name="Group 146" transform="translate(88.821 40.792)">
                    <path id="Path_480"
                          d="M204.58 253.007a6.113 6.113 0 0 0 3.6-3.272.589.589 0 0 1-.577-.455c-.84 1.785-1.829 2.065-3.447 2.8z"
                          class="cls-9" data-name="Path 480" transform="translate(-189.978 -248.326)"/>
                    <path id="Path_481"
                          d="M201.014 263a9.543 9.543 0 0 1-12.346-1.356c-1.575-4.209-.56-9.476 3.132-12.022a8.113 8.113 0 0 1 8.706-.324c1 .586 1.234 1.864 1.934 2.879.639.928 1.706 1.461 1.925 2.494a8.15 8.15 0 0 1-3.351 8.329z"
                          class="cls-7" data-name="Path 481" transform="translate(-187.952 -248.19)"/>
                    <path id="Path_482" d="M205.26 252.753a6.309 6.309 0 0 1 7.84 5.4c-3.518.795-7.472-1.078-7.84-5.4z"
                          class="cls-9" data-name="Path 482" transform="translate(-190.116 -248.737)"/>
                </g>
                <g id="Group_147" data-name="Group 147" transform="translate(65.833 45.446)">
                    <path id="Path_483"
                          d="M161.68 254.079a1.059 1.059 0 0 0 .822-.569c1.531 1.715 2.056 2.354 2.669 2.616l-.9 1.067a17.935 17.935 0 0 1-2.591-3.114z"
                          class="cls-18" data-name="Path 483" transform="translate(-161.68 -253.51)"/>
                    <path id="Path_484"
                          d="M187.014 258.377s-.009.271-.017.612l-.026.508a6.809 6.809 0 0 1-1.54 3.386c-8.312 7.735-17.377.3-19.757-2.362-.752-.849-.516-2.389-1.024-2.957l.9-1.067a3.887 3.887 0 0 1 3.15.779c8.12 4.97 10.15 5.7 16.66.717a.669.669 0 0 1 .1-.07.935.935 0 0 1 .744-.079z"
                          class="cls-8" data-name="Path 484" transform="translate(-162.051 -253.871)"/>
                    <path id="Path_485"
                          d="M189.987 258.577s-.009.271-.018.612a7.856 7.856 0 0 0-.7-.6 7.678 7.678 0 0 0-.84-.472.935.935 0 0 1 .744-.079z"
                          class="cls-18" data-name="Path 485" transform="translate(-165.024 -254.071)"/>
                    <path id="Path_486"
                          d="M167.09 258.1c4.147 2.931 11.112 7.464 17.5 2.747-4.19 3.737-12.049 3.36-17.5-2.747z"
                          class="cls-18" data-name="Path 486" transform="translate(-162.356 -254.084)"/>
                    <path id="Path_487"
                          d="M166.87 259.39c2.774 4.252 11.646 8.645 18.506 2.529-3.929 5.127-14.306 4.716-18.506-2.529z"
                          class="cls-18" data-name="Path 487" transform="translate(-162.329 -254.245)"/>
                </g>
                <g id="Group_148" data-name="Group 148" transform="translate(55.299 55.089)">
                    <path id="Rectangle_161" d="M0 0h26.529v1.181H0z" class="cls-2" data-name="Rectangle 161"
                          transform="translate(20.352 6.921)"/>
                    <path id="Path_488" d="M161.68 267.73s4.182 4.13 9.817 4.13h26.529a14.7 14.7 0 0 0 9.616-4.13z"
                          class="cls-6"
                          data-name="Path 488" transform="translate(-151.145 -264.93)"/>
                    <path id="Path_489" d="M149.64 264.53h67.242l-10.736 2.8h-45.971z" class="cls-2"
                          data-name="Path 489"
                          transform="translate(-149.64 -264.53)"/>
                </g>
            </g>
        </g>
    </g>
</svg>
