<svg xmlns="http://www.w3.org/2000/svg" width="1041.758" height="1658.166" viewBox="0 0 1041.758 1658.166">
    <defs>
        <style>
            .cls-1{opacity:.3}.cls-2{fill:#9b5c00}.cls-3{fill:#62b2ba}.cls-4{fill:#87cfd6}.cls-5{fill:#f39000}.cls-6{fill:#ef5dad}.cls-7{fill:#d10073}.cls-8{fill:#546a0f}.cls-9{fill:#9ac31c}.cls-10{fill:#a3c831}.cls-11{fill:#8cb119}.cls-12{fill:#708e14}.cls-13{fill:#bfd96f}.cls-14{fill:#e3efc1}.cls-15{fill:#7ea017}.cls-16{fill:#31595d}.cls-17{fill:#4f8f95}
        </style>
    </defs>
    <g id="illustrations" transform="translate(-466.141 -707.586)">
        <g id="Part_4" data-name="Part 4">
            <g id="grp_-_dumbbell" class="cls-1" data-name="grp - dumbbell"
               transform="rotate(64.02 -1402.577 1444.153)">
                <g id="Group_89" data-name="Group 89" transform="translate(50.43 4.06)">
                    <ellipse id="Ellipse_146" cx="5.538" cy="9.74" class="cls-2" data-name="Ellipse 146" rx="5.538"
                             ry="9.74"
                             transform="rotate(-24.5 12.563 -6.854)"/>
                    <path id="Rectangle_108" d="M0 0h4.37v19.473H0z" class="cls-3" data-name="Rectangle 108"
                          transform="rotate(-24.5 11.99 -9.542)"/>
                    <ellipse id="Ellipse_147" cx="5.538" cy="9.74" class="cls-4" data-name="Ellipse 147" rx="5.538"
                             ry="9.74"
                             transform="rotate(-24.5 14.761 3.201)"/>
                </g>
                <g id="Group_90" data-name="Group 90" transform="translate(40.243)">
                    <ellipse id="Ellipse_148" cx="8.515" cy="14.979" class="cls-2" data-name="Ellipse 148" rx="8.515"
                             ry="14.979"
                             transform="rotate(-24.5 18.781 -8.057)"/>
                    <path id="Rectangle_109" d="M0 0h5.538v29.95H0z" class="cls-2" data-name="Rectangle 109"
                          transform="rotate(-24.5 17.294 -14.922)"/>
                    <ellipse id="Ellipse_149" cx="8.515" cy="14.979" class="cls-5" data-name="Ellipse 149" rx="8.515"
                             ry="14.979"
                             transform="rotate(-24.5 21.555 4.675)"/>
                </g>
                <g id="Group_91" data-name="Group 91" transform="translate(23.609 15.952)">
                    <ellipse id="Ellipse_150" cx="1.758" cy="3.094" class="cls-2" data-name="Ellipse 150" rx="1.758"
                             ry="3.094"
                             transform="rotate(-24.5 17.152 -62.868)"/>
                    <path id="Rectangle_110" d="M0 0h32.125v6.187H0z" class="cls-2" data-name="Rectangle 110"
                          transform="rotate(-24.5 32.36 7.018)"/>
                </g>
                <g id="Group_92" data-name="Group 92" transform="translate(.069 18.327)">
                    <ellipse id="Ellipse_151" cx="8.515" cy="14.979" class="cls-2" data-name="Ellipse 151" rx="8.515"
                             ry="14.979"
                             transform="rotate(-24.5 18.781 -8.057)"/>
                    <path id="Rectangle_111" d="M0 0h6.318v29.936H0z" class="cls-2" data-name="Rectangle 111"
                          transform="rotate(-24.5 17.49 -14.183)"/>
                    <ellipse id="Ellipse_152" cx="8.515" cy="14.979" class="cls-5" data-name="Ellipse 152" rx="8.515"
                             ry="14.979"
                             transform="rotate(-24.5 21.555 4.675)"/>
                </g>
                <g id="Group_93" data-name="Group 93" transform="translate(0 27.074)">
                    <ellipse id="Ellipse_153" cx="5.538" cy="9.74" class="cls-2" data-name="Ellipse 153" rx="5.538"
                             ry="9.74"
                             transform="rotate(-24.5 12.563 -6.854)"/>
                    <path id="Rectangle_112" d="M0 0h4.37v19.473H0z" class="cls-2" data-name="Rectangle 112"
                          transform="rotate(-24.5 11.99 -9.542)"/>
                    <ellipse id="Ellipse_154" cx="5.538" cy="9.74" class="cls-5" data-name="Ellipse 154" rx="5.538"
                             ry="9.74"
                             transform="rotate(-24.5 14.761 3.201)"/>
                </g>
                <g id="Group_94" data-name="Group 94" transform="translate(3.54 36.506)">
                    <ellipse id="Ellipse_155" cx="1.758" cy="3.094" class="cls-2" data-name="Ellipse 155" rx="1.758"
                             ry="3.094"
                             transform="rotate(-24.5 4.687 -5.388)"/>
                    <path id="Rectangle_113" d="M0 0h2.926v6.187H0z" class="cls-2" data-name="Rectangle 113"
                          transform="rotate(-24.5 5.264 -2.716)"/>
                    <ellipse id="Ellipse_156" cx="1.758" cy="3.094" class="cls-5" data-name="Ellipse 156" rx="1.758"
                             ry="3.094"
                             transform="rotate(-24.5 6.142 1.332)"/>
                </g>
            </g>
            <g id="grp_-_flag" class="cls-1" data-name="grp - flag" transform="rotate(31 -3142.945 3290.588)">
                <path id="Path_239"
                      d="M169.708 92.561l11.659-36.852c1.4-.467 1.868 0 1.868.467l-11.5 36.51c-.188.437-2.135.214-2.027-.125z"
                      class="cls-6" data-name="Path 239" transform="translate(-169.704 -55.515)"/>
                <path id="Path_240"
                      d="M186.979 56.355c6.457 3 18.32 3.305 29.1.452s19.947 4.852 21.8 6.705 7.471 4.006 7.471 4.006c-4.7.387-11.557-1.926-13.1-3.466 1.153 2.926 5.778 10.55 11.477 9.937-5.7 1.08-11.557-4.618-20.568-5.158s-18.021 5.3-26.266 4.006c-7.851-1.233-10.528-4.334-13.352-5.6z"
                      class="cls-7" data-name="Path 240" transform="translate(-173.448 -55.695)"/>
            </g>
            <g id="grp_-_fruit_3" class="cls-1" data-name="grp - fruit 3" transform="translate(673.961 2284)">
                <path id="Path_494"
                      d="M24.2 8.06A12.454 12.454 0 0 1 29.98 0a1.2 1.2 0 0 0 1.06 1.06c-3.42 2.12-3.75 4.18-4.86 7.64z"
                      class="cls-8" data-name="Path 494"/>
                <path id="Path_495"
                      d="M28.41 23.38c1.45-5.19 3.79-13.12-3.22-15.88s-10.84 4.59-13.02 7.71c-3.23 4.62-9.4 10.03-11.14 14.27a13.818 13.818 0 1 0 25.58 10.46c1.73-4.24.28-11.14 1.8-16.56z"
                      class="cls-9" data-name="Path 495"/>
            </g>
            <g id="grp_-_fruit_2" class="cls-1" data-name="grp - fruit 2" transform="rotate(64.02 -1024.256 1802.149)">
                <path id="Path_496"
                      d="M2.74 0a2.112 2.112 0 0 0 2.02.24c0 4.68-.05 6.37.51 7.6l-2.81.4C2.3 5.05 2.35 1.03 2.74 0z"
                      class="cls-2" data-name="Path 496"/>
                <path id="Path_497"
                      d="M35.36 39.83s-.38.4-.86.9l-.73.73c-.77.78-4.37 3.01-6.93 3.06C3.71 45 .01 21.4 0 14.13c0-2.31 2.45-4.33 2.45-5.88l2.82-.4C7.85 9.18 8.5 11.63 9 13.31 14.62 31.88 16.71 35.74 33.36 37c.09.01.17.01.25.02a1.864 1.864 0 0 1 1.23.89z"
                      class="cls-5" data-name="Path 497"/>
                <path id="Path_498"
                      d="M35.36 39.83s-.38.4-.86.9a14.729 14.729 0 0 0-.25-1.85 15.057 15.057 0 0 0-.64-1.85 1.864 1.864 0 0 1 1.23.89z"
                      class="cls-2" data-name="Path 498"/>
                <path id="Path_499" d="M5.27 11.65c2.33 10.07 6.78 26.42 22.89 27.91-11.45 0-22.89-11.23-22.89-27.91z"
                      class="cls-2" data-name="Path 499"/>
                <path id="Path_500" d="M3.43 13.1C1.89 23.33 9.42 42.04 28.15 42.04 15.21 44.53 0 29.82 3.43 13.1z"
                      class="cls-2"
                      data-name="Path 500"/>
            </g>
            <g id="grp_-_fruit_2-2" class="cls-1" data-name="grp - fruit 2" transform="rotate(169 595.071 1250.634)">
                <path id="Path_496-2"
                      d="M2.74 0a2.112 2.112 0 0 0 2.02.24c0 4.68-.05 6.37.51 7.6l-2.81.4C2.3 5.05 2.35 1.03 2.74 0z"
                      class="cls-2" data-name="Path 496"/>
                <path id="Path_497-2"
                      d="M35.36 39.83s-.38.4-.86.9l-.73.73c-.77.78-4.37 3.01-6.93 3.06C3.71 45 .01 21.4 0 14.13c0-2.31 2.45-4.33 2.45-5.88l2.82-.4C7.85 9.18 8.5 11.63 9 13.31 14.62 31.88 16.71 35.74 33.36 37c.09.01.17.01.25.02a1.864 1.864 0 0 1 1.23.89z"
                      class="cls-5" data-name="Path 497"/>
                <path id="Path_498-2"
                      d="M35.36 39.83s-.38.4-.86.9a14.729 14.729 0 0 0-.25-1.85 15.057 15.057 0 0 0-.64-1.85 1.864 1.864 0 0 1 1.23.89z"
                      class="cls-2" data-name="Path 498"/>
                <path id="Path_499-2" d="M5.27 11.65c2.33 10.07 6.78 26.42 22.89 27.91-11.45 0-22.89-11.23-22.89-27.91z"
                      class="cls-2" data-name="Path 499"/>
                <path id="Path_500-2" d="M3.43 13.1C1.89 23.33 9.42 42.04 28.15 42.04 15.21 44.53 0 29.82 3.43 13.1z"
                      class="cls-2" data-name="Path 500"/>
            </g>
        </g>
        <g id="Part_3" data-name="Part 3">
            <g id="grp_-_flag-2" class="cls-1" data-name="grp - flag" transform="rotate(-48 2661.929 -760.736)">
                <path id="Path_239-2"
                      d="M169.708 92.561l11.659-36.852c1.4-.467 1.868 0 1.868.467l-11.5 36.51c-.188.437-2.135.214-2.027-.125z"
                      class="cls-6" data-name="Path 239" transform="translate(-169.704 -55.515)"/>
                <path id="Path_240-2"
                      d="M186.979 56.355c6.457 3 18.32 3.305 29.1.452s19.947 4.852 21.8 6.705 7.471 4.006 7.471 4.006c-4.7.387-11.557-1.926-13.1-3.466 1.153 2.926 5.778 10.55 11.477 9.937-5.7 1.08-11.557-4.618-20.568-5.158s-18.021 5.3-26.266 4.006c-7.851-1.233-10.528-4.334-13.352-5.6z"
                      class="cls-7" data-name="Path 240" transform="translate(-173.448 -55.695)"/>
            </g>
            <g id="grp_-_cereal" class="cls-1" data-name="grp - cereal" transform="rotate(-37 3278.528 -798.72)">
                <path id="Rectangle_134" d="M0 0h48.764v66.102H0z" class="cls-10" data-name="Rectangle 134"
                      transform="translate(9.442 5.449)"/>
                <path id="Rectangle_135" d="M0 0h31.515v66.102H0z" class="cls-11" data-name="Rectangle 135"
                      transform="translate(26.681 5.449)"/>
                <path id="Path_474" d="M240.955 201.57H209.43l9.442 5.449h31.515z" class="cls-11" data-name="Path 474"
                      transform="translate(-209.43 -201.57)"/>
                <path id="Path_475" d="M278.674 201.57h-31.525l-10.789 5.449h31.525z" class="cls-12"
                      data-name="Path 475"
                      transform="translate(-209.679 -201.57)"/>
                <g id="Group_141" data-name="Group 141" transform="translate(34.131 22.341)">
                    <ellipse id="Ellipse_170" cx="8.847" cy="10.74" class="cls-13" data-name="Ellipse 170" rx="8.847"
                             ry="10.74"/>
                    <ellipse id="Ellipse_171" cx="1.655" cy="2.011" class="cls-14" data-name="Ellipse 171" rx="1.655"
                             ry="2.011"
                             transform="translate(10.987 3.438)"/>
                    <path id="Path_476"
                          d="M261.546 235.73a12.614 12.614 0 0 1-.5 2.9c-1.238 4.121-4.508 7.074-8.322 7.074-3.517 0-6.549-2.5-7.966-6.1a10.97 10.97 0 0 1-.713-2.616 4.9 4.9 0 0 1 2.923-.7c1.833.2 3 1.615 4.1 2.942 1.04 1.238 2.011 2.388 3.438 2.348 1.526-.04 2.606-1.377 3.626-2.774 1.056-1.419 2.057-2.886 3.414-3.074z"
                          class="cls-15" data-name="Path 476" transform="translate(-243.882 -224.228)"/>
                </g>
                <g id="Group_142" data-name="Group 142" transform="translate(11.324 13.524)">
                    <ellipse id="Ellipse_172" cx="6.658" cy="9.878" class="cls-13" data-name="Ellipse 172" rx="6.658"
                             ry="9.878"/>
                    <ellipse id="Ellipse_173" cx="1.248" cy="1.853" class="cls-14" data-name="Ellipse 173" rx="1.248"
                             ry="1.853"
                             transform="translate(8.263 3.16)"/>
                    <path id="Path_477"
                          d="M234.157 225.9a13.5 13.5 0 0 1-.376 2.665c-.931 3.795-3.388 6.509-6.261 6.509-2.645 0-4.934-2.3-6-5.617a11.674 11.674 0 0 1-.535-2.407 3.157 3.157 0 0 1 2.2-.644c1.377.188 2.259 1.486 3.081 2.7.783 1.139 1.516 2.2 2.586 2.16 1.149-.04 1.962-1.268 2.734-2.556.797-1.284 1.55-2.642 2.571-2.81z"
                          class="cls-15" data-name="Path 477" transform="translate(-220.861 -215.319)"/>
                </g>
                <path id="Rectangle_136" d="M0 0h24.144v3.775H0z" class="cls-13" data-name="Rectangle 136"
                      transform="translate(30.535 47.139)"/>
                <path id="Rectangle_137" d="M0 0h9.977v1.347H0z" class="cls-13" data-name="Rectangle 137"
                      transform="translate(37.608 52.232)"/>
                <g id="Group_143" data-name="Group 143" transform="translate(11.314 42.849)">
                    <path id="Rectangle_138" d="M0 0h13.325v25.502H0z" class="cls-14" data-name="Rectangle 138"/>
                    <path id="Rectangle_139" d="M0 0h9.045v1.546H0z" class="cls-12" data-name="Rectangle 139"
                          transform="translate(1.466 2.12)"/>
                    <path id="Rectangle_140" d="M0 0h5.043v1.229H0z" class="cls-12" data-name="Rectangle 140"
                          transform="translate(1.466 5.132)"/>
                    <path id="Rectangle_141" d="M0 0h5.043v1.229H0z" class="cls-12" data-name="Rectangle 141"
                          transform="translate(7.183 5.132)"/>
                    <path id="Rectangle_142" d="M0 0h8.411v1.229H0z" class="cls-12" data-name="Rectangle 142"
                          transform="translate(1.466 7.262)"/>
                    <path id="Rectangle_143" d="M0 0h3.398v1.229H0z" class="cls-12" data-name="Rectangle 143"
                          transform="translate(1.466 9.392)"/>
                    <path id="Rectangle_144" d="M0 0h5.964v1.229H0z" class="cls-12" data-name="Rectangle 144"
                          transform="translate(5.617 9.392)"/>
                    <path id="Rectangle_145" d="M0 0h1.318v1.229H0z" class="cls-12" data-name="Rectangle 145"
                          transform="translate(1.466 11.522)"/>
                    <path id="Rectangle_146" d="M0 0h1.318v1.229H0z" class="cls-12" data-name="Rectangle 146"
                          transform="translate(1.466 13.652)"/>
                    <path id="Rectangle_147" d="M0 0h1.318v1.229H0z" class="cls-12" data-name="Rectangle 147"
                          transform="translate(1.466 15.792)"/>
                    <path id="Rectangle_148" d="M0 0h1.318v1.229H0z" class="cls-12" data-name="Rectangle 148"
                          transform="translate(3.547 11.522)"/>
                    <path id="Rectangle_149" d="M0 0h1.318v1.229H0z" class="cls-12" data-name="Rectangle 149"
                          transform="translate(3.547 13.652)"/>
                    <path id="Rectangle_150" d="M0 0h1.318v1.229H0z" class="cls-12" data-name="Rectangle 150"
                          transform="translate(3.547 15.792)"/>
                    <path id="Rectangle_151" d="M0 0h1.318v1.229H0z" class="cls-12" data-name="Rectangle 151"
                          transform="translate(5.617 11.522)"/>
                    <path id="Rectangle_152" d="M0 0h1.318v1.229H0z" class="cls-12" data-name="Rectangle 152"
                          transform="translate(5.617 13.652)"/>
                    <path id="Rectangle_153" d="M0 0h1.318v1.229H0z" class="cls-12" data-name="Rectangle 153"
                          transform="translate(5.617 15.792)"/>
                    <path id="Rectangle_154" d="M0 0h1.318v1.229H0z" class="cls-12" data-name="Rectangle 154"
                          transform="translate(7.698 11.522)"/>
                    <path id="Rectangle_155" d="M0 0h1.318v1.229H0z" class="cls-12" data-name="Rectangle 155"
                          transform="translate(7.698 13.652)"/>
                    <path id="Rectangle_156" d="M0 0h1.318v1.229H0z" class="cls-12" data-name="Rectangle 156"
                          transform="translate(7.698 15.792)"/>
                    <path id="Rectangle_157" d="M0 0h2.348v1.229H0z" class="cls-12" data-name="Rectangle 157"
                          transform="translate(1.466 17.922)"/>
                    <path id="Rectangle_158" d="M0 0h4.003v1.229H0z" class="cls-12" data-name="Rectangle 158"
                          transform="translate(1.466 20.053)"/>
                    <path id="Rectangle_159" d="M0 0h6.172v1.229H0z" class="cls-12" data-name="Rectangle 159"
                          transform="translate(6.261 20.053)"/>
                    <path id="Rectangle_160" d="M0 0h6.787v1.229H0z" class="cls-12" data-name="Rectangle 160"
                          transform="translate(1.466 22.183)"/>
                </g>
            </g>
            <g id="grp_-_fruit_2-3" class="cls-1" data-name="grp - fruit 2" transform="translate(630 1432)">
                <path id="Path_496-3"
                      d="M2.74 0a2.112 2.112 0 0 0 2.02.24c0 4.68-.05 6.37.51 7.6l-2.81.4C2.3 5.05 2.35 1.03 2.74 0z"
                      class="cls-2" data-name="Path 496"/>
                <path id="Path_497-3"
                      d="M35.36 39.83s-.38.4-.86.9l-.73.73c-.77.78-4.37 3.01-6.93 3.06C3.71 45 .01 21.4 0 14.13c0-2.31 2.45-4.33 2.45-5.88l2.82-.4C7.85 9.18 8.5 11.63 9 13.31 14.62 31.88 16.71 35.74 33.36 37c.09.01.17.01.25.02a1.864 1.864 0 0 1 1.23.89z"
                      class="cls-5" data-name="Path 497"/>
                <path id="Path_498-3"
                      d="M35.36 39.83s-.38.4-.86.9a14.729 14.729 0 0 0-.25-1.85 15.057 15.057 0 0 0-.64-1.85 1.864 1.864 0 0 1 1.23.89z"
                      class="cls-2" data-name="Path 498"/>
                <path id="Path_499-3" d="M5.27 11.65c2.33 10.07 6.78 26.42 22.89 27.91-11.45 0-22.89-11.23-22.89-27.91z"
                      class="cls-2" data-name="Path 499"/>
                <path id="Path_500-3" d="M3.43 13.1C1.89 23.33 9.42 42.04 28.15 42.04 15.21 44.53 0 29.82 3.43 13.1z"
                      class="cls-2" data-name="Path 500"/>
            </g>
        </g>
        <g id="Part_2" data-name="Part 2">
            <g id="grp_-_dumbbell-2" class="cls-1" data-name="grp - dumbbell" transform="translate(1076.793 915)">
                <g id="Group_89-2" data-name="Group 89" transform="translate(50.43 4.06)">
                    <ellipse id="Ellipse_146-2" cx="5.538" cy="9.74" class="cls-2" data-name="Ellipse 146" rx="5.538"
                             ry="9.74"
                             transform="rotate(-24.5 12.563 -6.854)"/>
                    <path id="Rectangle_108-2" d="M0 0h4.37v19.473H0z" class="cls-3" data-name="Rectangle 108"
                          transform="rotate(-24.5 11.99 -9.542)"/>
                    <ellipse id="Ellipse_147-2" cx="5.538" cy="9.74" class="cls-4" data-name="Ellipse 147" rx="5.538"
                             ry="9.74"
                             transform="rotate(-24.5 14.761 3.201)"/>
                </g>
                <g id="Group_90-2" data-name="Group 90" transform="translate(40.243)">
                    <ellipse id="Ellipse_148-2" cx="8.515" cy="14.979" class="cls-2" data-name="Ellipse 148" rx="8.515"
                             ry="14.979" transform="rotate(-24.5 18.781 -8.057)"/>
                    <path id="Rectangle_109-2" d="M0 0h5.538v29.95H0z" class="cls-2" data-name="Rectangle 109"
                          transform="rotate(-24.5 17.294 -14.922)"/>
                    <ellipse id="Ellipse_149-2" cx="8.515" cy="14.979" class="cls-5" data-name="Ellipse 149" rx="8.515"
                             ry="14.979" transform="rotate(-24.5 21.555 4.675)"/>
                </g>
                <g id="Group_91-2" data-name="Group 91" transform="translate(23.609 15.952)">
                    <ellipse id="Ellipse_150-2" cx="1.758" cy="3.094" class="cls-2" data-name="Ellipse 150" rx="1.758"
                             ry="3.094"
                             transform="rotate(-24.5 17.152 -62.868)"/>
                    <path id="Rectangle_110-2" d="M0 0h32.125v6.187H0z" class="cls-2" data-name="Rectangle 110"
                          transform="rotate(-24.5 32.36 7.018)"/>
                </g>
                <g id="Group_92-2" data-name="Group 92" transform="translate(.069 18.327)">
                    <ellipse id="Ellipse_151-2" cx="8.515" cy="14.979" class="cls-2" data-name="Ellipse 151" rx="8.515"
                             ry="14.979" transform="rotate(-24.5 18.781 -8.057)"/>
                    <path id="Rectangle_111-2" d="M0 0h6.318v29.936H0z" class="cls-2" data-name="Rectangle 111"
                          transform="rotate(-24.5 17.49 -14.183)"/>
                    <ellipse id="Ellipse_152-2" cx="8.515" cy="14.979" class="cls-5" data-name="Ellipse 152" rx="8.515"
                             ry="14.979" transform="rotate(-24.5 21.555 4.675)"/>
                </g>
                <g id="Group_93-2" data-name="Group 93" transform="translate(0 27.074)">
                    <ellipse id="Ellipse_153-2" cx="5.538" cy="9.74" class="cls-2" data-name="Ellipse 153" rx="5.538"
                             ry="9.74"
                             transform="rotate(-24.5 12.563 -6.854)"/>
                    <path id="Rectangle_112-2" d="M0 0h4.37v19.473H0z" class="cls-2" data-name="Rectangle 112"
                          transform="rotate(-24.5 11.99 -9.542)"/>
                    <ellipse id="Ellipse_154-2" cx="5.538" cy="9.74" class="cls-5" data-name="Ellipse 154" rx="5.538"
                             ry="9.74"
                             transform="rotate(-24.5 14.761 3.201)"/>
                </g>
                <g id="Group_94-2" data-name="Group 94" transform="translate(3.54 36.506)">
                    <ellipse id="Ellipse_155-2" cx="1.758" cy="3.094" class="cls-2" data-name="Ellipse 155" rx="1.758"
                             ry="3.094"
                             transform="rotate(-24.5 4.687 -5.388)"/>
                    <path id="Rectangle_113-2" d="M0 0h2.926v6.187H0z" class="cls-2" data-name="Rectangle 113"
                          transform="rotate(-24.5 5.264 -2.716)"/>
                    <ellipse id="Ellipse_156-2" cx="1.758" cy="3.094" class="cls-5" data-name="Ellipse 156" rx="1.758"
                             ry="3.094"
                             transform="rotate(-24.5 6.142 1.332)"/>
                </g>
            </g>
            <g id="grp_-_fruit_3-2" class="cls-1" data-name="grp - fruit 3" transform="translate(568.961 1253)">
                <path id="Path_494-2"
                      d="M24.2 8.06A12.454 12.454 0 0 1 29.98 0a1.2 1.2 0 0 0 1.06 1.06c-3.42 2.12-3.75 4.18-4.86 7.64z"
                      class="cls-8" data-name="Path 494"/>
                <path id="Path_495-2"
                      d="M28.41 23.38c1.45-5.19 3.79-13.12-3.22-15.88s-10.84 4.59-13.02 7.71c-3.23 4.62-9.4 10.03-11.14 14.27a13.818 13.818 0 1 0 25.58 10.46c1.73-4.24.28-11.14 1.8-16.56z"
                      class="cls-9" data-name="Path 495"/>
            </g>
            <g id="grp_-_fruit_1" class="cls-1" data-name="grp - fruit 1" transform="translate(1449.006 1045)">
                <path id="Path_501"
                      d="M29.75 9.53a12.433 12.433 0 0 0 7.34-6.67 1.2 1.2 0 0 1-1.18-.93c-1.72 3.64-3.72 4.2-7.03 5.71z"
                      class="cls-16" data-name="Path 501"/>
                <path id="Path_502"
                      d="M26.61 30.18c-7.53 5.18-18.82 4.47-25.16-2.77C-1.75 18.84.3 8.1 7.83 2.92a16.551 16.551 0 0 1 17.74-.66c2.04 1.19 2.52 3.8 3.95 5.87 1.3 1.88 3.48 2.97 3.91 5.08a16.526 16.526 0 0 1-6.82 16.97z"
                      class="cls-17" data-name="Path 502"/>
                <path id="Path_503" d="M30.86 8.19a12.854 12.854 0 0 1 15.98 11c-7.17 1.62-15.23-2.2-15.98-11z"
                      class="cls-16"
                      data-name="Path 503"/>
            </g>
            <g id="grp_-_fruit_1-2" class="cls-1" data-name="grp - fruit 1" transform="rotate(-61 1489.71 -177.28)">
                <path id="Path_501-2"
                      d="M29.75 9.53a12.433 12.433 0 0 0 7.34-6.67 1.2 1.2 0 0 1-1.18-.93c-1.72 3.64-3.72 4.2-7.03 5.71z"
                      class="cls-16" data-name="Path 501"/>
                <path id="Path_502-2"
                      d="M26.61 30.18c-7.53 5.18-18.82 4.47-25.16-2.77C-1.75 18.84.3 8.1 7.83 2.92a16.551 16.551 0 0 1 17.74-.66c2.04 1.19 2.52 3.8 3.95 5.87 1.3 1.88 3.48 2.97 3.91 5.08a16.526 16.526 0 0 1-6.82 16.97z"
                      class="cls-17" data-name="Path 502"/>
                <path id="Path_503-2" d="M30.86 8.19a12.854 12.854 0 0 1 15.98 11c-7.17 1.62-15.23-2.2-15.98-11z"
                      class="cls-16"
                      data-name="Path 503"/>
            </g>
        </g>
        <g id="Part_1" data-name="Part 1">
            <g id="grp_-_flag-3" class="cls-1" data-name="grp - flag" transform="translate(1053.094 707.586)">
                <path id="Path_239-3"
                      d="M169.708 92.561l11.659-36.852c1.4-.467 1.868 0 1.868.467l-11.5 36.51c-.188.437-2.135.214-2.027-.125z"
                      class="cls-6" data-name="Path 239" transform="translate(-169.704 -55.515)"/>
                <path id="Path_240-3"
                      d="M186.979 56.355c6.457 3 18.32 3.305 29.1.452s19.947 4.852 21.8 6.705 7.471 4.006 7.471 4.006c-4.7.387-11.557-1.926-13.1-3.466 1.153 2.926 5.778 10.55 11.477 9.937-5.7 1.08-11.557-4.618-20.568-5.158s-18.021 5.3-26.266 4.006c-7.851-1.233-10.528-4.334-13.352-5.6z"
                      class="cls-7" data-name="Path 240" transform="translate(-173.448 -55.695)"/>
            </g>
            <g id="grp_-_cereal-2" class="cls-1" data-name="grp - cereal" transform="rotate(32 -1130.632 1452.4)">
                <path id="Rectangle_134-2" d="M0 0h48.764v66.102H0z" class="cls-10" data-name="Rectangle 134"
                      transform="translate(9.442 5.449)"/>
                <path id="Rectangle_135-2" d="M0 0h31.515v66.102H0z" class="cls-11" data-name="Rectangle 135"
                      transform="translate(26.681 5.449)"/>
                <path id="Path_474-2" d="M240.955 201.57H209.43l9.442 5.449h31.515z" class="cls-11" data-name="Path 474"
                      transform="translate(-209.43 -201.57)"/>
                <path id="Path_475-2" d="M278.674 201.57h-31.525l-10.789 5.449h31.525z" class="cls-12"
                      data-name="Path 475"
                      transform="translate(-209.679 -201.57)"/>
                <g id="Group_141-2" data-name="Group 141" transform="translate(34.131 22.341)">
                    <ellipse id="Ellipse_170-2" cx="8.847" cy="10.74" class="cls-13" data-name="Ellipse 170" rx="8.847"
                             ry="10.74"/>
                    <ellipse id="Ellipse_171-2" cx="1.655" cy="2.011" class="cls-14" data-name="Ellipse 171" rx="1.655"
                             ry="2.011"
                             transform="translate(10.987 3.438)"/>
                    <path id="Path_476-2"
                          d="M261.546 235.73a12.614 12.614 0 0 1-.5 2.9c-1.238 4.121-4.508 7.074-8.322 7.074-3.517 0-6.549-2.5-7.966-6.1a10.97 10.97 0 0 1-.713-2.616 4.9 4.9 0 0 1 2.923-.7c1.833.2 3 1.615 4.1 2.942 1.04 1.238 2.011 2.388 3.438 2.348 1.526-.04 2.606-1.377 3.626-2.774 1.056-1.419 2.057-2.886 3.414-3.074z"
                          class="cls-15" data-name="Path 476" transform="translate(-243.882 -224.228)"/>
                </g>
                <g id="Group_142-2" data-name="Group 142" transform="translate(11.324 13.524)">
                    <ellipse id="Ellipse_172-2" cx="6.658" cy="9.878" class="cls-13" data-name="Ellipse 172" rx="6.658"
                             ry="9.878"/>
                    <ellipse id="Ellipse_173-2" cx="1.248" cy="1.853" class="cls-14" data-name="Ellipse 173" rx="1.248"
                             ry="1.853"
                             transform="translate(8.263 3.16)"/>
                    <path id="Path_477-2"
                          d="M234.157 225.9a13.5 13.5 0 0 1-.376 2.665c-.931 3.795-3.388 6.509-6.261 6.509-2.645 0-4.934-2.3-6-5.617a11.674 11.674 0 0 1-.535-2.407 3.157 3.157 0 0 1 2.2-.644c1.377.188 2.259 1.486 3.081 2.7.783 1.139 1.516 2.2 2.586 2.16 1.149-.04 1.962-1.268 2.734-2.556.797-1.284 1.55-2.642 2.571-2.81z"
                          class="cls-15" data-name="Path 477" transform="translate(-220.861 -215.319)"/>
                </g>
                <path id="Rectangle_136-2" d="M0 0h24.144v3.775H0z" class="cls-13" data-name="Rectangle 136"
                      transform="translate(30.535 47.139)"/>
                <path id="Rectangle_137-2" d="M0 0h9.977v1.347H0z" class="cls-13" data-name="Rectangle 137"
                      transform="translate(37.608 52.232)"/>
                <g id="Group_143-2" data-name="Group 143" transform="translate(11.314 42.849)">
                    <path id="Rectangle_138-2" d="M0 0h13.325v25.502H0z" class="cls-14" data-name="Rectangle 138"/>
                    <path id="Rectangle_139-2" d="M0 0h9.045v1.546H0z" class="cls-12" data-name="Rectangle 139"
                          transform="translate(1.466 2.12)"/>
                    <path id="Rectangle_140-2" d="M0 0h5.043v1.229H0z" class="cls-12" data-name="Rectangle 140"
                          transform="translate(1.466 5.132)"/>
                    <path id="Rectangle_141-2" d="M0 0h5.043v1.229H0z" class="cls-12" data-name="Rectangle 141"
                          transform="translate(7.183 5.132)"/>
                    <path id="Rectangle_142-2" d="M0 0h8.411v1.229H0z" class="cls-12" data-name="Rectangle 142"
                          transform="translate(1.466 7.262)"/>
                    <path id="Rectangle_143-2" d="M0 0h3.398v1.229H0z" class="cls-12" data-name="Rectangle 143"
                          transform="translate(1.466 9.392)"/>
                    <path id="Rectangle_144-2" d="M0 0h5.964v1.229H0z" class="cls-12" data-name="Rectangle 144"
                          transform="translate(5.617 9.392)"/>
                    <path id="Rectangle_145-2" d="M0 0h1.318v1.229H0z" class="cls-12" data-name="Rectangle 145"
                          transform="translate(1.466 11.522)"/>
                    <path id="Rectangle_146-2" d="M0 0h1.318v1.229H0z" class="cls-12" data-name="Rectangle 146"
                          transform="translate(1.466 13.652)"/>
                    <path id="Rectangle_147-2" d="M0 0h1.318v1.229H0z" class="cls-12" data-name="Rectangle 147"
                          transform="translate(1.466 15.792)"/>
                    <path id="Rectangle_148-2" d="M0 0h1.318v1.229H0z" class="cls-12" data-name="Rectangle 148"
                          transform="translate(3.547 11.522)"/>
                    <path id="Rectangle_149-2" d="M0 0h1.318v1.229H0z" class="cls-12" data-name="Rectangle 149"
                          transform="translate(3.547 13.652)"/>
                    <path id="Rectangle_150-2" d="M0 0h1.318v1.229H0z" class="cls-12" data-name="Rectangle 150"
                          transform="translate(3.547 15.792)"/>
                    <path id="Rectangle_151-2" d="M0 0h1.318v1.229H0z" class="cls-12" data-name="Rectangle 151"
                          transform="translate(5.617 11.522)"/>
                    <path id="Rectangle_152-2" d="M0 0h1.318v1.229H0z" class="cls-12" data-name="Rectangle 152"
                          transform="translate(5.617 13.652)"/>
                    <path id="Rectangle_153-2" d="M0 0h1.318v1.229H0z" class="cls-12" data-name="Rectangle 153"
                          transform="translate(5.617 15.792)"/>
                    <path id="Rectangle_154-2" d="M0 0h1.318v1.229H0z" class="cls-12" data-name="Rectangle 154"
                          transform="translate(7.698 11.522)"/>
                    <path id="Rectangle_155-2" d="M0 0h1.318v1.229H0z" class="cls-12" data-name="Rectangle 155"
                          transform="translate(7.698 13.652)"/>
                    <path id="Rectangle_156-2" d="M0 0h1.318v1.229H0z" class="cls-12" data-name="Rectangle 156"
                          transform="translate(7.698 15.792)"/>
                    <path id="Rectangle_157-2" d="M0 0h2.348v1.229H0z" class="cls-12" data-name="Rectangle 157"
                          transform="translate(1.466 17.922)"/>
                    <path id="Rectangle_158-2" d="M0 0h4.003v1.229H0z" class="cls-12" data-name="Rectangle 158"
                          transform="translate(1.466 20.053)"/>
                    <path id="Rectangle_159-2" d="M0 0h6.172v1.229H0z" class="cls-12" data-name="Rectangle 159"
                          transform="translate(6.261 20.053)"/>
                    <path id="Rectangle_160-2" d="M0 0h6.787v1.229H0z" class="cls-12" data-name="Rectangle 160"
                          transform="translate(1.466 22.183)"/>
                </g>
            </g>
        </g>
    </g>
</svg>
